<svg id="Layer_1" data-name="Layer 1" xmlns="http://www.w3.org/2000/svg" viewBox="0 0 28.95 30.18"><defs><style>.cls-1{fill:#1b2a58;}</style></defs><g id="Group_406" data-name="Group 406"><path id="Path_2091" data-name="Path 2091" class="cls-1" d="M297.82,421.22c.1,0,.21-.05.31-.09l.31-.09.64-.24,1.3-.48,2.5-.9c.73-.26,1.46-.5,2.2-.74.58-.19,1.15-.37,1.73-.53l.6-.15.4-.07.08,0h0a.13.13,0,0,0,.08,0h0c0,.07.11,0,.1-.07v0a.11.11,0,0,0,0-.13h-.13a1.77,1.77,0,0,0-.46.07c-.53.12-1.06.28-1.58.44l-2.25.75-2.65.95-1.39.53-.69.27-.34.14-.35.16-.34.17s0,.07,0,.06Z" transform="translate(-283.06 -405.47)"/><path id="Path_2092" data-name="Path 2092" class="cls-1" d="M308,417.88a11.18,11.18,0,0,0,.4,1.28c.14.41.28.82.43,1.23.3.83.6,1.64.89,2.47l.88,2.47c.22.61.44,1.22.67,1.83.11.3.22.61.32.92l.15.46a3,3,0,0,0,.12.43.58.58,0,0,0,.1.12s.06,0,.07,0l0-.22a1.85,1.85,0,0,0,0-.23c0-.15-.08-.3-.13-.45-.1-.32-.21-.63-.32-.94-.21-.58-.43-1.15-.64-1.74-.29-.82-.58-1.65-.89-2.47s-.6-1.64-.9-2.45l-.45-1.24c-.16-.41-.3-.82-.46-1.22l-.14-.28c0-.06-.1.05-.09.08Z" transform="translate(-283.06 -405.47)"/><path id="Path_2093" data-name="Path 2093" class="cls-1" d="M300,434c1.08-.36,2.15-.73,3.22-1.11s2.09-.76,3.13-1.16,1.82-.71,2.73-1.08c.65-.28,1.31-.55,1.95-.87.21-.1.41-.21.61-.33l.18-.12,0,0h0l0,0,0,0a.27.27,0,0,0,.09-.12l0-.07s0-.05,0-.07,0,0,0,0h0l0,0h0c0-.11-.14,0-.14.06h0l.05-.1,0,0s0,0,0,0,0,0,0,0,0,0,0,0h0l0,0h0l0,0-.08.06h0l-.06,0-.12.08-.3.15c-.6.31-1.23.58-1.85.84-.87.36-1.75.71-2.63,1.05s-2.05.78-3.08,1.16l-3.19,1.12-.38.14a.22.22,0,0,0-.12.15c0,.05,0,.12.08.1Z" transform="translate(-283.06 -405.47)"/><path id="Path_2094" data-name="Path 2094" class="cls-1" d="M289.92,424c.09.37.21.74.33,1.1l.38,1.11c.27.76.53,1.51.81,2.26l.81,2.21.74,2c.1.29.21.58.32.88.05.13.1.27.14.4a3.12,3.12,0,0,0,.15.39.61.61,0,0,0,.1.14c.05,0,.13-.05.13-.1a1.66,1.66,0,0,0,0-.22,1.27,1.27,0,0,0-.06-.18c-.05-.14-.09-.27-.14-.4s-.21-.57-.31-.86c-.24-.66-.49-1.32-.73-2l-.81-2.2-.84-2.24-.42-1.09c-.13-.35-.26-.7-.42-1A2.56,2.56,0,0,0,290,424s0,0,0,0Z" transform="translate(-283.06 -405.47)"/><path id="Path_2095" data-name="Path 2095" class="cls-1" d="M295.29,421.1l2.29-.91c.7-.27,1.41-.53,2.13-.79l1.66-.58,1.74-.58c.37-.12.75-.24,1.13-.34l.6-.16.64-.2.32-.1s0-.06,0-.06a1.53,1.53,0,0,0-.3,0l-.31,0c-.2,0-.41.08-.61.14-.39.1-.77.22-1.16.35-.62.19-1.24.42-1.87.62l-1.59.56c-.7.25-1.4.5-2.1.77s-1.53.59-2.29.9l-.28.12a.17.17,0,0,0-.1.14c0,.05,0,.07.09.05Z" transform="translate(-283.06 -405.47)"/><path id="Path_2096" data-name="Path 2096" class="cls-1" d="M290,424a.09.09,0,0,1,0-.07s0,0,0,0l0,0a1.94,1.94,0,0,1,.2-.21,5.28,5.28,0,0,1,.8-.53l.66-.35a.2.2,0,0,0,.09-.13c0-.05,0-.08-.08-.06-.39.22-.78.43-1.15.68a2,2,0,0,0-.6.55.34.34,0,0,0-.05.26c0,.06.1,0,.09-.06Z" transform="translate(-283.06 -405.47)"/><path id="Path_2097" data-name="Path 2097" class="cls-1" d="M305.79,417.43a1,1,0,0,0,.24.05l.23,0,.45,0a4,4,0,0,1,.83.18l.21.09a.36.36,0,0,0,.25,0,0,0,0,0,0,0-.06h0a.31.31,0,0,0-.15-.15l-.2-.07a2.08,2.08,0,0,0-.41-.11l-.44-.06-.45,0h-.58s0,0,0,0Z" transform="translate(-283.06 -405.47)"/><path id="Path_2098" data-name="Path 2098" class="cls-1" d="M306.3,421.11a5.32,5.32,0,0,0-5.39,2.68,3.87,3.87,0,0,0-.3.73,2.45,2.45,0,0,0-.07.71c0,.06.07,0,.08,0s.05-.22.08-.33l.12-.32a.14.14,0,0,1,0-.07v0s0,0,0,0l.06-.16c0-.1.08-.2.13-.3l.08-.16v0c0-.05,0,0,0,0l.05-.09a2.9,2.9,0,0,1,.19-.29l.09-.13,0,0h0l.06-.07a2.85,2.85,0,0,1,.23-.26,4.79,4.79,0,0,1,1.12-.88,5.11,5.11,0,0,1,3.25-.64c.12,0,.25-.26.12-.28Z" transform="translate(-283.06 -405.47)"/><path id="Path_2099" data-name="Path 2099" class="cls-1" d="M305.5,421.33c.05,0,.1-.14,0-.12S305.44,421.34,305.5,421.33Z" transform="translate(-283.06 -405.47)"/><path id="Path_2100" data-name="Path 2100" class="cls-1" d="M300.53,425.22a4,4,0,0,0,0,1.68,5.76,5.76,0,0,0,.66,1.63,3.72,3.72,0,0,0,1,1.16,4.62,4.62,0,0,0,1.53.66,5.63,5.63,0,0,0,1.87.13l.23,0a.17.17,0,0,0,.13-.14c0-.05,0-.12-.07-.11a5.3,5.3,0,0,1-1.82-.05,4.68,4.68,0,0,1-1.55-.58,2.84,2.84,0,0,1-.54-.43,5.61,5.61,0,0,1-.47-.62,6.19,6.19,0,0,1-.73-1.51,3.94,3.94,0,0,1-.18-1.8c0-.09-.08,0-.1,0Z" transform="translate(-283.06 -405.47)"/><path id="Path_2101" data-name="Path 2101" class="cls-1" d="M305.22,430.4a5.22,5.22,0,0,0,2.48-.24,4.25,4.25,0,0,0,1.85-1.27,4.13,4.13,0,0,0,.85-1.76,5.63,5.63,0,0,0-.7-3.95,4.42,4.42,0,0,0-1.39-1.43,4.3,4.3,0,0,0-2-.65,4,4,0,0,0-2.1.43,4.72,4.72,0,0,0-1.64,1.37,5.59,5.59,0,0,0-.54.91,3.15,3.15,0,0,0-.31,1,1.64,1.64,0,0,0,0,.22v.11a.49.49,0,0,1,0,.12s0,0,0,0a.07.07,0,0,0,0-.06l0-.11s0-.08,0-.12l.06-.25c.05-.16.1-.32.16-.48v0h0l0-.06s0-.07,0-.11a1.6,1.6,0,0,1,.1-.23,1.51,1.51,0,0,1,.11-.22l0-.06h0v0a.61.61,0,0,1,.07-.1,3.07,3.07,0,0,1,.28-.42l0-.05s0,0,0,0l.08-.1.17-.19.18-.18,0,0h0l0,0,.1-.09.41-.3a4.29,4.29,0,0,1,.89-.43,3.86,3.86,0,0,1,2.07-.12,3.46,3.46,0,0,1,.94.31,4.14,4.14,0,0,1,1.48,1.21,4.77,4.77,0,0,1,.86,1.75,5.41,5.41,0,0,1,.18,2,4,4,0,0,1-.56,1.7,2.14,2.14,0,0,0-.13.19l-.07.09h0l0,0-.05.06a3.51,3.51,0,0,1-.33.34,3.69,3.69,0,0,1-.86.6,4.78,4.78,0,0,1-2.35.51,5.46,5.46,0,0,1-.57,0c-.11,0-.24.23-.12.24Z" transform="translate(-283.06 -405.47)"/><path id="Path_2102" data-name="Path 2102" class="cls-1" d="M301.73,425.25a3.84,3.84,0,0,0,0,1.31,5.09,5.09,0,0,0,.39,1.33,5.83,5.83,0,0,0,.67,1.16,3.32,3.32,0,0,0,.93.86,4.32,4.32,0,0,0,1.52.5c.11,0,.23-.24.11-.25a4.44,4.44,0,0,1-1.33-.4,3.24,3.24,0,0,1-.53-.35,3.41,3.41,0,0,1-.42-.43,5.87,5.87,0,0,1-.7-1.08,5.66,5.66,0,0,1-.45-1.25,3.53,3.53,0,0,1-.07-1.41c0-.09-.08,0-.1,0Z" transform="translate(-283.06 -405.47)"/><path id="Path_2103" data-name="Path 2103" class="cls-1" d="M297.84,421.16a4.2,4.2,0,0,0-1.11.53,2.73,2.73,0,0,0-.87.95.61.61,0,0,0-.05.6c.08.15.25.2.37.31a2.5,2.5,0,0,1,.52.85c.14.31.27.63.4,1,.2.5.39,1,.56,1.51s.32,1,.48,1.53.29,1,.47,1.49.37,1,.55,1.49.31.9.46,1.35.21.65.29,1a2,2,0,0,1,.06.49,1,1,0,0,1-.09.42.59.59,0,0,1-.1.17.73.73,0,0,1-.08.09l0,0h0l0,0-.1.08s0,0,0,0l-.07,0a2.77,2.77,0,0,1-.63.22,7,7,0,0,1-1.77.15,8.73,8.73,0,0,1-1.83-.23,3.25,3.25,0,0,1-1.25-.58.55.55,0,0,1-.17-.17s-.08,0-.07.08a2.56,2.56,0,0,0,.11.24,1,1,0,0,0,.21.21,2.23,2.23,0,0,0,.64.31,6.48,6.48,0,0,0,1.74.35,10.51,10.51,0,0,0,1.86,0,3,3,0,0,0,1.37-.42,1.33,1.33,0,0,0,.53-.81,2.33,2.33,0,0,0-.07-1.05c-.09-.32-.21-.63-.31-.95-.15-.51-.33-1-.51-1.5s-.38-1-.55-1.48-.31-1-.46-1.52-.32-1-.5-1.53-.35-1-.56-1.44c-.14-.31-.25-.62-.4-.92a1.91,1.91,0,0,0-.59-.76.74.74,0,0,1-.22-.14.28.28,0,0,1-.05-.25,1.33,1.33,0,0,1,.3-.53,3.26,3.26,0,0,1,1-.78,6.19,6.19,0,0,1,.58-.28s.05-.09,0-.07Z" transform="translate(-283.06 -405.47)"/><path id="Path_2104" data-name="Path 2104" class="cls-1" d="M289.93,424.07l.32.09.31.07a5.8,5.8,0,0,0,.6.13,5,5,0,0,0,1.33-.06,13.84,13.84,0,0,0,1.41-.24l.68-.17.46-.13a3.21,3.21,0,0,0,.54-.22,1.37,1.37,0,0,0,.24-.18.3.3,0,0,0,.12-.24,0,0,0,0,0,0,0,.4.4,0,0,0-.16.13l-.17.12a2.23,2.23,0,0,1-.45.18c-.14.05-.29.08-.44.12s-.43.13-.65.18c-.45.1-.91.18-1.36.24a6.31,6.31,0,0,1-1.3.08l-.34,0-.33-.05-.34-.08-.18,0-.19,0c-.05,0-.13.11-.06.14Z" transform="translate(-283.06 -405.47)"/><path id="Path_2105" data-name="Path 2105" class="cls-1" d="M305.4,429.37a4.13,4.13,0,0,0,1.91-.19,3.31,3.31,0,0,0,1.43-1,3,3,0,0,0,.67-1.38,4.31,4.31,0,0,0-.53-3.06,3.44,3.44,0,0,0-1.08-1.1,3.19,3.19,0,0,0-1.53-.5,3.07,3.07,0,0,0-1.63.33,3.78,3.78,0,0,0-1.27,1.08,3.9,3.9,0,0,0-.42.71,2.62,2.62,0,0,0-.24.78v.26a.64.64,0,0,1,0,.07s0,0,0,0a.05.05,0,0,0,0-.06l0-.08,0-.1.06-.2.06-.18c0-.06,0-.12.07-.19s0,0,0,0v0a.59.59,0,0,1,0-.08,1.54,1.54,0,0,1,.08-.19l.08-.16,0,0c0-.05,0,0,0,0l0-.09.21-.31,0,0,0,0,.06-.08.13-.15.13-.12,0,0h0a.6.6,0,0,1,.08-.08l.32-.23a2.85,2.85,0,0,1,.68-.33,3.2,3.2,0,0,1,.76-.15,3.11,3.11,0,0,1,1.53.3,3.45,3.45,0,0,1,1.79,2.26,4.51,4.51,0,0,1,.14,1.51,4.26,4.26,0,0,1-.15.69,2.46,2.46,0,0,1-.28.59l-.09.13-.1.14-.26.27-.28.22a3,3,0,0,1-.38.23,3.77,3.77,0,0,1-1.78.39l-.45,0c-.1,0-.23.23-.11.25Z" transform="translate(-283.06 -405.47)"/><path id="Path_2106" data-name="Path 2106" class="cls-1" d="M302.72,425.38a3.37,3.37,0,0,0,.27,2.05,4.7,4.7,0,0,0,.52.89,2.35,2.35,0,0,0,.71.66,3.49,3.49,0,0,0,1.18.39c.1,0,.23-.23.11-.25a3.26,3.26,0,0,1-1-.31,2.32,2.32,0,0,1-.73-.59,4,4,0,0,1-.53-.83,5.17,5.17,0,0,1-.36-.95,2.81,2.81,0,0,1-.06-1.08c0-.09-.08,0-.09,0Z" transform="translate(-283.06 -405.47)"/><path id="Path_2107" data-name="Path 2107" class="cls-1" d="M303.17,424.08a2.4,2.4,0,0,1,.82-.73,2.35,2.35,0,0,1,1-.27,2.92,2.92,0,0,1,1,.13,3,3,0,0,1,.94.5,3.51,3.51,0,0,1,1.08,1.65,4.46,4.46,0,0,1,.17,2,2.78,2.78,0,0,1-.29.94,1.14,1.14,0,0,1-.27.31,3.28,3.28,0,0,1-.37.22l-.12.07L307,429s-.05.11,0,.1a.31.31,0,0,0,.13,0l.12-.06a1.64,1.64,0,0,0,.22-.14,1.53,1.53,0,0,0,.35-.32,1.63,1.63,0,0,0,.25-.47c.05-.15.1-.31.14-.48a4.7,4.7,0,0,0,0-2.11,5.42,5.42,0,0,0-.37-1,3.12,3.12,0,0,0-.6-.85,2.83,2.83,0,0,0-2-.79,2.6,2.6,0,0,0-2.1,1.18s0,.05,0,0Z" transform="translate(-283.06 -405.47)"/><path id="Path_2108" data-name="Path 2108" class="cls-1" d="M304.81,424.07l.3.17a1.51,1.51,0,0,1,.28.22,2.59,2.59,0,0,1,.47.63,5.1,5.1,0,0,1,.57,1.49c0,.13.05.26.07.39l0,.31a1.84,1.84,0,0,0,0,.33s.06,0,.07,0a1.46,1.46,0,0,0,0-.59l-.06-.38c-.06-.26-.13-.5-.21-.75a4,4,0,0,0-.81-1.42,2.08,2.08,0,0,0-.32-.27.84.84,0,0,0-.38-.15s0,0,0,.05Z" transform="translate(-283.06 -405.47)"/><path id="Path_2109" data-name="Path 2109" class="cls-1" d="M305.93,426.1c0,.07.05.13.07.2a1.72,1.72,0,0,1,.07.21,3.74,3.74,0,0,1,.12.48,4,4,0,0,1,0,.5,1.7,1.7,0,0,1,0,.22.54.54,0,0,0,0,.18s0,0,0,0a.61.61,0,0,0,.08-.34,2.54,2.54,0,0,0,0-.39,3,3,0,0,0-.19-.78,1.42,1.42,0,0,0-.08-.18.42.42,0,0,0-.09-.14s0,0,0,0Z" transform="translate(-283.06 -405.47)"/><path id="Path_2110" data-name="Path 2110" class="cls-1" d="M307,426.38a1.78,1.78,0,0,1-.18.43,1.25,1.25,0,0,1-.26.3,2.62,2.62,0,0,1-.34.24l-.18.12-.1.06-.07.08s0,.08,0,.07h0l.06,0,.1-.06a1.37,1.37,0,0,0,.2-.13,2.6,2.6,0,0,0,.36-.3,1.32,1.32,0,0,0,.41-.82s0,0,0,0Z" transform="translate(-283.06 -405.47)"/><path id="Path_2111" data-name="Path 2111" class="cls-1" d="M306,427.25a.77.77,0,0,0,.21-.14,2.09,2.09,0,0,0,.22-.2,1.37,1.37,0,0,0,.2-.22.5.5,0,0,0,.13-.25c0-.05,0,0-.06,0l-.14.22a1.8,1.8,0,0,1-.19.2,1.12,1.12,0,0,1-.2.18,1,1,0,0,0-.18.17s0,0,0,0Z" transform="translate(-283.06 -405.47)"/><path id="Path_2112" data-name="Path 2112" class="cls-1" d="M304.62,424.85a1.31,1.31,0,0,0,.25-.22,1.86,1.86,0,0,1,.28-.21,2.87,2.87,0,0,1,.62-.34l.16-.06s.09,0,.09-.08-.22,0-.25,0a3.69,3.69,0,0,0-.62.33l-.31.25a.88.88,0,0,0-.24.27s0,0,0,0Z" transform="translate(-283.06 -405.47)"/><path id="Path_2113" data-name="Path 2113" class="cls-1" d="M305.25,424.66a.74.74,0,0,1,.25-.17,1.17,1.17,0,0,0,.31-.17s0,0,0,0a.16.16,0,0,0-.15,0l-.18.08a.7.7,0,0,0-.27.27s0,0,0,0Z" transform="translate(-283.06 -405.47)"/><path id="Path_2114" data-name="Path 2114" class="cls-1" d="M301.06,423.63a.94.94,0,0,0,.28-.1l.33-.13.32-.13a2.07,2.07,0,0,0,.34-.15s0,0,0,0a1.14,1.14,0,0,0-.32.07l-.33.12-.31.14a1.34,1.34,0,0,0-.31.17s0,.06,0,.05Z" transform="translate(-283.06 -405.47)"/><path id="Path_2115" data-name="Path 2115" class="cls-1" d="M300.88,424.1l.18-.05.2-.07.19-.06.21-.08s0,0,0,0h-.19l-.21.06-.2.07a.64.64,0,0,0-.18.1s0,.06,0,.06Z" transform="translate(-283.06 -405.47)"/><path id="Path_2116" data-name="Path 2116" class="cls-1" d="M300.69,424.5h.09l.1,0,.21-.06a1.52,1.52,0,0,0,.42-.16s0-.05,0,0l-.2,0-.22,0-.22.07a.45.45,0,0,0-.19.11s0,.05,0,.06Z" transform="translate(-283.06 -405.47)"/><path id="Path_2117" data-name="Path 2117" class="cls-1" d="M301.12,423.8h0s.09,0,.12,0l.16,0a1.43,1.43,0,0,0,.28-.13s0,0,0,0h-.13l-.14,0-.15.05-.08,0,0,0,0,0s0,.05,0,.05Z" transform="translate(-283.06 -405.47)"/><path id="Path_2118" data-name="Path 2118" class="cls-1" d="M301.47,428.7l.07,0h.09l.18,0a1.27,1.27,0,0,0,.39,0s.05,0,0-.06l-.08,0-.09,0-.2,0h-.38s0,0,0,.05Z" transform="translate(-283.06 -405.47)"/><path id="Path_2119" data-name="Path 2119" class="cls-1" d="M301.3,428.48a.38.38,0,0,0,.29.06h.17l.17,0s0-.06,0-.06a.81.81,0,0,0-.31,0h-.3s0,0,0,.05Z" transform="translate(-283.06 -405.47)"/><path id="Path_2120" data-name="Path 2120" class="cls-1" d="M301.18,428.29l.11,0h.12l.12,0a.3.3,0,0,0,.11-.06s0,0,0,0h-.2a.69.69,0,0,0-.25,0s0,0,0,.06Z" transform="translate(-283.06 -405.47)"/><path id="Path_2121" data-name="Path 2121" class="cls-1" d="M291.49,425.25a2.86,2.86,0,0,0,.72.13,4.07,4.07,0,0,0,.7,0,4.81,4.81,0,0,0,1.4-.31l.42-.17a1.41,1.41,0,0,0,.38-.21s0,0,0,0a.72.72,0,0,0-.32.08,2.17,2.17,0,0,1-.35.15,5.55,5.55,0,0,1-.72.25,4.33,4.33,0,0,1-1.39.14c-.27,0-.55-.06-.82-.07,0,0,0,0,0,0Z" transform="translate(-283.06 -405.47)"/><path id="Path_2122" data-name="Path 2122" class="cls-1" d="M291.79,426a3,3,0,0,0,.66.07l.63,0c.21,0,.41-.06.62-.11l.32-.08a1,1,0,0,0,.3-.14s0-.05,0-.05a.73.73,0,0,0-.3.07l-.3.09a3.24,3.24,0,0,1-.62.12,4.58,4.58,0,0,1-.64,0h-.67s0,0,0,0Z" transform="translate(-283.06 -405.47)"/><path id="Path_2123" data-name="Path 2123" class="cls-1" d="M291.54,425.61a.47.47,0,0,0,.21.11l.27,0h.52s0,0,0,0l-.11,0-.11,0h-.27a2.25,2.25,0,0,1-.52-.07s0,0,0,0Z" transform="translate(-283.06 -405.47)"/><path id="Path_2124" data-name="Path 2124" class="cls-1" d="M291.71,425.08a1.85,1.85,0,0,0,.12.33c0,.1.07.21.11.31a2.7,2.7,0,0,0,.25.61s.05,0,0,0a5.2,5.2,0,0,0-.21-.67l-.12-.3a.76.76,0,0,0-.15-.28s0,0,0,0Z" transform="translate(-283.06 -405.47)"/><path id="Path_2125" data-name="Path 2125" class="cls-1" d="M292.1,425.21c0,.05,0,.1,0,.14s0,.1.05.15a.87.87,0,0,0,.14.27s0,0,0,0-.05-.22-.09-.33a.42.42,0,0,0-.06-.14.21.21,0,0,0-.08-.11s0,0,0,0Z" transform="translate(-283.06 -405.47)"/><path id="Path_2126" data-name="Path 2126" class="cls-1" d="M293.69,425.53a.09.09,0,0,0,0,.07.29.29,0,0,0,0,.09c0,.08.05.16.07.23a1.79,1.79,0,0,0,.16.44s0,0,0,0a3.73,3.73,0,0,0-.09-.46c0-.07-.05-.15-.07-.21a.64.64,0,0,0-.08-.14h0s0,0,0,0Z" transform="translate(-283.06 -405.47)"/><path id="Path_2127" data-name="Path 2127" class="cls-1" d="M294,425.55l0,.06,0,.07a.61.61,0,0,1,.05.12.54.54,0,0,1,.05.11l0,.11s0,0,0,0a.51.51,0,0,0,0-.13.77.77,0,0,0,0-.15l-.06-.13,0,0-.05-.05s0,0,0,.06Z" transform="translate(-283.06 -405.47)"/><path id="Path_2128" data-name="Path 2128" class="cls-1" d="M296.9,432.75a2.91,2.91,0,0,0,.78,0,1.93,1.93,0,0,0,.78-.21l.19-.13a.62.62,0,0,0,.14-.18s0-.05,0,0a1.06,1.06,0,0,1-.2.12,1.77,1.77,0,0,1-.67.26l-.51.07-.48,0s0,0,0,0Z" transform="translate(-283.06 -405.47)"/><path id="Path_2129" data-name="Path 2129" class="cls-1" d="M298.09,433.08a.37.37,0,0,0,.18,0l.17-.07a1,1,0,0,0,.34-.22s0,0,0,0a.27.27,0,0,0-.15,0l-.17.09-.17.09-.18.08s0,.05,0,.05Z" transform="translate(-283.06 -405.47)"/><path id="Path_2130" data-name="Path 2130" class="cls-1" d="M298.25,432.15a2.36,2.36,0,0,0,.11.59c0,.1,0,.19.07.29a.85.85,0,0,0,.13.25s0,0,0,0a3.77,3.77,0,0,0-.14-.58,3.27,3.27,0,0,0-.17-.53s0,0,0,0Z" transform="translate(-283.06 -405.47)"/><path id="Path_2131" data-name="Path 2131" class="cls-1" d="M297.92,432.45a3.25,3.25,0,0,0,.11.42.78.78,0,0,0,.16.36s0,0,0,0a3.25,3.25,0,0,0-.11-.42.78.78,0,0,0-.16-.36s0,0,0,0Z" transform="translate(-283.06 -405.47)"/><path id="Path_2132" data-name="Path 2132" class="cls-1" d="M292.24,421.88a.64.64,0,0,0-.32.2,1,1,0,0,0-.2.29.41.41,0,0,0,0,.29.29.29,0,0,0,.21.16,1.14,1.14,0,0,0,.45,0,3.18,3.18,0,0,0,.51-.13,4.52,4.52,0,0,0,.47-.18l.44-.17a5.4,5.4,0,0,0,.9-.45,2.8,2.8,0,0,0,.38-.32,1.12,1.12,0,0,0,.25-.35c.18-.48-.56-.39-.81-.34l-.36.1-.56.22c-.19.07-.37.16-.56.24a5.36,5.36,0,0,0-.53.28,2.48,2.48,0,0,0-.26.19s0,.06,0,.05a2.07,2.07,0,0,0,.47-.18l.5-.24c.34-.15.69-.29,1.05-.41a2.27,2.27,0,0,1,.52-.09.69.69,0,0,1,.25,0l.09,0,.05.05s0,0,0,0v0h0v0s0,0,0,0l0,.09a1.5,1.5,0,0,1-.27.29,3.51,3.51,0,0,1-.79.47c-.26.12-.54.22-.81.34a4.85,4.85,0,0,1-.91.3c-.16,0-.53.11-.57-.13s.17-.39.31-.49l.15-.09s.05-.08,0-.07Z" transform="translate(-283.06 -405.47)"/><path id="Path_2133" data-name="Path 2133" class="cls-1" d="M291.9,423.26a.39.39,0,0,0,.3.12,2,2,0,0,0,.42-.05,4.23,4.23,0,0,0,.83-.27,6.49,6.49,0,0,0,1.52-.74,2.24,2.24,0,0,0,.36-.33.58.58,0,0,0,.17-.41c0-.06-.07,0-.1,0a.16.16,0,0,0-.07.14.19.19,0,0,1,0,.08.61.61,0,0,1-.12.15,1.6,1.6,0,0,1-.27.25,3.88,3.88,0,0,1-.69.38c-.23.11-.46.19-.69.3a6.92,6.92,0,0,1-.76.28,3.29,3.29,0,0,1-.43.09c-.12,0-.28,0-.36-.07s-.13.06-.09.1Z" transform="translate(-283.06 -405.47)"/><path id="Path_2134" data-name="Path 2134" class="cls-1" d="M292.05,423.17l0,0,0,0,0-.05s0-.08-.07-.13a.77.77,0,0,1-.07-.16l0-.09,0-.05h-.06s0,0,0,0,0,0,0,.07,0,0,0,.06a.42.42,0,0,1,0,.1,1.3,1.3,0,0,0,.08.17.47.47,0,0,0,.09.12l.05,0,0,0h0a.06.06,0,0,0,.05-.07Z" transform="translate(-283.06 -405.47)"/><path id="Path_2135" data-name="Path 2135" class="cls-1" d="M295.16,420.93V421l0,0,0,.08.06.15c0,.05,0,.11.05.16s0,.11,0,.17,0,.13.09.1a.11.11,0,0,0,.06-.07.21.21,0,0,0,0-.11,1.21,1.21,0,0,0-.11-.32l-.08-.16-.05-.07,0,0h0s-.05,0,0,0Z" transform="translate(-283.06 -405.47)"/><path id="Path_2136" data-name="Path 2136" class="cls-1" d="M292.28,422.36a.73.73,0,0,0,.46,0l.49-.21a10.26,10.26,0,0,0,.95-.44l.23-.15c.06,0,.16-.12.18-.2s0-.05,0-.05a.16.16,0,0,0-.08.06l-.08.08-.2.14a3.61,3.61,0,0,1-.44.22l-.44.2-.46.2-.28.1-.28,0s0,0,0,.05Z" transform="translate(-283.06 -405.47)"/><path id="Path_2137" data-name="Path 2137" class="cls-1" d="M306.46,419.47a.43.43,0,0,0,0,.25.47.47,0,0,0,.12.19.47.47,0,0,0,.41.11.62.62,0,0,0,.45-.92.61.61,0,0,0-.86-.15l-.11.1a.5.5,0,0,0-.09.23.59.59,0,0,0,0,.13.12.12,0,0,0,.08.1s.08-.06.08-.09a.2.2,0,0,0,0-.11.22.22,0,0,1,0-.08.2.2,0,0,1,0-.11.41.41,0,0,1,.3-.11.5.5,0,0,1,.43.19.46.46,0,0,1,.07.39s0,0,0,0,0,0,0,0v0h0s0,0,0,0l0,0h0l0,0-.07.06-.1.05a.44.44,0,0,1-.37-.05.31.31,0,0,1-.15-.15.44.44,0,0,1-.07-.19s0,0,0,0Z" transform="translate(-283.06 -405.47)"/><path id="Path_2138" data-name="Path 2138" class="cls-1" d="M306.52,419.17s0,0,0,0h0v0l0,0,.06,0a.3.3,0,0,1,.17.08,1.1,1.1,0,0,1,.31.42.36.36,0,0,1,0,.11s0,.08,0,.09,0,0,0,0,0-.18,0-.25a1,1,0,0,0-.15-.25,1,1,0,0,0-.2-.2.31.31,0,0,0-.21-.07.24.24,0,0,0-.1.05.21.21,0,0,0,0,.06s0,0,0,0,0,0,0,0,0,0,0,0Z" transform="translate(-283.06 -405.47)"/><path id="Path_2139" data-name="Path 2139" class="cls-1" d="M297.7,422.68l.31-.22.31-.19a6.77,6.77,0,0,1,.66-.33c.45-.2.93-.35,1.39-.52a6.33,6.33,0,0,0,.8-.36s0-.06,0-.06c-.48.14-.95.31-1.41.48l-.71.29a6.24,6.24,0,0,0-.68.35l-.35.23a3,3,0,0,0-.34.28s0,.07,0,.05Z" transform="translate(-283.06 -405.47)"/><path id="Path_2140" data-name="Path 2140" class="cls-1" d="M297.85,422.9l0,0,0,0,.08-.05a1.4,1.4,0,0,1,.17-.09l.17-.11.17-.11s0,0,0,0l-.17,0-.18.07-.18.11-.09.07-.06.08s0,.07,0,0Z" transform="translate(-283.06 -405.47)"/><path id="Path_2141" data-name="Path 2141" class="cls-1" d="M297.83,422.19a3.59,3.59,0,0,1,.39,1l0,0a1.9,1.9,0,0,0-.38-1s0,0,0,0Z" transform="translate(-283.06 -405.47)"/><path id="Path_2142" data-name="Path 2142" class="cls-1" d="M298,422.14s0,0,0,.06,0,0,0,.05a.14.14,0,0,0,0,.06l0,0s0,0,0,0,0,0,0,0v-.07s0,0,0-.05,0,0,0,0l0,0s0,0,0,0Z" transform="translate(-283.06 -405.47)"/><path id="Path_2143" data-name="Path 2143" class="cls-1" d="M298.3,422a.29.29,0,0,0,0,.09l0,.09,0,0,0,0,0,0,0,0s0,0,0,0a.31.31,0,0,0,0-.1v0l0-.05,0-.08,0-.06s-.05,0-.05,0Z" transform="translate(-283.06 -405.47)"/><path id="Path_2144" data-name="Path 2144" class="cls-1" d="M290.32,425a5.2,5.2,0,0,0-.21-.55c-.09-.18-.19-.35-.29-.52-.21-.34-.43-.67-.67-1-.48-.64-1-1.25-1.53-1.87s-1-1.23-1.45-1.88a23,23,0,0,1-1.31-2.05,10.46,10.46,0,0,1-1.43-4.61,6.88,6.88,0,0,1,1.14-4.09,6.21,6.21,0,0,1,3-2.35,5.62,5.62,0,0,1,1.9-.36,6.8,6.8,0,0,1,2,.32,10.81,10.81,0,0,1,3.52,2,27,27,0,0,1,3,2.88c1,1.07,1.95,2.17,3,3.21a18.63,18.63,0,0,0,3.7,3c.31.19.64.35,1,.51.11.05.27-.2.16-.25-.34-.16-.69-.33-1-.52s-.69-.43-1-.66a18.43,18.43,0,0,1-1.87-1.54c-1.12-1-2.14-2.2-3.17-3.33a37.45,37.45,0,0,0-2.93-3A12.63,12.63,0,0,0,292.3,406a6.65,6.65,0,0,0-4-.45,6.45,6.45,0,0,0-3.32,2,7,7,0,0,0-1.73,3.72,8.68,8.68,0,0,0,.79,4.76,16.19,16.19,0,0,0,1.17,2.17c.45.69.95,1.33,1.44,2,1,1.3,2.15,2.42,3,3.8.1.17.2.34.29.51l.28.5s.06,0,.05,0Z" transform="translate(-283.06 -405.47)"/><path id="Path_2145" data-name="Path 2145" class="cls-1" d="M291,426.78a11.91,11.91,0,0,0-1.18-2.16c-.45-.7-.95-1.36-1.47-2s-1-1.28-1.54-1.92-1.05-1.27-1.54-1.94a10.07,10.07,0,0,1-2-4.31,7.33,7.33,0,0,1,.75-4.29,6.6,6.6,0,0,1,2.5-2.76,5.34,5.34,0,0,1,1.76-.65,6.41,6.41,0,0,1,2.05,0,9.59,9.59,0,0,1,3.84,1.57,17.85,17.85,0,0,1,3.14,2.75c1,1.09,2,2.24,3,3.3a16,16,0,0,0,3.59,2.81c.34.18.7.34,1,.51.1.05.25-.18.15-.22-.36-.19-.73-.35-1.09-.54s-.68-.4-1-.63a15.45,15.45,0,0,1-1.79-1.44c-1.15-1.06-2.16-2.24-3.2-3.4a22.69,22.69,0,0,0-3.06-2.9,10.55,10.55,0,0,0-3.74-1.88,7.18,7.18,0,0,0-2.11-.25,6,6,0,0,0-1.9.43,6.44,6.44,0,0,0-2.85,2.44,7.48,7.48,0,0,0,0,8.49,36.1,36.1,0,0,0,3,4,33.29,33.29,0,0,1,3,4.12c.2.34.38.69.56,1,0,.06.11-.06.09-.1Z" transform="translate(-283.06 -405.47)"/></g></svg>