<svg id="Layer_1" data-name="Layer 1" xmlns="http://www.w3.org/2000/svg" viewBox="0 0 386.45 387.92"><defs><style>.cls-1{fill:#fff;fill-rule:evenodd;}</style></defs><path class="cls-1" d="M400.24,243.94c12.39,19.14,20.56,37.82,25.17,55.33-11.86-17.71-31.06-30.64-52.73-33.3-36-4.43-65.24,21.19-65.24,57.22s29.21,68.82,65.24,73.25c15.58,1.91,29.88-1.79,41.11-9.53-19.88,25.87-55.78,33-95.41,7.93-5,60.56-1.69,157.77-81.66,181.8q-17,5.1-32.08,2a192.56,192.56,0,0,0,148.58,15.7C455.4,563.67,513.34,456,482.64,353.78,472.16,318.88,433.41,251.89,400.24,243.94Z" transform="translate(-104.41 -216.14)"/><path class="cls-1" d="M242.05,224.36C139.88,255.05,81.93,362.77,112.63,465c8.29,27.56,21.21,53.09,39.08,73.34,8.24,10.35,10.11,30.75,6.66,43.22-1.4,5.1,29.68,31.43,29.09,19.45-1.6-32.69-15.93-59-31.28-81.28C138,493.22,136.11,336.08,251,255.62,184,319.4,163,392.75,156.43,429.79c-7,39.49,3.91,120,61.69,102.66,60.58-18.2,57.43-84.14,59.75-137.9,3.58-82.68,9.43-176.07,84.92-167A192.3,192.3,0,0,0,242.05,224.36Z" transform="translate(-104.41 -216.14)"/></svg>