<svg id="Layer_1" data-name="Layer 1" xmlns="http://www.w3.org/2000/svg" viewBox="0 0 547.24 69.47"><defs><style>.cls-1{fill:#adc6cd;}.cls-2,.cls-3,.cls-4{fill:none;stroke-linecap:round;stroke-linejoin:round;stroke-width:0.75px;stroke-dasharray:1.25 4;}.cls-2{stroke:#fee35c;}.cls-3{stroke:#5fc2cc;}.cls-4{stroke:#fff;}</style></defs><g id="Group_389" data-name="Group 389"><path id="Path_2010" data-name="Path 2010" class="cls-1" d="M103.76,27.71c-.09.2-.19.39-.28.59s-.15.37-.23.56c-.15.38-.29.75-.41,1.14a9.76,9.76,0,0,0-.31,1.18,9.3,9.3,0,0,0-.16,1.18,6.24,6.24,0,0,0,.27,2.35,6.94,6.94,0,0,0,1.18,2.17,7.52,7.52,0,0,0,3.58,2.52,6.13,6.13,0,0,0,2.17.3,6.24,6.24,0,0,0,2.25-.54,9.81,9.81,0,0,0,4-3,3.36,3.36,0,0,0,.32-.51c0-.07.06-.18,0-.19a.3.3,0,0,0-.26.15,9.36,9.36,0,0,1-.72.94,7,7,0,0,1-.84.8,10.78,10.78,0,0,1-2,1.28,6.32,6.32,0,0,1-2.08.66,5.82,5.82,0,0,1-2.08-.14,7.27,7.27,0,0,1-3.59-2.22,7.06,7.06,0,0,1-1.29-2,6.05,6.05,0,0,1-.47-2.26,12.91,12.91,0,0,1,1-4.5c.06-.17.1-.35.16-.52s-.08,0-.09,0Z" transform="translate(-0.01 0.37)"/><path id="Path_2011" data-name="Path 2011" class="cls-1" d="M103.83,27.59v-.11a.06.06,0,0,0-.06,0h0l-.22-.11-.22-.1-.22-.13c-.07,0-.19,0-.24.07a.28.28,0,0,0-.08.11v.11a1.82,1.82,0,0,0,.43.24l.22.09h.23a.18.18,0,0,0,.18-.05h-.16a.18.18,0,0,0,.16-.05s.09-.1,0-.14Z" transform="translate(-0.01 0.37)"/><path id="Path_2012" data-name="Path 2012" class="cls-1" d="M102.8,27.18a7.25,7.25,0,0,0,.75-1,4.27,4.27,0,0,0,.3-.51,2.1,2.1,0,0,0,.13-.26.19.19,0,0,0,0-.15V25.2c0-.06-.1,0-.11,0h0l-.07.06a.38.38,0,0,0-.09.15c0,.07-.07.15-.11.22a2.92,2.92,0,0,1-.29.48c-.1.16-.21.32-.32.47l-.16.23-.12.22c-.07.13.1.12.16,0Z" transform="translate(-0.01 0.37)"/><path id="Path_2013" data-name="Path 2013" class="cls-1" d="M103.84,25.35h.72a5.08,5.08,0,0,1,.78,0,8.84,8.84,0,0,1,1.62.19,13.12,13.12,0,0,1,3.32,1.17c.55.29,1.09.61,1.61.95a18.38,18.38,0,0,1,1.5,1.13A15.4,15.4,0,0,1,114.73,30c.21.2.41.42.61.64a6.66,6.66,0,0,1,.53.66,11.33,11.33,0,0,1,.9,1.28l.35.64c.09.2.16.43.27.62s.11.19.21.22h0c0,.09.19,0,.17-.09v-.16a.61.61,0,0,0,0-.19,1.21,1.21,0,0,0-.11-.32c-.1-.22-.2-.44-.32-.66a9.9,9.9,0,0,0-.85-1.29,13.78,13.78,0,0,0-1.13-1.28A16.11,16.11,0,0,0,114,28.82a16.59,16.59,0,0,0-1.51-1.14,17.94,17.94,0,0,0-1.61-1,13.75,13.75,0,0,0-3.38-1.36,9.16,9.16,0,0,0-1.65-.27,6.15,6.15,0,0,0-1.6.09,1.74,1.74,0,0,0-.38.14s-.08.09,0,.09Z" transform="translate(-0.01 0.37)"/><path id="Path_2014" data-name="Path 2014" class="cls-1" d="M116,35.65a2.63,2.63,0,0,1,1.66-.11,1.8,1.8,0,0,1,1.11,1,1.55,1.55,0,0,1,.13.48v.39l.08.09h.16a.44.44,0,0,0,.11-.29v-.27a2.08,2.08,0,0,0-.59-1.19,2.2,2.2,0,0,0-.76-.43,2.45,2.45,0,0,0-.89-.11,2,2,0,0,0-1.06.38v.08Z" transform="translate(-0.01 0.37)"/><path id="Path_2015" data-name="Path 2015" class="cls-1" d="M117.64,34a.1.1,0,0,0,.08.1l.13.11.39.24.42.28c.13.09.26.17.38.27l.16.12.06.06h0c0,.09.12.06.19,0h0a.11.11,0,0,0,.11,0h0s.08-.14,0-.19l-.08-.07-.15-.12c-.12-.09-.25-.17-.38-.25l-.87-.51a.66.66,0,0,0-.19-.09h-.15s-.16.06-.11.1Z" transform="translate(-0.01 0.37)"/><path id="Path_2016" data-name="Path 2016" class="cls-1" d="M119.39,35.18c.6.07,1.19.14,1.78.24a15,15,0,0,1,1.73.41,14.82,14.82,0,0,1,3.21,1.34,17.69,17.69,0,0,1,5.22,4.48c.36.46.69.93,1,1.41.16.24.3.49.45.73s.14.25.23.37.15.24.24.35l.25.33c0,.06.18,0,.16-.1s-.09-.29-.13-.43a2.83,2.83,0,0,0-.17-.4,5.19,5.19,0,0,0-.42-.77,12,12,0,0,0-1-1.45,18.47,18.47,0,0,0-2.35-2.57,16.3,16.3,0,0,0-6.08-3.49,15.56,15.56,0,0,0-1.76-.43,13.89,13.89,0,0,0-1.82-.21h-.46c-.07,0-.22.17-.1.19Z" transform="translate(-0.01 0.37)"/><path id="Path_2017" data-name="Path 2017" class="cls-1" d="M119,37.46a10.35,10.35,0,0,0-.58,1.21c-.17.39-.33.78-.46,1.18a8.31,8.31,0,0,0-.47,2.37,7.47,7.47,0,0,0,5.27,7.19,6.77,6.77,0,0,0,4.4-.16,8.7,8.7,0,0,0,4-3c.11-.17.22-.34.32-.52s.06-.19,0-.21a.37.37,0,0,0-.3.16,7.1,7.1,0,0,1-1.52,1.8,8.41,8.41,0,0,1-2,1.28,7.86,7.86,0,0,1-1.06.38,4.9,4.9,0,0,1-1,.19,6.46,6.46,0,0,1-2.1-.14A7.12,7.12,0,0,1,119.82,47a7.42,7.42,0,0,1-1.91-4.41,5.43,5.43,0,0,1,0-1.14l.09-.55a5.17,5.17,0,0,1,.11-.54,15.86,15.86,0,0,1,.82-2.31c.08-.2.16-.38.22-.58s-.13-.06-.17,0Z" transform="translate(-0.01 0.37)"/><path id="Path_2018" data-name="Path 2018" class="cls-1" d="M133.5,44.71l-.14.14-.15.2-.32.45-.64.88.2-.09-.11-.1a1.36,1.36,0,0,0-.24-.24l-.28-.22-.12-.1-.08-.06c-.13-.11-.42.14-.28.25l.5.4c.13.11.28.18.42.28s.17,0,.2-.09l.61-.88.32-.46.12-.19a.47.47,0,0,0,.06-.15c0-.06,0,0-.07,0Z" transform="translate(-0.01 0.37)"/><path id="Path_2019" data-name="Path 2019" class="cls-1" d="M120.4,36.92a17.93,17.93,0,0,0-1.22,2.29,7.61,7.61,0,0,0-.57,2.3,6.61,6.61,0,0,0,1.11,4.34,6,6,0,0,0,3.5,2.38,6.25,6.25,0,0,0,2.32.14,6.67,6.67,0,0,0,2.21-.72A9.74,9.74,0,0,0,131,44.58l.37-.53v-.11a.15.15,0,0,0-.16.09,17.45,17.45,0,0,1-1.41,1.8,8.38,8.38,0,0,1-1.67,1.41,6.54,6.54,0,0,1-2.07.84,6.08,6.08,0,0,1-2.25.05,5.89,5.89,0,0,1-3.63-2.07,6.36,6.36,0,0,1-1.39-4.12,7.65,7.65,0,0,1,.37-2.22,9.56,9.56,0,0,1,.47-1.15c.18-.37.37-.73.56-1.09.08-.19.18-.37.27-.56h-.06Z" transform="translate(-0.01 0.37)"/><path id="Path_2020" data-name="Path 2020" class="cls-1" d="M120.47,36.94a.7.7,0,0,1,.39-.26,1.48,1.48,0,0,1,.42,0,2.16,2.16,0,0,1,.61.19,8.8,8.8,0,0,1,1,.42,24.36,24.36,0,0,1,2.62,1.51c1,.62,1.88,1.29,2.77,2a18.77,18.77,0,0,1,2.17,1.91,5,5,0,0,1,.62.76,1.55,1.55,0,0,1,.14.29.81.81,0,0,1,0,.22h0m0,.07h0a.17.17,0,0,0,.13-.07h0a.09.09,0,0,0,0-.07.38.38,0,0,0,0-.15.84.84,0,0,0-.08-.27,3.48,3.48,0,0,0-.51-.74,17.22,17.22,0,0,0-2.09-1.91,25.9,25.9,0,0,0-2.83-2,24.18,24.18,0,0,0-2.74-1.6,8.41,8.41,0,0,0-1.07-.46l-.55-.17a1.16,1.16,0,0,0-.86,0,.78.78,0,0,0-.35.32c0,.06,0,0,.08,0Z" transform="translate(-0.01 0.37)"/><path id="Path_2021" data-name="Path 2021" class="cls-1" d="M116,34.46c-.58.57-1.1,1.2-1.7,1.74a8.07,8.07,0,0,1-1.82,1.25,6.51,6.51,0,0,1-4.23.54,6,6,0,0,1-3.54-2.37,6.16,6.16,0,0,1-1.09-4.12,7.66,7.66,0,0,1,.6-2.3,11.55,11.55,0,0,1,1.17-2.05l.38-.54V26.5a.15.15,0,0,0-.16.09,16,16,0,0,0-1.33,2.12A8.38,8.38,0,0,0,103.5,31a6.48,6.48,0,0,0,0,2.24A6.17,6.17,0,0,0,105.73,37a6.26,6.26,0,0,0,2,1,6.56,6.56,0,0,0,4.35-.24A7.75,7.75,0,0,0,114,36.67a12.13,12.13,0,0,0,1.74-1.77l.39-.46h0Z" transform="translate(-0.01 0.37)"/><path id="Path_2022" data-name="Path 2022" class="cls-1" d="M116.06,34.49a.84.84,0,0,0,.07-1,4,4,0,0,0-.42-.6,6.54,6.54,0,0,0-.74-.84,26.26,26.26,0,0,0-2.34-2c-.92-.7-1.87-1.37-2.85-2a20,20,0,0,0-2.5-1.34,5,5,0,0,0-.93-.3.82.82,0,0,0-.63.08l-.1.11m0,.07h0s.1,0,.13-.07h.37a3.32,3.32,0,0,1,.83.25,17,17,0,0,1,2.42,1.28q1.42.89,2.76,1.89a25.43,25.43,0,0,1,2.4,2,11.1,11.1,0,0,1,.83.85c.1.12.19.24.28.37a1.83,1.83,0,0,1,.45.76.75.75,0,0,1-.1.51c0,.06.05.06.08,0Z" transform="translate(-0.01 0.37)"/><path id="Path_2023" data-name="Path 2023" class="cls-1" d="M109.88,26.4h.68l.58-.09c.45-.06.9-.11,1.34-.18l1.89-.29c.59-.07,1.17-.14,1.76-.19,1.14-.1,2.28-.17,3.42-.25a5.58,5.58,0,0,0,1-.12c.32-.05.67-.11,1-.14a1.94,1.94,0,0,1,.83.06.61.61,0,0,1,.26.19.31.31,0,0,1,.06.13v.19a.67.67,0,0,1,0,.2c0,.08.11,0,.13,0a.84.84,0,0,0,.14-.51.52.52,0,0,0-.16-.31,1.21,1.21,0,0,0-.78-.24,14.94,14.94,0,0,0-2,.23c-.51.07-1,.08-1.56.12l-1.72.13c-1.23.1-2.46.23-3.68.44l-1.59.26c-.41.06-.83.13-1.24.23a3,3,0,0,0-.39.13s-.12.13,0,.12Z" transform="translate(-0.01 0.37)"/><path id="Path_2024" data-name="Path 2024" class="cls-1" d="M122.74,25.82a3.39,3.39,0,0,0,.34.81,1,1,0,0,0,.76.4.51.51,0,0,0,.53-.36.75.75,0,0,0,0-.42,1.87,1.87,0,0,0-.26-.48,4.44,4.44,0,0,0-1.33-1.43,3.25,3.25,0,0,0-1.79-.5,9.87,9.87,0,0,0-1.33.06l-1.39.09-2.73.2c-1.82.15-3.64.3-5.46.48l-2.68.26-1.36.12-.67.06-.73.08-.68.07s-.12.1,0,.1a30.33,30.33,0,0,0,5.13-.29c1.74-.19,3.47-.35,5.21-.5s3.52-.31,5.29-.42c.43,0,.85-.07,1.28-.08a3.38,3.38,0,0,1,1,.11,3.18,3.18,0,0,1,1.49.92,6.44,6.44,0,0,1,.61.77c.16.23.43.56.3.87s-.42.13-.58.05a.93.93,0,0,1-.39-.29,2.38,2.38,0,0,1-.23-.41l-.14-.33s-.11,0-.09.06Z" transform="translate(-0.01 0.37)"/><path id="Path_2025" data-name="Path 2025" class="cls-1" d="M132.18,42.21c0-.14.11-.27.16-.42s.09-.28.13-.43l.24-.92c.17-.65.34-1.3.49-2,.28-1.24.5-2.49.67-3.75s.27-2.35.43-3.52c.07-.61.28-1.2.33-1.81a1.72,1.72,0,0,0-.09-.84.56.56,0,0,0-.66-.33l-.27.08s-.13.12,0,.13h.5l.1.1a.68.68,0,0,1,.11.31,1.48,1.48,0,0,1,0,.42,16.12,16.12,0,0,1-.32,1.82c-.09.52-.13,1.05-.19,1.57l-.21,1.7c-.16,1.23-.36,2.45-.62,3.66s-.55,2.48-.86,3.71a.82.82,0,0,1-.06.38c-.06.12.12,0,.13,0Z" transform="translate(-0.01 0.37)"/><path id="Path_2026" data-name="Path 2026" class="cls-1" d="M133.65,28.33a4,4,0,0,1-.73-.41,1,1,0,0,1-.32-.75.32.32,0,0,1,.1-.22.37.37,0,0,1,.29,0,1.22,1.22,0,0,1,.45.24l.38.3a4.31,4.31,0,0,1,1.12,1.32,3.25,3.25,0,0,1,.27,1.74c-.08.9-.2,1.8-.31,2.7s-.23,1.79-.35,2.69c-.21,1.62-.42,3.25-.68,4.87-.08.52-.16,1-.23,1.55l-.09.83v1.64c0,.07.11,0,.11,0,.23-1.27.37-2.56.56-3.83.25-1.63.45-3.27.66-4.9.24-1.86.48-3.72.65-5.59a3.45,3.45,0,0,0-.3-1.79,4.09,4.09,0,0,0-1.17-1.38l-.41-.3-.2-.13a.82.82,0,0,0-.26-.1.6.6,0,0,0-.66.23.71.71,0,0,0,0,.69,1,1,0,0,0,.27.36,1.62,1.62,0,0,0,.41.22l.37.15s.12-.05.08-.08Z" transform="translate(-0.01 0.37)"/><path id="Path_2027" data-name="Path 2027" class="cls-1" d="M124.2,44.39l.48-.18.48-.17c.33-.11.66-.22,1-.31l2-.58.56-.17.29-.1a.41.41,0,0,0,.27-.17h0a.28.28,0,0,0-.18,0l-.26.09-.52.15-1,.3c-.68.19-1.36.39-2,.62l-.54.2a2.61,2.61,0,0,0-.54.24h0Z" transform="translate(-0.01 0.37)"/><path id="Path_2028" data-name="Path 2028" class="cls-1" d="M126.2,44.17a5.23,5.23,0,0,0,.77-.23l.84-.27c.28-.08.56-.17.85-.24l.45-.1a1,1,0,0,0,.38-.1v-.06c0-.06-.11,0-.16,0h-.21l-.42.09c-.3.07-.58.16-.87.25l-.86.28a6.58,6.58,0,0,0-.78.29h0Z" transform="translate(-0.01 0.37)"/><path id="Path_2029" data-name="Path 2029" class="cls-1" d="M128.06,43.92a1.87,1.87,0,0,0,.66-.15l.36-.1h.18a.36.36,0,0,0,.17-.07s.06-.05,0-.07-.09,0-.14,0h-.18l-.36.11-.7.22s-.07.07,0,.07Z" transform="translate(-0.01 0.37)"/><path id="Path_2030" data-name="Path 2030" class="cls-1" d="M128,42.79c.11.26.23.52.33.78s.09.27.14.4a1.46,1.46,0,0,1,.07.19l.12.17h.07a.79.79,0,0,0,0-.22.23.23,0,0,0-.07-.19l-.16-.4a2.82,2.82,0,0,0-.38-.73Z" transform="translate(-0.01 0.37)"/><path id="Path_2031" data-name="Path 2031" class="cls-1" d="M127,43.18v.22a.24.24,0,0,0,.07.2,1.42,1.42,0,0,0,.08.18.51.51,0,0,1,.09.16h.06v-.23a.66.66,0,0,0-.06-.2,1.14,1.14,0,0,0-.1-.19v-.09l-.06-.08H127Z" transform="translate(-0.01 0.37)"/><path id="Path_2032" data-name="Path 2032" class="cls-1" d="M120,40.27a.8.8,0,0,0,.34-.07l.4-.13.8-.27.79-.27a3.66,3.66,0,0,0,.8-.3s.06-.06,0-.06a1.61,1.61,0,0,0-.38.08l-.39.13-.81.28-.81.28-.39.13a1.73,1.73,0,0,0-.37.16h0Z" transform="translate(-0.01 0.37)"/><path id="Path_2033" data-name="Path 2033" class="cls-1" d="M120.43,40.5a3.83,3.83,0,0,0,.74-.19l.75-.27.73-.27a6.65,6.65,0,0,0,.75-.26v-.06a2.94,2.94,0,0,0-.72.19l-.74.28c-.25.09-.49.19-.74.27s-.51.16-.76.26c0,0-.07.06,0,.06Z" transform="translate(-0.01 0.37)"/><path id="Path_2034" data-name="Path 2034" class="cls-1" d="M120.38,41a1.3,1.3,0,0,0,.34-.08l.4-.15a3.89,3.89,0,0,0,.73-.38h0l-.72.29-.36.15-.36.15h0Z" transform="translate(-0.01 0.37)"/><path id="Path_2035" data-name="Path 2035" class="cls-1" d="M120.7,39.77a2.8,2.8,0,0,1,.13.41,1.39,1.39,0,0,0,.13.44,3.23,3.23,0,0,0,.39.94h.06a4.43,4.43,0,0,0-.3-1,3.12,3.12,0,0,1-.15-.43,1.22,1.22,0,0,0-.18-.36Z" transform="translate(-0.01 0.37)"/><path id="Path_2036" data-name="Path 2036" class="cls-1" d="M121.28,39.59a.79.79,0,0,0,.06.22l.06.23a1.55,1.55,0,0,0,.07.23.39.39,0,0,0,.12.19h.06v-.25a.32.32,0,0,0-.07-.23,1.87,1.87,0,0,0-.07-.22.38.38,0,0,0-.13-.18Z" transform="translate(-0.01 0.37)"/><path id="Path_2037" data-name="Path 2037" class="cls-1" d="M122,39.38a2.09,2.09,0,0,0,.08.23,1,1,0,0,1,.06.25,1,1,0,0,0,.06.25v.12a.24.24,0,0,0,.06.11s.06,0,.06-.05V40l-.06-.26a.73.73,0,0,0-.21-.44s-.08,0-.07.06Z" transform="translate(-0.01 0.37)"/><path id="Path_2038" data-name="Path 2038" class="cls-1" d="M121.66,46.63a5.3,5.3,0,0,0,1.33-.09l.69-.13a1.7,1.7,0,0,0,.62-.22v-.06a1.83,1.83,0,0,0-.61.11,5.28,5.28,0,0,0-.67.13l-.69.1a5,5,0,0,0-.66.11S121.61,46.62,121.66,46.63Z" transform="translate(-0.01 0.37)"/><path id="Path_2039" data-name="Path 2039" class="cls-1" d="M122.57,46.09a.49.49,0,0,0,0,.24v.21a1.74,1.74,0,0,0,.05.22v.1a.17.17,0,0,0,0,.1h0a.45.45,0,0,0,0-.23.89.89,0,0,0,0-.23v-.21a.66.66,0,0,0-.06-.2h0Z" transform="translate(-0.01 0.37)"/><path id="Path_2040" data-name="Path 2040" class="cls-1" d="M122.86,46.19v.36a.54.54,0,0,0,0,.18l.08.18H123a2.67,2.67,0,0,0,0-.4V46.2h-.15Z" transform="translate(-0.01 0.37)"/><path id="Path_2041" data-name="Path 2041" class="cls-1" d="M108.67,34.32c.3-.1.59-.23.89-.32l1-.28c.35-.11.71-.23,1.07-.33l1.13-.29a5.14,5.14,0,0,0,1.25-.43v-.06a6.91,6.91,0,0,0-1.11.27l-1.14.31c-.38.1-.74.22-1.11.34l-1,.29a3,3,0,0,0-1,.45h0Z" transform="translate(-0.01 0.37)"/><path id="Path_2042" data-name="Path 2042" class="cls-1" d="M110.8,34q.61-.09,1.23-.24a5.26,5.26,0,0,0,1.22-.39h0a9.47,9.47,0,0,0-1.2.26,9.25,9.25,0,0,0-1.25.34s-.07.07,0,.07Z" transform="translate(-0.01 0.37)"/><path id="Path_2043" data-name="Path 2043" class="cls-1" d="M110.34,34.61h.3l.32-.07a3.45,3.45,0,0,0,.62-.2h0a2.9,2.9,0,0,0-.59.09l-.32.09-.32.13h0Z" transform="translate(-0.01 0.37)"/><path id="Path_2044" data-name="Path 2044" class="cls-1" d="M110.74,33.1c.1.3.21.59.29.9a6.75,6.75,0,0,0,.29.9h.06a4.85,4.85,0,0,0-.16-1,2,2,0,0,0-.41-.84h-.07Z" transform="translate(-0.01 0.37)"/><path id="Path_2045" data-name="Path 2045" class="cls-1" d="M111.41,33.06v.16a.43.43,0,0,0,0,.16.48.48,0,0,0,.07.31,2.92,2.92,0,0,0,.21.56h.07a2.16,2.16,0,0,0-.09-.62,1,1,0,0,0-.1-.29v-.15l-.07-.14S111.4,33,111.41,33.06Z" transform="translate(-0.01 0.37)"/><path id="Path_2046" data-name="Path 2046" class="cls-1" d="M104.57,30.62a6.86,6.86,0,0,0,.91-.12l.94-.13a4.13,4.13,0,0,0,.92-.16,3.14,3.14,0,0,0,.89-.31s.06-.08,0-.07c-.29.06-.57.15-.86.21s-.63.12-.94.16l-.94.13a4.28,4.28,0,0,0-.92.23S104.5,30.63,104.57,30.62Z" transform="translate(-0.01 0.37)"/><path id="Path_2047" data-name="Path 2047" class="cls-1" d="M105.92,30.86a2.31,2.31,0,0,0,.74-.09l.75-.1a8.19,8.19,0,0,0,1.48-.26s.06-.06,0-.05a12.23,12.23,0,0,0-1.47.16,7.63,7.63,0,0,0-1.5.28S105.88,30.86,105.92,30.86Z" transform="translate(-0.01 0.37)"/><path id="Path_2048" data-name="Path 2048" class="cls-1" d="M106.54,29.86a1.41,1.41,0,0,0,0,.41.73.73,0,0,0,.08.38,2.13,2.13,0,0,0,.23.74h.07a3.52,3.52,0,0,0-.13-.79,2.33,2.33,0,0,0-.08-.38,1.21,1.21,0,0,0-.11-.37h-.06Z" transform="translate(-0.01 0.37)"/><path id="Path_2049" data-name="Path 2049" class="cls-1" d="M107.09,29.27a2,2,0,0,0,.07.85c.06.27.13.54.2.81h.09a2.66,2.66,0,0,0-.11-.84,1.89,1.89,0,0,0-.1-.41,2.57,2.57,0,0,0-.08-.4h-.07Z" transform="translate(-0.01 0.37)"/><path id="Path_2050" data-name="Path 2050" class="cls-1" d="M105.84,35.71a1.51,1.51,0,0,0,.52,0l.58-.14.59-.14a4,4,0,0,0,.59-.17s.06,0,0-.06a1.19,1.19,0,0,0-.53,0l-.59.15-.58.14a5.47,5.47,0,0,0-.58.15s-.06,0,0,.06Z" transform="translate(-0.01 0.37)"/><path id="Path_2051" data-name="Path 2051" class="cls-1" d="M105.53,36.2h.4l.43-.09a6.34,6.34,0,0,0,.86-.21s.06,0,0-.06a3.4,3.4,0,0,0-.84.11l-.43.1-.2.05-.22.08s-.07.06,0,.06Z" transform="translate(-0.01 0.37)"/><path id="Path_2052" data-name="Path 2052" class="cls-1" d="M106.2,35.36a2,2,0,0,1,.07.23.32.32,0,0,0,.07.23,1.39,1.39,0,0,0,.17.44h.07a1.36,1.36,0,0,0-.08-.49.85.85,0,0,0-.09-.22.86.86,0,0,0-.13-.2h-.08Z" transform="translate(-0.01 0.37)"/><path id="Path_2053" data-name="Path 2053" class="cls-1" d="M107.39,25.48a1.85,1.85,0,0,0,.47,0h.51l1-.09c.69-.06,1.37-.14,2.06-.22,1.37-.15,2.73-.31,4.11-.37l1.09-.08h.55a2.44,2.44,0,0,0,.54,0s.1-.07,0-.1a.73.73,0,0,0-.41-.06h-.49l-1,.08c-.68.05-1.36.08-2,.14-1.38.13-2.76.29-4.14.45l-1.16.13-.58.05-.58.08s-.07.07,0,.07Z" transform="translate(-0.01 0.37)"/><path id="Path_2054" data-name="Path 2054" class="cls-1" d="M103.94,25.44a3.51,3.51,0,0,1,1.37,0c.48.08,1,.18,1.43.3a12,12,0,0,1,3.06,1.2,23.27,23.27,0,0,1,2.4,1.54,21.28,21.28,0,0,1,2.34,2,11.36,11.36,0,0,1,1.74,2.11,1.3,1.3,0,0,0,.18.23s.1,0,.09-.06a1,1,0,0,0-.11-.29c0-.09-.11-.18-.17-.27l-.38-.53a14.39,14.39,0,0,0-1-1.07,22.15,22.15,0,0,0-2.33-2,23.42,23.42,0,0,0-2.45-1.6,12.94,12.94,0,0,0-3-1.25c-.51-.13-1-.24-1.54-.34a3.93,3.93,0,0,0-1.45-.07.94.94,0,0,0-.28.1s-.06.09,0,.07Z" transform="translate(-0.01 0.37)"/><path id="Path_2055" data-name="Path 2055" class="cls-1" d="M120.75,35.8c.19.05.38.07.57.11s.43.08.64.14a11.43,11.43,0,0,1,1.41.42A19.82,19.82,0,0,1,126,37.63a14.4,14.4,0,0,1,2.57,1.82A28.33,28.33,0,0,1,131,41.92a21.59,21.59,0,0,1,2.06,2.79,2.43,2.43,0,0,0,.24.32.09.09,0,0,0,.13,0,.1.1,0,0,0,0-.09,3.94,3.94,0,0,0-.41-.72l-.5-.73a16,16,0,0,0-1.07-1.39A28.92,28.92,0,0,0,129,39.58a15.08,15.08,0,0,0-2.63-2,15.85,15.85,0,0,0-2.63-1.17,12.22,12.22,0,0,0-2.72-.7h-.3s-.08.06,0,.08Z" transform="translate(-0.01 0.37)"/><path id="Path_2056" data-name="Path 2056" class="cls-1" d="M134.28,35.36a8.32,8.32,0,0,1-.25,1.41c-.13.57-.22,1.14-.31,1.72s-.14,1.15-.23,1.73-.2,1.18-.3,1.77c-.06.32-.13.64-.17,1l-.06.49a1.19,1.19,0,0,0,0,.46c0,.09.14,0,.16,0a1.2,1.2,0,0,0,.07-.42V43.1a4.86,4.86,0,0,1,.14-.85c.1-.59.21-1.18.3-1.77s.16-1.17.24-1.76.17-1.16.29-1.74c.05-.27.12-.53.17-.79a1.71,1.71,0,0,0,0-.78h-.05Z" transform="translate(-0.01 0.37)"/></g><g id="Group_390" data-name="Group 390"><path id="Path_2057" data-name="Path 2057" class="cls-1" d="M359.7,40.81c.67-.13,1.34-.24,2-.31h2a6,6,0,0,1,.95.11l.74.16h.24l.32.11a5.83,5.83,0,0,1,.58.23h.06l.12.06.26.14a3.52,3.52,0,0,1,.45.3l.11.07h0l.19.17.34.34.15.19.07.09h0a1.9,1.9,0,0,1,.23.39,3.48,3.48,0,0,1,.29.82h0v.4a3.23,3.23,0,0,1,0,.44,3.23,3.23,0,0,1,0,.44v.39h0v.17l-.07.22a1.3,1.3,0,0,1-.17.44,6.53,6.53,0,0,1-.48.86.36.36,0,0,1-.07.1h0l-.05.06-.15.2c-.11.14-.23.27-.35.4a6.93,6.93,0,0,1-.8.73h-.05l-.12.09-.23.15-.49.31-.45.58h-.07l-.15.06-.29.12-.6.2a1.58,1.58,0,0,1-.31.09h-.24a10.39,10.39,0,0,1-1.36.21h-2.19l-.8-.11-.41-.06h-.42c-.09,0-.17.08-.05.11l.16.07.2.07.42.12a7.62,7.62,0,0,0,.81.14,11.82,11.82,0,0,0,1.57.1,10.14,10.14,0,0,0,2.85-.43,8.64,8.64,0,0,0,2.26-1.06,7.75,7.75,0,0,0,1.67-1.51,6.08,6.08,0,0,0,1-1.77,4.31,4.31,0,0,0,.22-1.82,3.74,3.74,0,0,0-.63-1.7,4.65,4.65,0,0,0-1.56-1.4,7.8,7.8,0,0,0-2.62-.88,13,13,0,0,0-4.13.06,4.88,4.88,0,0,0-1,.18c-.08,0-.22.07-.17.18a.29.29,0,0,0,.3.1Z" transform="translate(-0.01 0.37)"/><path id="Path_2058" data-name="Path 2058" class="cls-1" d="M357.28,49.86a35.15,35.15,0,0,0-3.94-.77,38.22,38.22,0,0,0-4-.44h-1.92a20,20,0,0,1-2.45-.1,7.34,7.34,0,0,1-4.25-1.5,3.79,3.79,0,0,1-1.37-3.4,4.13,4.13,0,0,1,.83-1.8,4,4,0,0,1,1.21-1.1l.16-.09h.14c.12-.06.25-.1.37-.15h.34l.38-.07h2l.42.06.86.17.86.21h.16l.23.06.43.12a28.93,28.93,0,0,0,3.29.86,14.4,14.4,0,0,0,5.11-.22l1.21-.25c.08,0,.22-.07.18-.17a.29.29,0,0,0-.31-.11,19.26,19.26,0,0,1-5.07.58,11.28,11.28,0,0,1-2-.33h-.34l-.41-.12-.82-.23a27.59,27.59,0,0,0-3.48-.85,7,7,0,0,0-3.39.22,4.63,4.63,0,0,0-2.56,2.45,3.62,3.62,0,0,0-.3,2,3.9,3.9,0,0,0,.75,1.79A4.94,4.94,0,0,0,341.12,48a8.09,8.09,0,0,0,2.33.82,24.63,24.63,0,0,0,5,.31,31.84,31.84,0,0,1,3.65.27c1.41.17,2.83.38,4.22.68l.82.19a.2.2,0,0,0,.21-.06s0-.11-.07-.13Z" transform="translate(-0.01 0.37)"/><path id="Path_2059" data-name="Path 2059" class="cls-1" d="M365.1,49.8a7.42,7.42,0,0,1-2.82.91,13.39,13.39,0,0,1-3.74.06,13.59,13.59,0,0,1-2-.39c-.37-.11-.73-.23-1.1-.31-.87-.2-1.75-.34-2.63-.47s-1.88-.28-2.83-.38c-.34,0-.68-.08-1-.1h-1.61a25.46,25.46,0,0,1-4-.19,6.68,6.68,0,0,1-3.5-1.39,4,4,0,0,1-1.45-2.76,3.35,3.35,0,0,1,.28-1.59,4.9,4.9,0,0,1,1.26-1.7,3.74,3.74,0,0,1,.83-.52c.09,0-.06-.12-.12-.09A4.38,4.38,0,0,0,339,42.13a4.54,4.54,0,0,0-.93,1.73,3.46,3.46,0,0,0,0,1.63,3.79,3.79,0,0,0,.71,1.47,5.8,5.8,0,0,0,3.12,2,16.51,16.51,0,0,0,4.2.48h3.17c.88.09,1.77.21,2.65.33s1.94.29,2.9.48l.56.12.22.05h.16c.59.17,1.17.35,1.78.47a14.12,14.12,0,0,0,4,.18,10.24,10.24,0,0,0,3.31-.81,4.75,4.75,0,0,0,.59-.31.13.13,0,0,0,.06-.16h-.06a.38.38,0,0,0-.36,0Z" transform="translate(-0.01 0.37)"/><path id="Path_2060" data-name="Path 2060" class="cls-1" d="M348.83,40.91c.27-.15.52-.32.78-.49s.45-.3.69-.44a6,6,0,0,1,1.41-.6,8,8,0,0,1,3.47-.11,14.6,14.6,0,0,1,3.47,1.1,28.3,28.3,0,0,1,3.2,1.74c.53.32,1,.66,1.54,1a8,8,0,0,0,1.67.87,3.45,3.45,0,0,0,.46.12.29.29,0,0,0,.3-.1.21.21,0,0,0-.17-.18h-.18l-.19-.11a3.25,3.25,0,0,1-.43-.18,7.52,7.52,0,0,1-.79-.43c-.51-.36-1-.69-1.57-1a33.78,33.78,0,0,0-3.29-1.8,15.37,15.37,0,0,0-3.56-1.19,9.32,9.32,0,0,0-3.72,0A7.65,7.65,0,0,0,349,40.57c-.12.09-.23.19-.34.29V41a.17.17,0,0,0,.17,0Z" transform="translate(-0.01 0.37)"/><path id="Path_2061" data-name="Path 2061" class="cls-1" d="M365.56,44h-1.95c-.65,0-1.3.06-2,.11-1.24.08-2.48.21-3.72.37a23.25,23.25,0,0,0-3.51.72,11.92,11.92,0,0,0-3,1.41c-.46.29-.91.59-1.36.91l-.66.47-.3.22a1.76,1.76,0,0,0-.3.24c-.06.08-.11.16-.17.23s.11.09.14.07l.34-.15a2.2,2.2,0,0,0,.32-.21c.2-.16.41-.31.62-.46.44-.31.89-.62,1.35-.92s.85-.54,1.29-.78a11.4,11.4,0,0,1,1.57-.67,19.8,19.8,0,0,1,3.41-.77c1.2-.17,2.4-.3,3.61-.39l3.85-.26.48,0s.08,0,.07-.07-.07-.06-.1-.06Z" transform="translate(-0.01 0.37)"/><path id="Path_2062" data-name="Path 2062" class="cls-1" d="M365.61,44.07a12.83,12.83,0,0,0-1.64.16c-.55.07-1.07.15-1.6.26a14.29,14.29,0,0,0-1.59.42c-.53.17-1,.4-1.54.61s-1,.41-1.55.57a13.11,13.11,0,0,1-1.63.34c-.56.08-1.13.14-1.69.21a7,7,0,0,0-1.64.31,4.1,4.1,0,0,0-1.16.72l-.5.43c-.18.14-.36.29-.53.45a2.73,2.73,0,0,1-.23.25c-.06.06.09.08.12.07a2.49,2.49,0,0,0,.73-.36c.19-.14.36-.29.54-.45a5.63,5.63,0,0,1,1-.74,2.72,2.72,0,0,1,.62-.23c.27-.06.55-.09.82-.13l1.68-.21a12.21,12.21,0,0,0,1.69-.3,10.45,10.45,0,0,0,1.55-.52c.5-.22,1-.45,1.51-.64a13.2,13.2,0,0,1,1.51-.47c.52-.12,1.05-.22,1.57-.31s1.06-.16,1.59-.24l.39-.08c.11,0,.08-.13,0-.13Z" transform="translate(-0.01 0.37)"/><path id="Path_2063" data-name="Path 2063" class="cls-1" d="M348.88,40.87c0,.07.1.07.16.06h.13a.81.81,0,0,0,.22-.07l.26-.08,1-.36a3.87,3.87,0,0,1,.67-.17,6.86,6.86,0,0,1,.9-.09,9.15,9.15,0,0,1,1.81.15,12.56,12.56,0,0,1,1.81.44,17.79,17.79,0,0,1,1.75.71c1.14.53,2.25,1.15,3.39,1.67a11.3,11.3,0,0,0,1.78.69,9,9,0,0,0,2,.35H365a.73.73,0,0,0,.25-.08m0-.07h0a.72.72,0,0,0-.2-.09h-.72a8.37,8.37,0,0,1-1-.18,11.33,11.33,0,0,1-1.78-.61c-1.12-.5-2.2-1.1-3.32-1.63a15.27,15.27,0,0,0-3.58-1.27A11.57,11.57,0,0,0,352.8,40a7.08,7.08,0,0,0-1.84.15,4,4,0,0,0-.59.17l-.45.18-.52.22h-.22l-.18.08h.13a.11.11,0,0,0-.11,0s-.1,0-.09.06Z" transform="translate(-0.01 0.37)"/><path id="Path_2064" data-name="Path 2064" class="cls-1" d="M348.22,42a9,9,0,0,0-1.35-.38,6.35,6.35,0,0,0-1.43-.22h0l1.38.28c.46.11.92.23,1.38.3h0Z" transform="translate(-0.01 0.37)"/><path id="Path_2065" data-name="Path 2065" class="cls-1" d="M346.61,42.13a1.8,1.8,0,0,0-.81-.23,4.67,4.67,0,0,1-.91-.15h-.05a2.47,2.47,0,0,0,.84.21,4.44,4.44,0,0,1,.88.18h.05Z" transform="translate(-0.01 0.37)"/><path id="Path_2066" data-name="Path 2066" class="cls-1" d="M345.87,42.3l.06-.25a.41.41,0,0,1,.07-.26,1.68,1.68,0,0,0,.07-.5H346l-.07.11a.75.75,0,0,0-.07.12v.13a.38.38,0,0,0,0,.15,1.13,1.13,0,0,0,0,.26.58.58,0,0,0,.06.26H346Z" transform="translate(-0.01 0.37)"/><path id="Path_2067" data-name="Path 2067" class="cls-1" d="M346.83,42h0m0,0v-.23h0v-.06h-.09a.17.17,0,0,0-.09.11.21.21,0,0,0,0,.11v.24a.07.07,0,0,0,.1,0h0Z" transform="translate(-0.01 0.37)"/><path id="Path_2068" data-name="Path 2068" class="cls-1" d="M353,39.48a14.18,14.18,0,0,1,1.6.12,11.8,11.8,0,0,1,1.56.37,16,16,0,0,1,1.5.57c.5.23,1,.49,1.47.74s1.19.55,1.78.85H361a7.15,7.15,0,0,0-1.52-.81c-.51-.24-1-.52-1.51-.76a12.84,12.84,0,0,0-3.13-1,7,7,0,0,0-1.82-.12c-.07,0,0,.06,0,.06Z" transform="translate(-0.01 0.37)"/><path id="Path_2069" data-name="Path 2069" class="cls-1" d="M363.91,22.23a35.84,35.84,0,0,1-4.31,2c-1.55.62-3.17,1.06-4.7,1.76a7.81,7.81,0,0,0-3.67,2.94,4.07,4.07,0,0,0-.41,3.43,3.7,3.7,0,0,0,1.07,1.52,5.06,5.06,0,0,0,1.42.91,4.67,4.67,0,0,0,2.93.18,10,10,0,0,0,2.82-1.25c.89-.55,1.74-1.17,2.59-1.77a13.89,13.89,0,0,1,2.82-1.63,17.79,17.79,0,0,1,3.94-.93c1.36-.19,2.74-.31,4.09-.55a13.33,13.33,0,0,0,3.9-1.23,7.74,7.74,0,0,0,2.32-1.77,4.38,4.38,0,0,0,1-1.95,3.79,3.79,0,0,0-.08-1.92,4.45,4.45,0,0,0-1-1.72,5.93,5.93,0,0,0-1.77-1.33,7.88,7.88,0,0,0-2.41-.76,9,9,0,0,0-2.84,0,10.73,10.73,0,0,0-3.07,1,6.23,6.23,0,0,0-.71.41l-.34.25-.32.26c-.09.06.07.12.14.08a2.49,2.49,0,0,1,.43-.22l.42-.21.78-.38a11.5,11.5,0,0,1,1.47-.58,9.6,9.6,0,0,1,1.41-.32c.23,0,.46-.06.7-.08h1.9l.61.13h.07l.15.05.29.09a5.2,5.2,0,0,1,.55.21h.19l.25.13a6.36,6.36,0,0,1,.93.59h0l.11.09.19.18a3.06,3.06,0,0,1,.36.36,4.9,4.9,0,0,1,.56.79,3.62,3.62,0,0,1,0,3.63,6,6,0,0,1-1.46,2.09A9.85,9.85,0,0,1,374,28.24a26.19,26.19,0,0,1-3.94.69,38.68,38.68,0,0,0-4,.63A11.46,11.46,0,0,0,362.56,31c-.83.51-1.61,1.1-2.41,1.65a18.35,18.35,0,0,1-2.65,1.61,7.21,7.21,0,0,1-1.34.5H354a2,2,0,0,1-.34-.12,4.89,4.89,0,0,1-1.34-.91,3.41,3.41,0,0,1-1.1-3.15,4.46,4.46,0,0,1,.64-1.64,5.79,5.79,0,0,1,1.54-1.58A17.89,17.89,0,0,1,358,25.23c.73-.26,1.45-.51,2.16-.81s1.47-.65,2.19-1,1.3-.67,1.93-1a.08.08,0,0,0,0-.11h0a.25.25,0,0,0-.24,0Z" transform="translate(-0.01 0.37)"/><path id="Path_2070" data-name="Path 2070" class="cls-1" d="M351.28,28.93a4.59,4.59,0,0,0-1.18,3.43,4.07,4.07,0,0,0,2,2.92,4.51,4.51,0,0,0,3,.61,8.13,8.13,0,0,0,2.9-1.07c.93-.55,1.82-1.14,2.69-1.77a17.84,17.84,0,0,1,2.51-1.61,13.22,13.22,0,0,1,3-1c1.12-.24,2.27-.41,3.4-.61a29.34,29.34,0,0,0,3.7-.9,17.58,17.58,0,0,0,3.83-1.79c.32-.21.64-.42.94-.65s-.19-.33-.34-.21A17.18,17.18,0,0,1,374,28.34a22.68,22.68,0,0,1-3.63,1c-1.13.23-2.27.4-3.41.61a19.84,19.84,0,0,0-3.12.8,12.25,12.25,0,0,0-2.62,1.41c-.86.59-1.69,1.21-2.56,1.78A10.82,10.82,0,0,1,356,35.31a3.76,3.76,0,0,1-.66.17l-.36.06h-.3a3.58,3.58,0,0,1-1.34-.2,4.18,4.18,0,0,1-1.33-.76,3.54,3.54,0,0,1-.78-4.83,4,4,0,0,1,.54-.76c.16-.2-.31-.3-.43-.16Z" transform="translate(-0.01 0.37)"/><path id="Path_2071" data-name="Path 2071" class="cls-1" d="M358.22,25a8.12,8.12,0,0,0,.62-.8c.18-.24.36-.48.56-.7a6.07,6.07,0,0,1,1.3-1.13,8.8,8.8,0,0,1,3.44-1.21,14.55,14.55,0,0,1,1.74-.13,17.85,17.85,0,0,1,1.79.07h.41l.44,0,.89.13,1.74.32a15.68,15.68,0,0,0,3.46.6h.45c.07,0,.21-.07.16-.17s-.2-.11-.29-.1h-1.19l-.45-.08c-.58-.11-1.14-.27-1.72-.4a30.31,30.31,0,0,0-3.54-.56,16,16,0,0,0-3.66,0A10,10,0,0,0,360.8,22a5.87,5.87,0,0,0-1.43,1.1c-.2.21-.38.43-.56.66s-.39.51-.56.78A4.09,4.09,0,0,0,358,25c0,.11.18.11.23.06Z" transform="translate(-0.01 0.37)"/><path id="Path_2072" data-name="Path 2072" class="cls-1" d="M375,22.14c-.56.18-1.1.42-1.65.63s-1.08.45-1.62.68c-1.05.47-2.09,1-3.11,1.48a30,30,0,0,0-2.91,1.67,11.15,11.15,0,0,0-3.47,3.5l-.43.68c-.14.23-.29.46-.42.7a1.12,1.12,0,0,0-.09.36c0,.07.15.05.18,0a2,2,0,0,0,.33-.32l.21-.35.42-.67c.28-.46.58-.9.9-1.33A11.58,11.58,0,0,1,365.7,27a26.37,26.37,0,0,1,2.85-1.69q1.5-.76,3-1.47l3.14-1.4.37-.19v-.06h0a.12.12,0,0,0-.14,0Z" transform="translate(-0.01 0.37)"/><path id="Path_2073" data-name="Path 2073" class="cls-1" d="M375,22.15q-.76.33-1.5.72c-.48.26-1,.52-1.42.8s-.91.6-1.34.93-.83.73-1.23,1.1-.8.72-1.22,1.05a11.45,11.45,0,0,1-1.41.88c-1,.52-2,1-2.9,1.57a12.36,12.36,0,0,0-1.29,1,7.27,7.27,0,0,0-.57.54,2.77,2.77,0,0,0-.51.62c-.06.11-.1.22-.15.33s.12.07.15,0a5.27,5.27,0,0,0,.68-.57c.17-.19.35-.38.54-.56a8.93,8.93,0,0,1,1.21-1A25.92,25.92,0,0,1,366.93,28a15.48,15.48,0,0,0,1.42-.83,13.48,13.48,0,0,0,1.26-1c.39-.37.78-.76,1.18-1.11a13.61,13.61,0,0,1,1.27-1c.45-.3.91-.57,1.37-.84l1.39-.77.33-.21c.11-.06-.07-.13-.13-.1Z" transform="translate(-0.01 0.37)"/><path id="Path_2074" data-name="Path 2074" class="cls-1" d="M358.28,24.9c0,.07.14.05.2,0h0a3.32,3.32,0,0,0,.42-.32l.8-.68a3.92,3.92,0,0,1,.64-.42,5.85,5.85,0,0,1,.88-.41,9.46,9.46,0,0,1,1.88-.49,12.18,12.18,0,0,1,1.81-.17,15.73,15.73,0,0,1,1.82.08h.86l.9.1c.62.07,1.23.14,1.85.19a14.59,14.59,0,0,0,1.87,0,10.24,10.24,0,0,0,2.05-.36l.21-.07a.31.31,0,0,0,.16-.16c0-.05-.08-.08-.11-.08a.71.71,0,0,0-.29,0l-.24.07-.46.12c-.33.07-.66.12-1,.16a9.43,9.43,0,0,1-1.84,0c-1.15-.07-2.34-.25-3.52-.36a16,16,0,0,0-3.66,0,9.21,9.21,0,0,0-3.67,1.18,3.94,3.94,0,0,0-.53.38L359,24l-.41.39-.18.17-.12.13h0a.17.17,0,0,1,.1,0h.06a.15.15,0,0,0-.13,0,.06.06,0,0,0-.06.06v0Z" transform="translate(-0.01 0.37)"/><path id="Path_2075" data-name="Path 2075" class="cls-1" d="M356.6,26.88a12,12,0,0,0-1.17.49c-.39.18-.78.37-1.15.58a6.69,6.69,0,0,0-1,.75,3.12,3.12,0,0,0-.72,1,4.24,4.24,0,0,0-.17.61,1.45,1.45,0,0,0-.07.62h.09a1.13,1.13,0,0,0,.19-.53,4.42,4.42,0,0,1,.14-.52,2.53,2.53,0,0,1,.64-1,7.28,7.28,0,0,1,2.07-1.36,8.45,8.45,0,0,0,1.2-.61h0Z" transform="translate(-0.01 0.37)"/><path id="Path_2076" data-name="Path 2076" class="cls-1" d="M354.5,28.56a1.26,1.26,0,0,0-.51.27,2.64,2.64,0,0,0-.75,1,1.33,1.33,0,0,0-.1.28.32.32,0,0,0,0,.27.06.06,0,0,0,.08,0,.8.8,0,0,0,.11-.25,1.43,1.43,0,0,1,.09-.27,3.92,3.92,0,0,1,.29-.53,4,4,0,0,1,.39-.43l.18-.19.21-.16h0Z" transform="translate(-0.01 0.37)"/><path id="Path_2077" data-name="Path 2077" class="cls-1" d="M354.28,29.4a1.12,1.12,0,0,0-.33.28.68.68,0,0,0-.16.38h.07c.09-.11.17-.22.25-.34s.16-.2.24-.3,0,0-.07,0Z" transform="translate(-0.01 0.37)"/><path id="Path_2078" data-name="Path 2078" class="cls-1" d="M352.07,29.62a8.56,8.56,0,0,0,1,.24l1.07.26s.08,0,0-.05a4.35,4.35,0,0,0-1-.33,6.82,6.82,0,0,0-1.1-.18s-.08,0,0,.06Z" transform="translate(-0.01 0.37)"/><path id="Path_2079" data-name="Path 2079" class="cls-1" d="M353.55,28.13a.39.39,0,0,0,.07.23l.13.23a1,1,0,0,0,.16.2l.19.19h.07a3.17,3.17,0,0,0-.21-.41l-.14-.22a1.2,1.2,0,0,0-.17-.21h-.1Z" transform="translate(-0.01 0.37)"/><path id="Path_2080" data-name="Path 2080" class="cls-1" d="M360.33,31.34l-.32.17-.3.18-.61.39c-.39.24-.81.47-1.2.72h.1a5.65,5.65,0,0,0,1.29-.67l.6-.39.28-.2a1.64,1.64,0,0,0,.25-.21h-.09Z" transform="translate(-0.01 0.37)"/><path id="Path_2081" data-name="Path 2081" class="cls-1" d="M358.74,31.71a4.56,4.56,0,0,1-.77.45,2.57,2.57,0,0,0-.73.48h.06c.27-.17.55-.31.83-.45a1.59,1.59,0,0,0,.68-.49h-.07Z" transform="translate(-0.01 0.37)"/><path id="Path_2082" data-name="Path 2082" class="cls-1" d="M358,31.86a.78.78,0,0,0,.14.49,1.56,1.56,0,0,0,.39.42h.07a1.17,1.17,0,0,0-.22-.43c-.1-.15-.2-.3-.29-.46s-.09,0-.09,0Z" transform="translate(-0.01 0.37)"/><path id="Path_2083" data-name="Path 2083" class="cls-1" d="M359,31.82v.12a.37.37,0,0,0,.05.11.29.29,0,0,0,.19.18h.13v-.1a.41.41,0,0,0-.05-.09l-.07-.1v-.06l-.06-.05H359Z" transform="translate(-0.01 0.37)"/><path id="Path_2084" data-name="Path 2084" class="cls-1" d="M377.37,24.88a4.65,4.65,0,0,1-.74.8,5.5,5.5,0,0,1-1.05.67,11.24,11.24,0,0,1-2.44.86c-.39.1-.78.18-1.18.26v.05A8.53,8.53,0,0,0,374.3,27a7.61,7.61,0,0,0,2.35-1.17,2.19,2.19,0,0,0,.79-.94h-.07Z" transform="translate(-0.01 0.37)"/><path id="Path_2085" data-name="Path 2085" class="cls-1" d="M376,25.55a6,6,0,0,1-1.37.79,13.4,13.4,0,0,1-1.52.48c-.28.08-.56.15-.84.25h0c.53-.1,1.06-.23,1.58-.38a7.53,7.53,0,0,0,1.5-.62,2.9,2.9,0,0,0,.68-.53s0-.05-.06,0Z" transform="translate(-0.01 0.37)"/><path id="Path_2086" data-name="Path 2086" class="cls-1" d="M372.77,26.52a1.19,1.19,0,0,0,.22,1h.06V27.3l-.06-.23a2.28,2.28,0,0,1-.09-.51h-.09Z" transform="translate(-0.01 0.37)"/><path id="Path_2087" data-name="Path 2087" class="cls-1" d="M374.56,25.82a4.78,4.78,0,0,0-.62.26,1.39,1.39,0,0,0-.28.12.7.7,0,0,0-.24.13h0a2.57,2.57,0,0,0,.61-.2l.29-.14a1,1,0,0,0,.26-.16h0Z" transform="translate(-0.01 0.37)"/><path id="Path_2088" data-name="Path 2088" class="cls-1" d="M374,25.81v.63a2.34,2.34,0,0,0,.18.64h.07a1.92,1.92,0,0,0-.05-.63l-.06-.32v-.31c0-.05-.07,0-.07,0Z" transform="translate(-0.01 0.37)"/><path id="Path_2089" data-name="Path 2089" class="cls-1" d="M375.53,25.76a1,1,0,0,0,.22.32,1.43,1.43,0,0,0,.32.28h.07a.89.89,0,0,0-.08-.17l-.12-.15a2.2,2.2,0,0,0-.31-.3h-.1Z" transform="translate(-0.01 0.37)"/><path id="Path_2090" data-name="Path 2090" class="cls-1" d="M368.9,25.51a4.23,4.23,0,0,0-.82.42c-.27.15-.53.32-.78.49-.51.33-1,.69-1.49,1a5.31,5.31,0,0,0-.78.64h.06c.27-.17.53-.34.78-.53l.72-.54c.49-.35,1-.69,1.5-1l.45-.26a3.51,3.51,0,0,0,.4-.27h0Z" transform="translate(-0.01 0.37)"/></g><g id="Group_391" data-name="Group 391"><path id="Path_2091" data-name="Path 2091" class="cls-1" d="M265.15,37.21l.37-.1.37-.11.76-.28c.51-.2,1-.38,1.54-.57,1-.37,2-.72,3-1.07s1.75-.61,2.63-.89c.68-.22,1.36-.44,2.05-.63l.71-.17.47-.09h.19s.12,0,.11-.08h0a.11.11,0,0,0,0-.15h-.13a2,2,0,0,0-.55.08c-.63.15-1.25.34-1.87.53-.9.28-1.79.58-2.68.89-1.06.36-2.11.75-3.15,1.13l-1.66.63-.82.32-.41.17-.4.18c-.14.07-.27.15-.41.21s0,.08,0,.07Z" transform="translate(-0.01 0.37)"/><path id="Path_2092" data-name="Path 2092" class="cls-1" d="M277.19,33.24a13.4,13.4,0,0,0,.48,1.52l.51,1.47c.35,1,.72,2,1.06,2.93s.7,2,1.05,3c.26.72.52,1.44.79,2.16.13.36.27.73.39,1.09.06.19.12.37.17.56a2.21,2.21,0,0,0,.15.5.61.61,0,0,0,.12.16s.07,0,.07-.06a1.22,1.22,0,0,0,0-.27,1.28,1.28,0,0,0-.05-.27,2.39,2.39,0,0,0-.15-.54c-.12-.38-.25-.75-.38-1.11-.26-.69-.52-1.38-.76-2.07-.35-1-.7-2-1.06-2.94s-.72-2-1.07-2.92L278,34.94c-.18-.49-.35-1-.55-1.46-.05-.11-.1-.23-.16-.34s-.12.06-.11.11Z" transform="translate(-0.01 0.37)"/><path id="Path_2093" data-name="Path 2093" class="cls-1" d="M267.79,52.37c1.28-.42,2.56-.87,3.83-1.32s2.48-.9,3.72-1.37,2.17-.85,3.24-1.29c.78-.33,1.56-.66,2.32-1,.25-.12.5-.25.73-.39l.21-.15h0a.76.76,0,0,0,.11-.14v-.09a.14.14,0,0,0,0-.09h0v.06h0c0-.14-.16,0-.16.08h0l.06-.12v.06h0l-.1.07h-.07l-.14.08-.36.19c-.72.36-1.46.68-2.2,1-1,.44-2.08.85-3.13,1.26-1.21.46-2.43.92-3.66,1.37s-2.52.9-3.79,1.34l-.46.16a.23.23,0,0,0-.13.18c0,.05,0,.14.09.12Z" transform="translate(-0.01 0.37)"/><path id="Path_2094" data-name="Path 2094" class="cls-1" d="M255.76,40.57c.11.44.25.87.39,1.3s.3.88.46,1.33c.31.89.62,1.79.95,2.68s.64,1.75,1,2.63l.87,2.38c.13.35.26.7.38,1l.18.48a3.61,3.61,0,0,0,.17.46.66.66,0,0,0,.12.17c0,.07.15-.06.15-.12a1.13,1.13,0,0,0,0-.26.29.29,0,0,0-.07-.22,2.54,2.54,0,0,1-.17-.46l-.37-1c-.29-.78-.57-1.57-.86-2.35L258,46c-.33-.89-.66-1.77-1-2.66-.16-.43-.33-.87-.49-1.31s-.32-.82-.5-1.23a.72.72,0,0,0-.13-.28c0-.09,0,0,0,0Z" transform="translate(-0.01 0.37)"/><path id="Path_2095" data-name="Path 2095" class="cls-1" d="M262.14,37.07c.9-.37,1.81-.73,2.72-1.08s1.69-.63,2.53-.93l2-.7c.68-.22,1.37-.47,2.06-.69.45-.15.89-.29,1.35-.41l.71-.19.76-.23a2.4,2.4,0,0,0,.38-.12s.05-.07,0-.07h-.72l-.72.16c-.47.13-.93.27-1.39.42-.74.23-1.48.5-2.22.74l-1.89.66c-.84.3-1.67.6-2.49.92s-1.83.7-2.73,1.07l-.34.14a.2.2,0,0,0-.11.17c0,.06,0,.09.1.06Z" transform="translate(-0.01 0.37)"/><path id="Path_2096" data-name="Path 2096" class="cls-1" d="M255.84,40.51a.14.14,0,0,1,0-.09h0v-.05a1.37,1.37,0,0,1,.23-.25,5,5,0,0,1,1-.63c.26-.15.51-.29.78-.42a.21.21,0,0,0,.11-.16.07.07,0,0,0-.07-.07h0a12.5,12.5,0,0,0-1.36.81,2.24,2.24,0,0,0-.72.65.45.45,0,0,0-.06.32c0,.07.12,0,.11-.08Z" transform="translate(-0.01 0.37)"/><path id="Path_2097" data-name="Path 2097" class="cls-1" d="M274.62,32.71a.71.71,0,0,0,.29,0h.28l.53,0a4.24,4.24,0,0,1,1,.21l.25.11a.48.48,0,0,0,.29,0m0-.07h0a.33.33,0,0,0-.17-.18,1.06,1.06,0,0,0-.25-.09,2.72,2.72,0,0,0-.49-.13l-.51-.07h-1.23v.07Z" transform="translate(-0.01 0.37)"/><path id="Path_2098" data-name="Path 2098" class="cls-1" d="M275.28,37.08a6.33,6.33,0,0,0-6.41,3.19,4.74,4.74,0,0,0-.37.87,2.7,2.7,0,0,0-.07.85c0,.07.08,0,.09,0a2.6,2.6,0,0,1,.1-.4,1.71,1.71,0,0,1,.13-.38v-.09h0a.26.26,0,0,1,.07-.19c.07-.06.1-.24.16-.36l.09-.18h0l.06-.1a4,4,0,0,1,.22-.34.91.91,0,0,1,.11-.16h0l.07-.08a2.69,2.69,0,0,1,.27-.32,6.44,6.44,0,0,1,1.33-1,6.14,6.14,0,0,1,3.87-.76c.14,0,.3-.3.14-.33Z" transform="translate(-0.01 0.37)"/><path id="Path_2099" data-name="Path 2099" class="cls-1" d="M274.28,37.34c.06,0,.12-.16,0-.14a.07.07,0,0,0,0,.14Z" transform="translate(-0.01 0.37)"/><path id="Path_2100" data-name="Path 2100" class="cls-1" d="M268.38,42a4.5,4.5,0,0,0,0,2,6.49,6.49,0,0,0,.79,1.93,4.54,4.54,0,0,0,1.19,1.39,5.45,5.45,0,0,0,1.82.78,6.65,6.65,0,0,0,2.22.16h.27a.2.2,0,0,0,.15-.17c0-.06,0-.13-.08-.12a6.33,6.33,0,0,1-2.17-.07,5.54,5.54,0,0,1-1.84-.69,2.87,2.87,0,0,1-.64-.51,7.85,7.85,0,0,1-.56-.73,7.1,7.1,0,0,1-.86-1.8,4.63,4.63,0,0,1-.22-2.15c0-.1-.1,0-.11,0Z" transform="translate(-0.01 0.37)"/><path id="Path_2101" data-name="Path 2101" class="cls-1" d="M274,48.13a6.3,6.3,0,0,0,2.95-.29,5.22,5.22,0,0,0,2.2-1.5,4.87,4.87,0,0,0,1-2.1,6.72,6.72,0,0,0-.82-4.7,5.36,5.36,0,0,0-1.66-1.69,5,5,0,0,0-2.34-.77,4.84,4.84,0,0,0-2.51.5,5.58,5.58,0,0,0-1.94,1.64,6.11,6.11,0,0,0-.65,1.07,4.21,4.21,0,0,0-.37,1.19V42h0a.08.08,0,0,0,.05-.07v-.29a2.45,2.45,0,0,1,.08-.29,2.7,2.7,0,0,1,.18-.56h0v-.07l.06-.14a.81.81,0,0,1,.11-.27,2.15,2.15,0,0,1,.14-.26v0h0l.07-.13a5.62,5.62,0,0,1,.35-.5h0l.1-.12.2-.22a1.45,1.45,0,0,1,.22-.21l.05,0h0l.12-.1a4.29,4.29,0,0,1,.48-.36,5.21,5.21,0,0,1,1.06-.52,4.91,4.91,0,0,1,1.2-.24,4.84,4.84,0,0,1,1.26.1,4.33,4.33,0,0,1,1.12.37,5,5,0,0,1,1.77,1.44,5.81,5.81,0,0,1,1,2.08,6.79,6.79,0,0,1,.21,2.33,5,5,0,0,1-.23,1.08,4.73,4.73,0,0,1-.44.94c0,.07-.1.15-.16.22a.44.44,0,0,1-.08.11h0l0,.06a5.33,5.33,0,0,1-.4.42,4.66,4.66,0,0,1-1,.71,5.9,5.9,0,0,1-2.8.61,2.57,2.57,0,0,1-.68-.06c-.23-.06-.28.28-.14.3Z" transform="translate(-0.01 0.37)"/><path id="Path_2102" data-name="Path 2102" class="cls-1" d="M269.8,42a4.48,4.48,0,0,0,0,1.55,5.76,5.76,0,0,0,.47,1.58,6.79,6.79,0,0,0,.8,1.38,3.43,3.43,0,0,0,1.11,1,5.24,5.24,0,0,0,1.8.6c.13,0,.28-.28.13-.3a4.77,4.77,0,0,1-1.57-.48,3.31,3.31,0,0,1-.64-.41,4.81,4.81,0,0,1-.5-.51,7.27,7.27,0,0,1-.83-1.29,7.09,7.09,0,0,1-.54-1.48A4.12,4.12,0,0,1,270,42c0-.11-.1,0-.11,0Z" transform="translate(-0.01 0.37)"/><path id="Path_2103" data-name="Path 2103" class="cls-1" d="M265.18,37.15a5,5,0,0,0-1.33.62,3.2,3.2,0,0,0-1,1.13.74.74,0,0,0-.06.72c.1.17.3.23.45.36a3.2,3.2,0,0,1,.61,1c.16.37.32.75.47,1.12.25.6.47,1.2.67,1.81s.39,1.2.57,1.81.35,1.19.56,1.77.44,1.18.66,1.77.36,1.07.54,1.61a11.89,11.89,0,0,1,.35,1.16,2.25,2.25,0,0,1,.07.58,1.25,1.25,0,0,1-.1.51.82.82,0,0,1-.12.2l-.11.11h0l-.12.09h-.09a3.31,3.31,0,0,1-.75.25,8.22,8.22,0,0,1-2.1.19,10,10,0,0,1-2.18-.28,3.91,3.91,0,0,1-1.49-.69.86.86,0,0,1-.19-.19s-.11,0-.09.08a2.55,2.55,0,0,0,.13.29,1,1,0,0,0,.25.25,3,3,0,0,0,.76.38,8.16,8.16,0,0,0,2.07.4,11.65,11.65,0,0,0,2.21,0,3.46,3.46,0,0,0,1.63-.5,1.58,1.58,0,0,0,.63-1,2.89,2.89,0,0,0-.09-1.24c-.11-.39-.25-.76-.36-1.14-.18-.6-.4-1.19-.62-1.78s-.45-1.17-.65-1.76-.37-1.21-.55-1.81-.38-1.22-.59-1.82-.41-1.16-.66-1.72c-.17-.36-.3-.73-.48-1.08a2.12,2.12,0,0,0-.71-.91,1,1,0,0,1-.25-.16.35.35,0,0,1-.07-.3,1.55,1.55,0,0,1,.37-.63,3.52,3.52,0,0,1,1.17-.93c.23-.12.46-.24.69-.34,0,0,.06-.1,0-.08Z" transform="translate(-0.01 0.37)"/><path id="Path_2104" data-name="Path 2104" class="cls-1" d="M255.77,40.6a1,1,0,0,1,.38.11l.37.09c.23.05.46.11.71.14a6,6,0,0,0,1.58-.06,15.94,15.94,0,0,0,1.68-.29c.27-.06.54-.13.8-.21l.56-.15a2.89,2.89,0,0,0,.63-.26,1.94,1.94,0,0,0,.29-.21.37.37,0,0,0,.14-.29h-.05a.7.7,0,0,0-.19.15l-.2.14a2.7,2.7,0,0,1-.53.22c-.17.06-.35.1-.52.15l-.78.2a14.68,14.68,0,0,1-1.61.29,7.3,7.3,0,0,1-1.55.1h-.4l-.4-.07-.4-.08h-.44c-.06,0-.15.13-.07.16Z" transform="translate(-0.01 0.37)"/><path id="Path_2105" data-name="Path 2105" class="cls-1" d="M274.16,46.9a4.9,4.9,0,0,0,2.28-.22,4,4,0,0,0,1.7-1.17,3.84,3.84,0,0,0,.8-1.63,5.2,5.2,0,0,0-.64-3.64,4.07,4.07,0,0,0-1.3-1.31,3.82,3.82,0,0,0-1.82-.6,3.64,3.64,0,0,0-1.94.4A4.25,4.25,0,0,0,271.75,40a4,4,0,0,0-.5.84,2.78,2.78,0,0,0-.28.93.67.67,0,0,0,0,.2v.19h0s0,0,0-.07v-.21a2.17,2.17,0,0,1,.07-.24l.07-.21a.63.63,0,0,1,.08-.23h0v-.1a.85.85,0,0,1,.09-.22,1.24,1.24,0,0,1,.1-.2h0a.41.41,0,0,0,.07-.11c.08-.13.16-.25.25-.37h0l.07-.08c.06-.06.11-.13.17-.18l.14-.15h0l.1-.09c.12-.1.25-.19.38-.28a4,4,0,0,1,.8-.39,3.5,3.5,0,0,1,.91-.18,3.69,3.69,0,0,1,1.82.35,4.17,4.17,0,0,1,2.13,2.7,4.91,4.91,0,0,1,.16,1.79,3.23,3.23,0,0,1-.17.82,3.09,3.09,0,0,1-.34.71l-.1.15-.12.16c-.1.11-.2.22-.31.32a2.78,2.78,0,0,1-.33.27,3.35,3.35,0,0,1-.45.27,4.35,4.35,0,0,1-2.12.46H274c-.13,0-.28.27-.13.29Z" transform="translate(-0.01 0.37)"/><path id="Path_2106" data-name="Path 2106" class="cls-1" d="M271,42.16a4.07,4.07,0,0,0,.32,2.43,5.35,5.35,0,0,0,.62,1.06,2.91,2.91,0,0,0,.85.79,3.85,3.85,0,0,0,1.4.46c.12,0,.28-.27.13-.29a4,4,0,0,1-1.21-.37,3,3,0,0,1-.87-.71,5,5,0,0,1-.63-1,5.69,5.69,0,0,1-.42-1.13,3.25,3.25,0,0,1-.07-1.28c0-.11-.1,0-.12,0Z" transform="translate(-0.01 0.37)"/><path id="Path_2107" data-name="Path 2107" class="cls-1" d="M271.51,40.61a3.09,3.09,0,0,1,1-.87,2.76,2.76,0,0,1,1.16-.32,3.6,3.6,0,0,1,1.22.16,3.42,3.42,0,0,1,1.11.6,4,4,0,0,1,1.29,2,5.14,5.14,0,0,1,.19,2.4,3.38,3.38,0,0,1-.34,1.12,1.19,1.19,0,0,1-.31.36,3.91,3.91,0,0,1-.44.26l-.15.09a.93.93,0,0,0-.14.14s-.07.13,0,.12h.15l.15-.07.26-.17a1.69,1.69,0,0,0,.42-.38,2.22,2.22,0,0,0,.29-.55c.07-.19.12-.38.17-.57a5.37,5.37,0,0,0,0-2.52,6.45,6.45,0,0,0-.43-1.21,3.75,3.75,0,0,0-.72-1,3.35,3.35,0,0,0-2.38-.94,3.08,3.08,0,0,0-2.29,1.13,1.86,1.86,0,0,0-.21.28h0Z" transform="translate(-0.01 0.37)"/><path id="Path_2108" data-name="Path 2108" class="cls-1" d="M273.46,40.6c.11.08.24.13.35.2a3,3,0,0,1,.35.27,4.58,4.58,0,0,1,.56.75,6.22,6.22,0,0,1,.67,1.77,3.69,3.69,0,0,1,.08.46v.37a2.54,2.54,0,0,0,0,.39h.08a1.65,1.65,0,0,0,0-.7,1,1,0,0,0-.07-.45c-.05-.32-.12-.64-.2-.95a4.68,4.68,0,0,0-1-1.69,3.09,3.09,0,0,0-.39-.33,1,1,0,0,0-.44-.17v.08Z" transform="translate(-0.01 0.37)"/><path id="Path_2109" data-name="Path 2109" class="cls-1" d="M274.8,43a2.25,2.25,0,0,0,.08.24,2.41,2.41,0,0,1,.08.25,4,4,0,0,1,.14.57q0,.3,0,.6v.26a.41.41,0,0,0,0,.22h0a.63.63,0,0,0,.1-.4,1.77,1.77,0,0,0,0-.46,3.69,3.69,0,0,0-.21-.93,1.47,1.47,0,0,0-.1-.22.36.36,0,0,0-.11-.16h0Z" transform="translate(-0.01 0.37)"/><path id="Path_2110" data-name="Path 2110" class="cls-1" d="M276,43.35a1.87,1.87,0,0,1-.2.51,1.59,1.59,0,0,1-.32.36,3.69,3.69,0,0,1-.4.29l-.21.13-.12.08-.08.09s-.05.09,0,.09h.07l.12-.07.23-.15a3.73,3.73,0,0,0,.43-.36,1.59,1.59,0,0,0,.49-1h0Z" transform="translate(-0.01 0.37)"/><path id="Path_2111" data-name="Path 2111" class="cls-1" d="M274.9,44.38a.85.85,0,0,0,.25-.17l.27-.23a2.85,2.85,0,0,0,.23-.26.73.73,0,0,0,.16-.3c0-.06-.06,0-.08,0s-.1.18-.16.26a1.31,1.31,0,0,1-.23.24l-.24.22a1,1,0,0,0-.22.2h0Z" transform="translate(-0.01 0.37)"/><path id="Path_2112" data-name="Path 2112" class="cls-1" d="M273.28,41.54l.3-.27a2.51,2.51,0,0,1,.32-.25,4.51,4.51,0,0,1,.75-.4l.19-.07s.11,0,.11-.1-.27,0-.31,0a3.42,3.42,0,0,0-.73.39c-.13.09-.25.19-.37.29a1,1,0,0,0-.29.33h0Z" transform="translate(-0.01 0.37)"/><path id="Path_2113" data-name="Path 2113" class="cls-1" d="M274,41.31a1,1,0,0,1,.3-.21,1.33,1.33,0,0,0,.37-.2h0a.21.21,0,0,0-.19,0l-.21.1a.71.71,0,0,0-.32.32H274Z" transform="translate(-0.01 0.37)"/><path id="Path_2114" data-name="Path 2114" class="cls-1" d="M269,40.08a.93.93,0,0,0,.33-.12l.38-.15.39-.15.4-.18h0a1.8,1.8,0,0,0-.39.08l-.39.14-.37.16a2.12,2.12,0,0,0-.36.21s-.05.07,0,.07Z" transform="translate(-0.01 0.37)"/><path id="Path_2115" data-name="Path 2115" class="cls-1" d="M268.79,40.64a.86.86,0,0,0,.21-.07l.23-.08.24-.06.24-.1h-.23l-.25.07-.23.09a.48.48,0,0,0-.22.12v0Z" transform="translate(-0.01 0.37)"/><path id="Path_2116" data-name="Path 2116" class="cls-1" d="M268.56,41.12h.23l.24-.06a1.87,1.87,0,0,0,.51-.2h-.24l-.26.06-.26.08a.76.76,0,0,0-.23.13h0Z" transform="translate(-0.01 0.37)"/><path id="Path_2117" data-name="Path 2117" class="cls-1" d="M269.08,40.28h.15l.18-.05a1.5,1.5,0,0,0,.34-.16h-.32l-.18.06h-.09v.06Z" transform="translate(-0.01 0.37)"/><path id="Path_2118" data-name="Path 2118" class="cls-1" d="M269.49,46.1h.41a1.85,1.85,0,0,0,.47,0s.05-.05,0-.07h-.88Z" transform="translate(-0.01 0.37)"/><path id="Path_2119" data-name="Path 2119" class="cls-1" d="M269.28,45.85a.48.48,0,0,0,.35.07h.19a.66.66,0,0,0,.2-.06s.06-.06,0-.07a1.09,1.09,0,0,0-.36,0h-.37s-.05,0,0,.06Z" transform="translate(-0.01 0.37)"/><path id="Path_2120" data-name="Path 2120" class="cls-1" d="M269.14,45.62h.28a.33.33,0,0,0,.14,0,.31.31,0,0,0,.13-.06h-.24a.71.71,0,0,0-.29,0s-.05.06,0,.07Z" transform="translate(-0.01 0.37)"/><path id="Path_2121" data-name="Path 2121" class="cls-1" d="M257.62,42a3.18,3.18,0,0,0,.86.16,3.84,3.84,0,0,0,.83,0,5.32,5.32,0,0,0,1.67-.37l.49-.2a1.53,1.53,0,0,0,.45-.25v-.06a.86.86,0,0,0-.38.1l-.42.18a6.55,6.55,0,0,1-.85.29,4.84,4.84,0,0,1-1.65.17c-.33,0-.66-.07-1-.09V42Z" transform="translate(-0.01 0.37)"/><path id="Path_2122" data-name="Path 2122" class="cls-1" d="M258,42.84a4.15,4.15,0,0,0,.79.08h.74a3.09,3.09,0,0,0,.74-.12l.38-.11a1,1,0,0,0,.36-.16v-.06a1.12,1.12,0,0,0-.36.09l-.35.11a6,6,0,0,1-.74.14,4.82,4.82,0,0,0-.76,0H258Z" transform="translate(-0.01 0.37)"/><path id="Path_2123" data-name="Path 2123" class="cls-1" d="M257.69,42.44a.58.58,0,0,0,.25.12h.34a2.49,2.49,0,0,1-.61-.08h0Z" transform="translate(-0.01 0.37)"/><path id="Path_2124" data-name="Path 2124" class="cls-1" d="M257.89,41.81a2.43,2.43,0,0,0,.13.38c.05.13.09.25.13.38a2.64,2.64,0,0,0,.31.71h0a5.57,5.57,0,0,0-.25-.79,1,1,0,0,0-.14-.37.92.92,0,0,0-.18-.32h0Z" transform="translate(-0.01 0.37)"/><path id="Path_2125" data-name="Path 2125" class="cls-1" d="M258.35,42l.06.17.06.18a1.37,1.37,0,0,0,.16.32h0l-.09-.39c0-.13-.05-.11-.07-.17a.69.69,0,0,0-.11-.13h0Z" transform="translate(-0.01 0.37)"/><path id="Path_2126" data-name="Path 2126" class="cls-1" d="M260.28,42.34a.14.14,0,0,0,0,.09v.1a2.76,2.76,0,0,1,.08.27,2.5,2.5,0,0,0,.19.52h.05a2.55,2.55,0,0,0-.11-.55,2,2,0,0,0-.08-.26.51.51,0,0,0-.09-.16h0Z" transform="translate(-0.01 0.37)"/><path id="Path_2127" data-name="Path 2127" class="cls-1" d="M260.55,42.36v.16l.06.14.06.13a.31.31,0,0,0,.06.13h0a.43.43,0,0,0,0-.16.49.49,0,0,0,0-.17.77.77,0,0,0-.07-.16v-.06h-.11Z" transform="translate(-0.01 0.37)"/><path id="Path_2128" data-name="Path 2128" class="cls-1" d="M264.06,50.93a3.54,3.54,0,0,0,.92,0,2.34,2.34,0,0,0,.93-.25,1.88,1.88,0,0,0,.23-.16,1.2,1.2,0,0,0,.17-.21h0l-.23.14a2.36,2.36,0,0,1-.8.3l-.6.09h-.58s-.05,0,0,.06Z" transform="translate(-0.01 0.37)"/><path id="Path_2129" data-name="Path 2129" class="cls-1" d="M265.48,51.32a.34.34,0,0,0,.2,0l.21-.08a1.07,1.07,0,0,0,.4-.26h0a.31.31,0,0,0-.19,0l-.2.11-.2.1-.22.1v0Z" transform="translate(-0.01 0.37)"/><path id="Path_2130" data-name="Path 2130" class="cls-1" d="M265.66,50.21a3.32,3.32,0,0,0,.13.7l.09.34a.85.85,0,0,0,.15.3h0a4.23,4.23,0,0,0-.18-.7,2.72,2.72,0,0,0-.2-.63h0Z" transform="translate(-0.01 0.37)"/><path id="Path_2131" data-name="Path 2131" class="cls-1" d="M265.28,50.56a4.07,4.07,0,0,0,.13.5,1,1,0,0,0,.19.44h0a4.07,4.07,0,0,0-.13-.5,1,1,0,0,0-.2-.43h0Z" transform="translate(-0.01 0.37)"/><path id="Path_2132" data-name="Path 2132" class="cls-1" d="M258.52,38a.78.78,0,0,0-.38.23.92.92,0,0,0-.24.35.5.5,0,0,0,0,.34.31.31,0,0,0,.25.19,1.23,1.23,0,0,0,.54,0,4.21,4.21,0,0,0,.61-.16c.18-.06.37-.13.55-.21l.52-.21a5.11,5.11,0,0,0,1.07-.54,2.76,2.76,0,0,0,.46-.37,1.37,1.37,0,0,0,.29-.42c.22-.57-.66-.47-1-.41l-.42.13c-.23.07-.45.16-.67.25l-.66.29c-.22.1-.43.21-.64.33a2.37,2.37,0,0,0-.3.23s-.05.07,0,.06a2.3,2.3,0,0,0,.57-.21l.59-.29c.41-.18.82-.34,1.24-.48a1.94,1.94,0,0,1,.63-.11.71.71,0,0,1,.29,0,.21.21,0,0,1,.11,0,.17.17,0,0,1,.06.06h0a.21.21,0,0,1,0,.11,1.78,1.78,0,0,1-.32.35,4.38,4.38,0,0,1-.93.55l-1,.4a5.3,5.3,0,0,1-1.08.37c-.19,0-.63.13-.68-.16s.2-.46.37-.58l.18-.11s.05-.09,0-.08Z" transform="translate(-0.01 0.37)"/><path id="Path_2133" data-name="Path 2133" class="cls-1" d="M258.11,39.64a.45.45,0,0,0,.36.14,2.72,2.72,0,0,0,.49-.05,5.86,5.86,0,0,0,1-.33,7.58,7.58,0,0,0,1.81-.88,2,2,0,0,0,.42-.4.67.67,0,0,0,.2-.48c0-.07-.08,0-.12,0a.18.18,0,0,0-.07.17v.09a.59.59,0,0,1-.13.18,1.81,1.81,0,0,1-.33.29,4,4,0,0,1-.81.46c-.27.12-.56.22-.83.35a8.79,8.79,0,0,1-.9.34,3.06,3.06,0,0,1-.51.1.71.71,0,0,1-.43-.08c-.1-.08-.15.07-.11.12Z" transform="translate(-0.01 0.37)"/><path id="Path_2134" data-name="Path 2134" class="cls-1" d="M258.28,39.53h0v-.06a.38.38,0,0,1-.09-.15.66.66,0,0,1-.09-.19V39H258a.11.11,0,0,0,0,.08v.19a.72.72,0,0,0,.09.2.45.45,0,0,0,.1.14l.06,0h-.06a.07.07,0,0,0,.05-.08h-.05Z" transform="translate(-0.01 0.37)"/><path id="Path_2135" data-name="Path 2135" class="cls-1" d="M262,36.87h0m0,.05V37a.89.89,0,0,1,.08.17l.06.2a.29.29,0,0,0,.05.2c.05.07,0,.16.11.12a.15.15,0,0,0,.06-.09.29.29,0,0,0,0-.13,1.74,1.74,0,0,0-.14-.38c0-.06-.06-.12-.1-.18a.24.24,0,0,0-.06-.09H262Z" transform="translate(-0.01 0.37)"/><path id="Path_2136" data-name="Path 2136" class="cls-1" d="M258.56,38.57a.86.86,0,0,0,.55,0l.59-.25c.38-.16.75-.33,1.12-.52l.27-.18a.56.56,0,0,0,.22-.24m0,0a.16.16,0,0,0-.09.07l-.1.09a1.88,1.88,0,0,1-.23.16,5.28,5.28,0,0,1-.53.27l-.52.23c-.19.08-.36.17-.55.24a2.13,2.13,0,0,1-.33.11.92.92,0,0,0-.33,0c-.11,0-.05,0,0,.06Z" transform="translate(-0.01 0.37)"/><path id="Path_2137" data-name="Path 2137" class="cls-1" d="M275.43,35.13a.45.45,0,0,0,.13.53.53.53,0,0,0,.48.13.75.75,0,0,0,.61-.88.57.57,0,0,0-.07-.22.72.72,0,0,0-1-.17.49.49,0,0,0-.24.39.38.38,0,0,0,0,.15s0,.1.09.11.1-.06.1-.1a.29.29,0,0,0,0-.13.17.17,0,0,1,0-.1.18.18,0,0,1,.05-.12.54.54,0,0,1,.36-.14.62.62,0,0,1,.51.23.56.56,0,0,1,.07.47h0a.27.27,0,0,1-.08.07.31.31,0,0,1-.13.06.64.64,0,0,1-.43,0,.52.52,0,0,1-.18-.18.5.5,0,0,1-.09-.24h0Z" transform="translate(-0.01 0.37)"/><path id="Path_2138" data-name="Path 2138" class="cls-1" d="M275.5,34.78h.06a.4.4,0,0,1,.21.09,1.24,1.24,0,0,1,.37.5.58.58,0,0,1,.05.14.17.17,0,0,0,0,.1h0a.32.32,0,0,0,0-.3A1.44,1.44,0,0,0,276,35a1,1,0,0,0-.24-.23.36.36,0,0,0-.24-.09.23.23,0,0,0-.12.06.22.22,0,0,0,0,.08h0Z" transform="translate(-0.01 0.37)"/><path id="Path_2139" data-name="Path 2139" class="cls-1" d="M265,39l.36-.26.38-.23a7.16,7.16,0,0,1,.78-.4c.54-.23,1.1-.41,1.65-.61a5.91,5.91,0,0,0,1-.43V37c-.57.16-1.13.36-1.69.57-.28.1-.56.22-.83.34a9,9,0,0,0-.82.41l-.41.27-.4.34V39Z" transform="translate(-0.01 0.37)"/><path id="Path_2140" data-name="Path 2140" class="cls-1" d="M265.19,39.21h.05l.09-.06.2-.11a.82.82,0,0,0,.2-.12l.21-.13h0l-.21.06a1,1,0,0,0-.21.09l-.22.12-.1.09-.08.09v.06Z" transform="translate(-0.01 0.37)"/><path id="Path_2141" data-name="Path 2141" class="cls-1" d="M265.16,38.36a4.2,4.2,0,0,1,.46,1.19h0a2.3,2.3,0,0,0-.45-1.21h0Z" transform="translate(-0.01 0.37)"/><path id="Path_2142" data-name="Path 2142" class="cls-1" d="M265.39,38.31v.2h0v-.17h0Z" transform="translate(-0.01 0.37)"/><path id="Path_2143" data-name="Path 2143" class="cls-1" d="M265.72,38.12v.26h0v-.22a.41.41,0,0,0-.05-.09.22.22,0,0,0-.05-.08h-.06Z" transform="translate(-0.01 0.37)"/><path id="Path_2144" data-name="Path 2144" class="cls-1" d="M256.28,41.71a4.73,4.73,0,0,0-.25-.66c-.11-.21-.22-.41-.34-.61a13.73,13.73,0,0,0-.8-1.19c-.57-.76-1.21-1.49-1.82-2.22s-1.17-1.47-1.72-2.24a23.87,23.87,0,0,1-1.56-2.43,12.38,12.38,0,0,1-1.7-5.49A8.1,8.1,0,0,1,249.45,22,7.4,7.4,0,0,1,253,19.2a6.7,6.7,0,0,1,2.26-.42,7.7,7.7,0,0,1,2.38.38,12.86,12.86,0,0,1,4.18,2.34,32.76,32.76,0,0,1,3.55,3.42c1.17,1.28,2.31,2.59,3.53,3.82a22,22,0,0,0,4.4,3.53c.38.23.77.42,1.16.61.13.06.31-.23.19-.29-.41-.2-.82-.4-1.21-.63a14,14,0,0,1-1.22-.78A22.73,22.73,0,0,1,270,29.36c-1.33-1.25-2.55-2.62-3.77-4a44.71,44.71,0,0,0-3.49-3.53,14.63,14.63,0,0,0-4.1-2.67,7.82,7.82,0,0,0-4.7-.53,7.66,7.66,0,0,0-4,2.35,8.44,8.44,0,0,0-2.05,4.42,10.41,10.41,0,0,0,.94,5.66,19.6,19.6,0,0,0,1.4,2.59c.52.82,1.12,1.58,1.7,2.36,1.15,1.54,2.56,2.88,3.58,4.52.12.2.24.4.34.61l.34.59h.06Z" transform="translate(-0.01 0.37)"/><path id="Path_2145" data-name="Path 2145" class="cls-1" d="M257.05,43.82a14.43,14.43,0,0,0-1.4-2.56c-.54-.83-1.14-1.63-1.75-2.41s-1.22-1.52-1.83-2.28-1.25-1.51-1.83-2.31a11.78,11.78,0,0,1-2.36-5.12,8.66,8.66,0,0,1,.89-5.1,7.79,7.79,0,0,1,3-3.28,6.27,6.27,0,0,1,2.09-.77,7.14,7.14,0,0,1,2.44,0,11.49,11.49,0,0,1,4.56,1.87,21.56,21.56,0,0,1,3.74,3.27c1.22,1.3,2.35,2.66,3.6,3.93a18.67,18.67,0,0,0,4.27,3.33c.41.23.83.41,1.24.62.12.06.29-.22.18-.27-.43-.22-.87-.41-1.3-.64s-.81-.48-1.2-.74a19.64,19.64,0,0,1-2.14-1.72c-1.35-1.26-2.56-2.67-3.8-4a26.4,26.4,0,0,0-3.64-3.45A12.72,12.72,0,0,0,257.37,20a8.5,8.5,0,0,0-2.51-.29,6.7,6.7,0,0,0-2.25.51,7.59,7.59,0,0,0-3.4,2.89,8.93,8.93,0,0,0,0,10.11,45.37,45.37,0,0,0,3.58,4.69,38.69,38.69,0,0,1,3.49,4.85q.35.6.66,1.23c0,.07.13-.07.11-.13Z" transform="translate(-0.01 0.37)"/></g><path id="Path_2161" data-name="Path 2161" class="cls-2" d="M53.45.58a27.15,27.15,0,0,0,2.18,24.77c16.51,28.52,93.71,25,125.05,13.12A192.29,192.29,0,0,0,241.78,0" transform="translate(-0.01 0.37)"/><path id="Path_2162" data-name="Path 2162" class="cls-3" d="M46,.58C44.41,3,38.35,13.94,47,27.65c19.25,30.51,112.39,35.41,150.45,26.8C233.38,46.31,275.66,26,296.31.58" transform="translate(-0.01 0.37)"/><g id="Group_397" data-name="Group 397"><path id="Path_2163" data-name="Path 2163" class="cls-1" d="M445.48,31.57a19.19,19.19,0,0,1,.26-2c.12-.67.25-1.35.39-2s.22-1,.34-1.49c.37-1.59.74-3.17,1.15-4.74.5-2,1-3.88,1.68-5.78a19.36,19.36,0,0,1,1-2.45,8.21,8.21,0,0,1,1-1.72,2.4,2.4,0,0,1,.45-.45l.19-.1a.37.37,0,0,1,.21,0,1.15,1.15,0,0,1,.41.17l1.29.63,2.39,1.1c1.55.69,3.08,1.41,4.63,2.11s3.43,1.5,5.13,2.28c.84.38,1.68.78,2.51,1.19s1.54.81,2.31,1.21c1.06.56,2.15,1.07,3.24,1.57a10,10,0,0,1,2,1.1,2,2,0,0,1,.78,1.34,6.47,6.47,0,0,1-.33,2.39l-.24.82c-.14.43-.24.87-.35,1.31-.23.91-.47,1.81-.73,2.71-.55,1.87-1.12,3.74-1.68,5.6s-1.08,3.64-1.63,5.46c-.13.43-.26.87-.37,1.3s-.17.89-.26,1.33c0,.08.14,0,.15,0a14.47,14.47,0,0,1,.43-1.42c.15-.47.31-.93.46-1.39.29-.9.54-1.82.81-2.73.56-1.89,1.1-3.78,1.66-5.66s1.08-3.71,1.55-5.58c.1-.4.2-.79.32-1.19s.15-.52.22-.79a10.11,10.11,0,0,0,.27-1.33,2.66,2.66,0,0,0-.29-1.77,3.79,3.79,0,0,0-1.45-1.15c-.86-.46-1.77-.84-2.65-1.26-1.43-.68-2.8-1.47-4.23-2.17-1.7-.84-3.43-1.59-5.16-2.35s-3.32-1.5-5-2.25-3.18-1.4-4.74-2.16L453,11a5,5,0,0,0-.52-.25.57.57,0,0,0-.26,0,1.09,1.09,0,0,0-.55.21,3.86,3.86,0,0,0-1,1.27,16.28,16.28,0,0,0-1,2.11A53.22,53.22,0,0,0,447.86,20c-.48,1.76-.9,3.53-1.3,5.31-.35,1.5-.67,3-.9,4.54a17.41,17.41,0,0,0-.2,1.91s.1,0,.1,0Z" transform="translate(-0.01 0.37)"/><path id="Path_2164" data-name="Path 2164" class="cls-1" d="M471.17,44.37c-.2.29-.46.66-.86.68a2.67,2.67,0,0,1-1.1-.31q-1.63-.69-3.18-1.53c-1-.54-2.08-1.11-3.14-1.62s-2.18-1-3.27-1.59c-2.17-1.09-4.3-2.26-6.4-3.49-1-.61-2.07-1.23-3.08-1.89-.24-.15-.47-.32-.71-.46l-.76-.43c-.62-.34-1.24-.69-1.84-1.07a5.81,5.81,0,0,1-.76-.54,1.51,1.51,0,0,1-.42-.45v-.14c0-.1-.09-.12-.17-.1a.28.28,0,0,0-.21.2.59.59,0,0,0,.19.47,3.81,3.81,0,0,0,.61.52,19.15,19.15,0,0,0,1.83,1.13l1.55.88c1,.58,1.9,1.19,2.86,1.76,2.16,1.29,4.38,2.48,6.63,3.61,1.11.57,2.23,1.11,3.36,1.65s2.15,1.08,3.22,1.64,2.15,1.13,3.27,1.6a4.09,4.09,0,0,0,1.27.4,1.16,1.16,0,0,0,.88-.35,2,2,0,0,0,.38-.57c0-.08-.09,0-.12,0Z" transform="translate(-0.01 0.37)"/><path id="Path_2165" data-name="Path 2165" class="cls-1" d="M484.28,23.78v1.29c-.06.47-.15.94-.24,1.4a28.69,28.69,0,0,1-.77,3c-.26.89-.55,1.77-.85,2.65-.35,1.09-.69,2.19-1,3.3-.7,2.4-1.38,4.81-2.14,7.19a8.53,8.53,0,0,1-.42,1.2,2,2,0,0,1-.66.84,2.87,2.87,0,0,1-1,.28l-1.26.18a27.52,27.52,0,0,1-2.87.23h-1.38a8.3,8.3,0,0,1-1.22-.15h-.26a.61.61,0,0,1-.27,0c-.08,0-.23.11-.15.14l.2.14.25.1a2.34,2.34,0,0,0,.58.14,10.24,10.24,0,0,0,1.35.11,22.26,22.26,0,0,0,2.94-.14c.86-.09,1.72-.21,2.57-.38a2.06,2.06,0,0,0,1.16-.68,3.45,3.45,0,0,0,.61-1.11c.15-.4.26-.81.41-1.22.21-.61.39-1.25.57-1.87.38-1.27.74-2.54,1.11-3.81s.72-2.53,1.12-3.79c.28-.85.56-1.71.83-2.57s.57-2,.78-3a11.6,11.6,0,0,0,.29-2.82,2.82,2.82,0,0,0-.09-.57h-.07Z" transform="translate(-0.01 0.37)"/><path id="Path_2166" data-name="Path 2166" class="cls-1" d="M464.91,12.71l-1.66-.65-.85-.32a9,9,0,0,0-.88-.28c-1.14-.33-2.32-.56-3.48-.82-.69-.15-1.38-.26-2.07-.35a13.74,13.74,0,0,0-2.4-.12,4.82,4.82,0,0,0-1,.14,1.84,1.84,0,0,0-.83.4l-.06.06h0c.05,0-.07.09,0,.12s.12,0,.16,0h0l.17-.07.17-.08h.16a4.3,4.3,0,0,1,.94-.16,11.78,11.78,0,0,1,2.3.08,21,21,0,0,1,2.08.35l1.48.32c.59.13,1.17.25,1.75.41a15,15,0,0,1,1.72.55l1.6.63.42.16a.26.26,0,0,0,.26-.07s.12-.16,0-.2Z" transform="translate(-0.01 0.37)"/><path id="Path_2167" data-name="Path 2167" class="cls-1" d="M484.4,23.76a1.77,1.77,0,0,0-.07-.94c0-.08-.07-.16-.1-.23a1.63,1.63,0,0,0-.11-.23,4.7,4.7,0,0,0-.34-.44,8.78,8.78,0,0,0-2-1.53c-.69-.41-1.41-.78-2.13-1.13-1-.48-2-1-3-1.44-1.3-.62-2.61-1.22-3.92-1.81l-.49-.23a.23.23,0,0,0-.25.07s-.12.17,0,.2c1.32.58,2.64,1.17,3.95,1.78q1.62.77,3.24,1.56c.69.33,1.39.66,2.06,1a10,10,0,0,1,2.11,1.42,3.78,3.78,0,0,1,.39.41l.16.21.16.2a1.76,1.76,0,0,1,.28.89v.23c0,.05.08,0,.08,0Z" transform="translate(-0.01 0.37)"/><path id="Path_2168" data-name="Path 2168" class="cls-1" d="M484.34,24.54a.58.58,0,0,0,0-.62,1.15,1.15,0,0,0-.56-.38,6.32,6.32,0,0,0-1.61-.33,4.5,4.5,0,0,1-.81-.11c-.48-.1-1-.19-1.45-.27a8.13,8.13,0,0,0-1.48-.11,1.62,1.62,0,0,0-1.14.35,1.8,1.8,0,0,0-.49.92,2.62,2.62,0,0,0-.09.56v.84c0,.05.07,0,.08,0a5.12,5.12,0,0,0,.15-.56c.05-.18.09-.37.13-.56a2.81,2.81,0,0,1,.31-.94.77.77,0,0,1,.28-.26,1.4,1.4,0,0,1,.53-.11,8.66,8.66,0,0,1,1.44,0c.78.09,1.55.29,2.34.36a8.76,8.76,0,0,1,1.52.25c.38.11.89.32.85.8a.43.43,0,0,1,0,.16c0,.06.09,0,.11,0Z" transform="translate(-0.01 0.37)"/><path id="Path_2169" data-name="Path 2169" class="cls-1" d="M463.93,13.93l-2.84-1.37c-1-.46-1.92-.92-2.87-1.4l-.76-.38-.18-.07-.21-.11-.45-.18c-.09,0-.29.09-.19.18a3.54,3.54,0,0,0,.65.44l.68.35,1.42.69,2.89,1.4,1.58.76a.26.26,0,0,0,.26-.07s.12-.17,0-.21Z" transform="translate(-0.01 0.37)"/><path id="Path_2170" data-name="Path 2170" class="cls-1" d="M470.22,16.9c-1.25-.54-2.49-1.09-3.74-1.65l-1.05-.49a.26.26,0,0,0-.26.07s-.12.17,0,.21c1.23.58,2.48,1.13,3.73,1.68l1.06.46a.26.26,0,0,0,.26-.07s.13-.17,0-.21Z" transform="translate(-0.01 0.37)"/><path id="Path_2171" data-name="Path 2171" class="cls-1" d="M475.49,45.38A23.19,23.19,0,0,0,476.9,42c.39-1.14.74-2.3,1.11-3.45s.83-2.35,1.2-3.54.72-2.42,1.06-3.63.7-2.42,1.1-3.62c.17-.51.35-1,.55-1.52a11.81,11.81,0,0,0,.5-1.41,2.39,2.39,0,0,0-.62-2.38,7.22,7.22,0,0,0-2.17-1.36l-2.8-1.3c-1.16-.53-2.34-1-3.52-1.54l-.86-.37a.26.26,0,0,0-.26.07s-.12.17,0,.21c1.16.49,2.32,1,3.48,1.51s2.09,1,3.13,1.45a11.48,11.48,0,0,1,2.2,1.14,3.16,3.16,0,0,1,.83.84,2,2,0,0,1,.28,1.22,5.5,5.5,0,0,1-.38,1.43c-.18.45-.35.88-.51,1.33-.42,1.18-.79,2.37-1.14,3.57s-.68,2.41-1,3.62-.73,2.34-1.13,3.51-.73,2.28-1.09,3.41-.72,2.29-1.17,3.4c-.11.27-.21.54-.32.8s.14.06.17,0Z" transform="translate(-0.01 0.37)"/><path id="Path_2172" data-name="Path 2172" class="cls-1" d="M472.37,17.93a.88.88,0,0,1-.1-.27,1.71,1.71,0,0,1,0-.32,2.81,2.81,0,0,1,0-.71,14.18,14.18,0,0,0,.12-1.6,2,2,0,0,0-.54-1.41,3.1,3.1,0,0,0-1.49-.72c-.28-.07-.55-.13-.82-.21a3,3,0,0,1-.71-.3c-.51-.29-1-.66-1.49-.91a2.47,2.47,0,0,0-.79-.23,1.55,1.55,0,0,0-.43,0l-.21.06h0a2.34,2.34,0,0,0-.84.87c-.24.37-.46.75-.7,1.12l-.17.24-.09.11h0l-.09.09h-.19a.27.27,0,0,0-.23.12c0,.05-.05.14,0,.16h-.05a.29.29,0,0,0,.22.07A.92.92,0,0,0,464,14a1.77,1.77,0,0,0,.46-.4,6.84,6.84,0,0,0,.69-1c.11-.19.22-.37.34-.55l.18-.25.09-.1h0v0l.09-.08h.64l.21,0a6.26,6.26,0,0,1,1.47.83,4.8,4.8,0,0,0,.7.39,5.44,5.44,0,0,0,.81.25,4.94,4.94,0,0,1,1.54.53,1.76,1.76,0,0,1,.56.59,2,2,0,0,1,.21.66,9.77,9.77,0,0,1,0,1.53,4.7,4.7,0,0,0,0,.75,1.59,1.59,0,0,0,.17.6,2,2,0,0,0,.19.22s.16,0,.13-.08Z" transform="translate(-0.01 0.37)"/><path id="Path_2173" data-name="Path 2173" class="cls-1" d="M470.05,17.05a.73.73,0,0,0,.38-.08,1,1,0,0,0,.26-.27,1.45,1.45,0,0,0,.17-.79,2.14,2.14,0,0,0-.16-.75.51.51,0,0,0-.15-.23,1.31,1.31,0,0,0-.45-.24,4.64,4.64,0,0,0-1.16-.21h-.27l-.2-.06-.36-.2c-.28-.19-.56-.4-.86-.57a1.54,1.54,0,0,0-.85-.28,1.57,1.57,0,0,0-.8.43,1.39,1.39,0,0,0-.5,1v.14a.23.23,0,0,0,.1.12.25.25,0,0,0,.2-.12.43.43,0,0,0,0-.16v-.11a.89.89,0,0,1,0-.23,1.28,1.28,0,0,1,.23-.37l.09-.08h0l.19-.13h.42a2.64,2.64,0,0,1,.38.18c.28.16.53.35.8.52a2,2,0,0,0,.72.36c.34.08.7.09,1,.15a3.1,3.1,0,0,1,.51.11.89.89,0,0,1,.33.21,1.54,1.54,0,0,1,.2.54,1.76,1.76,0,0,1,0,.79.44.44,0,0,1-.06.16.75.75,0,0,1-.07.12l-.11.08h-.18s-.07,0-.08.06Z" transform="translate(-0.01 0.37)"/><path id="Path_2174" data-name="Path 2174" class="cls-1" d="M472.28,18h-.37l-.6-.1a4.37,4.37,0,0,1-.62-.17,1.06,1.06,0,0,1-.43-.26.2.2,0,0,1-.07-.16v-.09h0l.05-.08c0-.09-.09-.08-.13-.05a.39.39,0,0,0-.15.48.78.78,0,0,0,.39.3,4.63,4.63,0,0,0,1.32.32,1.51,1.51,0,0,0,.52,0c.05,0,.14-.13,0-.13Z" transform="translate(-0.01 0.37)"/><path id="Path_2175" data-name="Path 2175" class="cls-1" d="M465.28,14.84h-.35a1.85,1.85,0,0,1-.47,0,1.53,1.53,0,0,1-.83-.39.82.82,0,0,1-.12-.2c0-.08,0-.2-.09-.25s-.13,0-.16.06a.8.8,0,0,0,.1.5,1.07,1.07,0,0,0,.39.31,2.15,2.15,0,0,0,1.06.18,1,1,0,0,0,.49-.14v-.07Z" transform="translate(-0.01 0.37)"/><path id="Path_2176" data-name="Path 2176" class="cls-1" d="M479.28,20.31l.15.21a1.43,1.43,0,0,1,.14.2.4.4,0,0,1,.06.3h0v.06h-.57a3.38,3.38,0,0,1-.45,0,3.83,3.83,0,0,1-.93-.28,2.48,2.48,0,0,1-.76-.47,1.33,1.33,0,0,1-.21-.26V20h.11L477,20h.33a2.74,2.74,0,0,1,.9.15,3.82,3.82,0,0,1,.46.21,4,4,0,0,0,.58.2s.07,0,.08-.06h0A.93.93,0,0,0,479,20a2.27,2.27,0,0,0-.5-.23,3.1,3.1,0,0,0-1-.18,2.08,2.08,0,0,0-.82.14.94.94,0,0,0-.52.48.62.62,0,0,0,.15.61,2.13,2.13,0,0,0,.78.58,4.47,4.47,0,0,0,1.07.35,3.41,3.41,0,0,0,.55.05,1.8,1.8,0,0,0,.46-.05.84.84,0,0,0,.62-.56.54.54,0,0,0-.06-.39.65.65,0,0,0-.16-.21.79.79,0,0,0-.29-.18s-.15,0-.11.09Z" transform="translate(-0.01 0.37)"/><path id="Path_2177" data-name="Path 2177" class="cls-1" d="M460.52,11.83a1.33,1.33,0,0,0,.14.19,1,1,0,0,1,.11.17.34.34,0,0,1,.05.26h0v.05h-.73a3,3,0,0,1-.83-.25,2.28,2.28,0,0,1-.65-.4,1.22,1.22,0,0,1-.33-.14h0v-.05h0v-.05h.52a2.45,2.45,0,0,1,.8.14,2.87,2.87,0,0,1,.4.18,2.4,2.4,0,0,0,.52.16s.09,0,.08-.07a.67.67,0,0,0-.26-.39,1.78,1.78,0,0,0-.44-.21,2.84,2.84,0,0,0-.86-.16,1.91,1.91,0,0,0-.75.13.83.83,0,0,0-.47.45.56.56,0,0,0,.13.55,2.11,2.11,0,0,0,.71.51,3.53,3.53,0,0,0,.95.31,2.09,2.09,0,0,0,.5,0,1.34,1.34,0,0,0,.4,0,.76.76,0,0,0,.56-.52.54.54,0,0,0-.06-.35.65.65,0,0,0-.15-.18.52.52,0,0,0-.11-.1l-.16-.06s-.12.05-.1.1Z" transform="translate(-0.01 0.37)"/><path id="Path_2178" data-name="Path 2178" class="cls-1" d="M458.65,21.94a3.18,3.18,0,0,0-.14-.61c-.06-.21-.1-.43-.15-.65-.08-.42-.14-.86-.22-1.29s-.21-1-.34-1.46-.24-.9-.39-1.33a3.48,3.48,0,0,1-.21-.62,1.67,1.67,0,0,1-.05-.31.33.33,0,0,0,0-.14v-.07c0-.07-.11,0-.13,0a.56.56,0,0,0-.17.26.66.66,0,0,0,0,.28,4.11,4.11,0,0,0,.17.57c.16.43.29.86.41,1.3s.27,1,.38,1.5.18.87.28,1.3a6.38,6.38,0,0,0,.19.72,1.38,1.38,0,0,0,.31.6s.11,0,.11-.07Z" transform="translate(-0.01 0.37)"/><path id="Path_2179" data-name="Path 2179" class="cls-1" d="M456.89,15.53c-.27.35-.56.68-.86,1s-.6.65-.9,1l-.85,1c-.29.35-.58.63-.87.95A4.07,4.07,0,0,0,453,20a3,3,0,0,0-.2.29c-.06.1-.13.2-.07.28s.07,0,.1,0a1.67,1.67,0,0,0,.37-.5,4.78,4.78,0,0,1,.39-.5c.27-.32.57-.63.85-.94s.55-.65.84-1l.88-1A7,7,0,0,0,457,15.5m0-.06h0a.11.11,0,0,0-.1.06Z" transform="translate(-0.01 0.37)"/><path id="Path_2180" data-name="Path 2180" class="cls-1" d="M458.69,22a.93.93,0,0,0-.41-.26,3.39,3.39,0,0,0-.55-.13l-.56-.1a2.91,2.91,0,0,1-.58-.15L455.16,21c-.44-.13-.87-.28-1.31-.39l-.51-.12a.83.83,0,0,0-.44-.06h.1a.28.28,0,0,0-.25.12c0,.06-.06.16,0,.17h-.06s.1.07.14.08H453l.46.12,1.25.33a23.73,23.73,0,0,0,2.62.62,2.78,2.78,0,0,1,.63.11c.21.05.39.11.59.15,0,0,.14,0,.11-.11Z" transform="translate(-0.01 0.37)"/><path id="Path_2181" data-name="Path 2181" class="cls-1" d="M458.28,20.39v-.1h.19a2,2,0,0,1,.6,0,4.77,4.77,0,0,1,.65.17,2.05,2.05,0,0,1,.41.16,3,3,0,0,1,1.31,1.48,3.36,3.36,0,0,1,.25,2,3.62,3.62,0,0,1-.35.95,3.71,3.71,0,0,1-.56.8,3.58,3.58,0,0,1-.75.65l-.09.06h-.06l-.22.12a1.69,1.69,0,0,1-.43.15,3,3,0,0,1-3.16-1.9,4,4,0,0,1-.33-1.63,3.66,3.66,0,0,1,.08-.87,1.66,1.66,0,0,1,.11-.38l.09-.18h0l.07-.09h0l.06-.06h0c-.06,0,.2-.13.17-.23s-.15-.09-.22,0a2,2,0,0,0-.89,1.61,5,5,0,0,0,.15,1.8,3.26,3.26,0,0,0,.45.94,3.85,3.85,0,0,0,.73.83,2.94,2.94,0,0,0,2,.75,3.45,3.45,0,0,0,2-.93,4.24,4.24,0,0,0,1.25-1.87,3.28,3.28,0,0,0,0-2.1,3.56,3.56,0,0,0-1.32-1.78,3.42,3.42,0,0,0-1.19-.44,2.81,2.81,0,0,0-.71-.07.64.64,0,0,0-.5.21.26.26,0,0,0,0,.21c0,.06.12,0,.12,0Z" transform="translate(-0.01 0.37)"/><path id="Path_2182" data-name="Path 2182" class="cls-1" d="M468.63,36.58l-.52.39c-.18.12-.36.26-.53.4a5.57,5.57,0,0,0-.51.46,2.75,2.75,0,0,0-.22.26c-.05.08-.14.2-.09.3s0,0,.07,0h0c.11,0,.22-.15.28-.23l.19-.24a4.79,4.79,0,0,1,.47-.43c.17-.14.35-.27.51-.42a2.08,2.08,0,0,0,.44-.45s0-.06-.06,0Z" transform="translate(-0.01 0.37)"/><path id="Path_2183" data-name="Path 2183" class="cls-1" d="M468.71,36.61a2.64,2.64,0,0,0-.23-.35l-.26-.34c-.17-.23-.33-.47-.49-.71-.33-.49-.63-1-.94-1.48-.65-1-1.35-2-2.06-3-.21-.3-.43-.59-.64-.88l-.31-.43-.18-.21-.08-.08-.14-.08a.06.06,0,0,0-.08,0h0a.43.43,0,0,0,.06.22,1.37,1.37,0,0,0,.13.2l.29.39.57.78c.37.52.74,1.05,1.1,1.58s.68,1,1,1.49.61,1,.93,1.48c.18.27.36.55.56.81l.29.37a1.78,1.78,0,0,0,.35.32c.05,0,.14,0,.11-.09Z" transform="translate(-0.01 0.37)"/><path id="Path_2184" data-name="Path 2184" class="cls-1" d="M466.83,38.35a1.46,1.46,0,0,0-.07-.19,1.28,1.28,0,0,0-.11-.2c-.08-.13-.15-.26-.22-.39s-.3-.54-.47-.8c-.36-.56-.71-1.11-1.1-1.65-.74-1-1.53-2-2.24-3-.19-.26-.37-.53-.55-.8l-.27-.39a1.81,1.81,0,0,0-.33-.29s-.08,0-.08.06a2.74,2.74,0,0,0,.09.39c.06.12.13.24.2.36s.32.49.48.73c.33.47.67.93,1,1.38l1.2,1.58c.4.53.8,1.06,1.18,1.61.19.29.37.58.55.88l.28.44a1.43,1.43,0,0,0,.14.2l.18.16s.14,0,.12-.08Z" transform="translate(-0.01 0.37)"/><path id="Path_2185" data-name="Path 2185" class="cls-1" d="M463.35,29.07l-.53.35-.53.36a2.59,2.59,0,0,0-.9.9c0,.06.06,0,.08,0,.33-.27.66-.53,1-.78a3.87,3.87,0,0,0,1-.8c0-.06,0-.07-.08,0Z" transform="translate(-0.01 0.37)"/><path id="Path_2186" data-name="Path 2186" class="cls-1" d="M471.45,24.11a2.14,2.14,0,0,0-.52,1,7.91,7.91,0,0,0-.3,1.16l-.06.3v.13a.14.14,0,0,0,.06.12c.06.05.12,0,.14-.06s.08-.09.09-.16v-.48a6.2,6.2,0,0,1,.16-.72,6,6,0,0,1,.2-.69c.07-.18.14-.36.22-.54s0,0-.06,0Z" transform="translate(-0.01 0.37)"/><path id="Path_2187" data-name="Path 2187" class="cls-1" d="M471.48,24.08c0-.06-.05-.06-.09-.08l-.14-.07-.3-.11-.64-.26-.66-.27c-.21-.08-.41-.19-.63-.27l-.33-.13a1.35,1.35,0,0,0-.34-.11.19.19,0,0,0-.17.07s-.06.11,0,.14l.27.11.31.11.65.24c.44.18.88.36,1.32.52l.35.13a.53.53,0,0,0,.35,0,.09.09,0,0,0,.06-.08Z" transform="translate(-0.01 0.37)"/><path id="Path_2188" data-name="Path 2188" class="cls-1" d="M468.15,22.89a1.14,1.14,0,0,0-.09.26l-.1.3-.21.62a8.38,8.38,0,0,0-.35,1.21c0,.12-.11.39,0,.45s.22-.08.25-.18a.89.89,0,0,0,0-.23,2,2,0,0,1,.1-.54l.18-.61c.08-.23.16-.47.23-.71a1.67,1.67,0,0,0,.08-.32.71.71,0,0,0,0-.29c0-.09-.14,0-.16,0Z" transform="translate(-0.01 0.37)"/><path id="Path_2189" data-name="Path 2189" class="cls-1" d="M470.75,26.65a.8.8,0,0,0-.25-.11l-.3-.08-.67-.2a10.61,10.61,0,0,1-1.37-.49l-.35-.17s0-.05-.09-.06h-.16a.24.24,0,0,0-.16.24.07.07,0,0,0,.07.07h0l.28.13.3.13c.21.09.43.17.65.24.41.14.83.26,1.26.37a1.68,1.68,0,0,0,.63.12c.09,0,.26-.13.16-.22Z" transform="translate(-0.01 0.37)"/><path id="Path_2190" data-name="Path 2190" class="cls-1" d="M474.6,33a.8.8,0,0,0-.11-.34c-.06-.13-.11-.27-.17-.39a4.57,4.57,0,0,0-.42-.71c-.32-.46-.66-.89-1-1.35-.09-.13-.17-.26-.26-.38a1.21,1.21,0,0,0-.16-.16c-.07-.05-.1-.12-.18-.16a.08.08,0,0,0-.1,0h0a.31.31,0,0,0,0,.19V30a2,2,0,0,0,.2.38c.15.22.31.45.48.67.33.44.67.88,1,1.35.09.14.16.28.25.42s.16.27.3.28a.12.12,0,0,0,.1-.07Z" transform="translate(-0.01 0.37)"/><path id="Path_2191" data-name="Path 2191" class="cls-1" d="M477.9,34.49a.36.36,0,0,0-.07-.1l-.12-.07-.27-.16-.62-.31-.66-.34-.63-.33-.32-.17a1.51,1.51,0,0,0-.35-.14c-.11,0-.4.17-.25.28a1.43,1.43,0,0,0,.28.13l.31.13.66.29c.43.22.86.44,1.3.64a2,2,0,0,0,.34.14l.17.05h.18Z" transform="translate(-0.01 0.37)"/><path id="Path_2192" data-name="Path 2192" class="cls-1" d="M477.83,34.61h0v.06l.05-.05c-.12.05-.16.25-.19.36l-.17.48c-.06.16-.11.32-.16.49a1.42,1.42,0,0,0-.07.22v.18h.12a.39.39,0,0,0,.12-.19.3.3,0,0,1,.06-.2l.15-.49.15-.5c0-.08.12-.29,0-.36h-.06Z" transform="translate(-0.01 0.37)"/><path id="Path_2193" data-name="Path 2193" class="cls-1" d="M477.42,36.38a.16.16,0,0,0-.08-.1l-.17-.1-.33-.2a5.14,5.14,0,0,0-.64-.38c-.41-.19-.84-.33-1.25-.5l-.33-.14a.79.79,0,0,0-.33-.13c-.09,0-.24.1-.22.21s.15.13.23.17l.28.12.63.25.64.26.32.16.34.19.4.2a.64.64,0,0,0,.43.07.09.09,0,0,0,.08-.08h0Z" transform="translate(-0.01 0.37)"/><path id="Path_2194" data-name="Path 2194" class="cls-1" d="M474,34.93v-.12l-.06-.12-.16-.26c-.11-.18-.22-.35-.32-.54a5.4,5.4,0,0,0-.52-.82c-.43-.59-.89-1.15-1.32-1.74a5.85,5.85,0,0,1-.34-.48,1.15,1.15,0,0,0-.39-.37s-.06,0-.07.05h0a.85.85,0,0,0,.1.47c.09.14.19.29.3.43.22.31.45.61.69.91a14.88,14.88,0,0,1,1.2,1.66c.12.2.24.4.38.59a1.71,1.71,0,0,0,.21.26l.13.1a.34.34,0,0,0,.17,0s.09,0,.08-.06Z" transform="translate(-0.01 0.37)"/><path id="Path_2195" data-name="Path 2195" class="cls-1" d="M472.28,29.53h0a.09.09,0,0,0-.07,0h-.08a1.7,1.7,0,0,0-.35.19,7.09,7.09,0,0,0-.76.56,1.93,1.93,0,0,0-.3.27v.13a.18.18,0,0,0,.17-.06,2.09,2.09,0,0,1,.22-.2l.07-.06h0l.18-.14c.11-.09.23-.17.35-.25l.16-.11.08-.05h0l.1-.06h.05Z" transform="translate(-0.01 0.37)"/><path id="Path_2196" data-name="Path 2196" class="cls-1" d="M467.76,35.53a.52.52,0,0,0-.1.11.46.46,0,0,0-.07.16,2.29,2.29,0,0,0-.12.37,2,2,0,0,0-.1.72h.07a3.69,3.69,0,0,0,.18-.65,2.8,2.8,0,0,1,.2-.62h-.07Z" transform="translate(-0.01 0.37)"/><path id="Path_2197" data-name="Path 2197" class="cls-1" d="M467.41,35.08a6.74,6.74,0,0,1-.17.75c-.07.22-.14.43-.2.66h0a3.39,3.39,0,0,0,.42-1.42c0-.06-.08,0-.09,0Z" transform="translate(-0.01 0.37)"/><path id="Path_2198" data-name="Path 2198" class="cls-1" d="M467.21,34.71c-.11.27-.21.54-.29.81s-.17.54-.26.8h0a4.93,4.93,0,0,0,.35-.82l.13-.4a2.64,2.64,0,0,0,.12-.4c0-.06-.08,0-.09,0Z" transform="translate(-0.01 0.37)"/><path id="Path_2199" data-name="Path 2199" class="cls-1" d="M467.94,36.38a2.33,2.33,0,0,0-.51-.53l-.28-.27-.14-.14-.14-.13h0a.79.79,0,0,0,.2.31,3.45,3.45,0,0,0,.28.26c.19.17.38.34.56.52H468Z" transform="translate(-0.01 0.37)"/><path id="Path_2200" data-name="Path 2200" class="cls-1" d="M467.34,36.17l-.45-.47a3.2,3.2,0,0,0-.47-.43h-.06a3.9,3.9,0,0,0,.4.51,2,2,0,0,0,.5.41s.11,0,.08-.06Z" transform="translate(-0.01 0.37)"/><path id="Path_2201" data-name="Path 2201" class="cls-1" d="M457.38,21.71a1,1,0,0,0,0,.35V23.8a2.52,2.52,0,0,0,.07.72h.06V21.87a.38.38,0,0,0,0-.15h-.13Z" transform="translate(-0.01 0.37)"/><path id="Path_2202" data-name="Path 2202" class="cls-1" d="M457,21.59a1.84,1.84,0,0,0-.1.52v.58a7.81,7.81,0,0,0,.05,1.08H457a10.09,10.09,0,0,0,0-1.1v-.83a1,1,0,0,0,0-.25Z" transform="translate(-0.01 0.37)"/><path id="Path_2203" data-name="Path 2203" class="cls-1" d="M456.49,21.35a2.8,2.8,0,0,0-.1,1,5.4,5.4,0,0,0,.07,1.06h.07a6.37,6.37,0,0,0,0-1.07v-.52a2.09,2.09,0,0,0,0-.5h0Z" transform="translate(-0.01 0.37)"/><path id="Path_2204" data-name="Path 2204" class="cls-1" d="M458,21.89a.74.74,0,0,0-.05.36V23a2.38,2.38,0,0,0,.06.37h0a3.14,3.14,0,0,0,0-.75v-.54a.49.49,0,0,0,0-.17h0Z" transform="translate(-0.01 0.37)"/><path id="Path_2205" data-name="Path 2205" class="cls-1" d="M458.73,22.56a1.71,1.71,0,0,0-.49-.14l-.55-.1a6.65,6.65,0,0,0-1.09-.15s-.08,0-.05.06a5.82,5.82,0,0,0,1,.24l.53.09a2.6,2.6,0,0,0,.56.06s.08,0,0-.06Z" transform="translate(-0.01 0.37)"/><path id="Path_2206" data-name="Path 2206" class="cls-1" d="M458,23c-.27-.08-.54-.15-.82-.21a3.51,3.51,0,0,0-.85-.14s-.06,0,0,.05a3.54,3.54,0,0,0,.79.21,6.19,6.19,0,0,0,.86.15s.11,0,.06-.07Z" transform="translate(-0.01 0.37)"/><path id="Path_2207" data-name="Path 2207" class="cls-1" d="M457.48,23.48l-.3-.09-.31-.08a2.37,2.37,0,0,0-.65-.09s-.07,0,0,.05a3.09,3.09,0,0,0,.59.18l.32.07h.34s.11-.06,0-.08Z" transform="translate(-0.01 0.37)"/><path id="Path_2208" data-name="Path 2208" class="cls-1" d="M456.42,18.15a7.15,7.15,0,0,0,.16,1.13,10.52,10.52,0,0,0,.21,1.12h.07a6.33,6.33,0,0,0-.13-1.15,6.87,6.87,0,0,0-.25-1.11S456.41,18.12,456.42,18.15Z" transform="translate(-0.01 0.37)"/><path id="Path_2209" data-name="Path 2209" class="cls-1" d="M456.22,18.47a1.82,1.82,0,0,0,0,.33v.32a3.44,3.44,0,0,0,.12.64h.05a4.74,4.74,0,0,0-.05-.65.81.81,0,0,0,0-.31c0-.1,0-.11,0-.16a.43.43,0,0,0,0-.16h-.12Z" transform="translate(-0.01 0.37)"/><path id="Path_2210" data-name="Path 2210" class="cls-1" d="M455.78,17.28a3.66,3.66,0,0,0,0,.81,3.12,3.12,0,0,0,.14.8H456a7.52,7.52,0,0,0-.05-.82,7,7,0,0,0-.07-.79h-.1Z" transform="translate(-0.01 0.37)"/><path id="Path_2211" data-name="Path 2211" class="cls-1" d="M455.53,18.12a3.39,3.39,0,0,0,0,.9,6.54,6.54,0,0,0,.09.89h.06a3.39,3.39,0,0,0,0-.9,8.91,8.91,0,0,0-.08-.89Z" transform="translate(-0.01 0.37)"/><path id="Path_2212" data-name="Path 2212" class="cls-1" d="M455.19,18.94a2.51,2.51,0,0,0,0,.67,2.42,2.42,0,0,0,.13.65h.05a3.86,3.86,0,0,0,0-.68,2.81,2.81,0,0,0-.05-.65c0-.05-.08,0-.09,0Z" transform="translate(-0.01 0.37)"/><path id="Path_2213" data-name="Path 2213" class="cls-1" d="M457.28,19.57a7.33,7.33,0,0,0-1.15-.09h-1.25s-.07.05,0,.05a21.56,21.56,0,0,0,2.41.07h0Z" transform="translate(-0.01 0.37)"/><path id="Path_2214" data-name="Path 2214" class="cls-1" d="M457.12,18.86a5.57,5.57,0,0,1-1,0s-.07,0,0,.06a1.48,1.48,0,0,0,.51.09,1.42,1.42,0,0,0,.54-.08s.07-.09,0-.08Z" transform="translate(-0.01 0.37)"/><path id="Path_2215" data-name="Path 2215" class="cls-1" d="M470.77,24a1.31,1.31,0,0,0-.26.56,2,2,0,0,1-.08.33.46.46,0,0,1-.07.3c-.07.1,0,0,.05,0a2.25,2.25,0,0,0,.23-.61q.08-.28.18-.57c.1-.29,0,0-.06,0Z" transform="translate(-0.01 0.37)"/><path id="Path_2216" data-name="Path 2216" class="cls-1" d="M470.22,24.38a2.27,2.27,0,0,0-.27.71,3.51,3.51,0,0,0-.13.72h.07a3,3,0,0,0,.21-.71,4.29,4.29,0,0,1,.2-.7c0-.06-.06,0-.08,0Z" transform="translate(-0.01 0.37)"/><path id="Path_2217" data-name="Path 2217" class="cls-1" d="M469.8,24.12a2,2,0,0,0-.13.25l-.09.3a1.62,1.62,0,0,0-.07.58h.07a2.94,2.94,0,0,0,.16-.58,1.28,1.28,0,0,1,.07-.28,1.83,1.83,0,0,1,.08-.25c0-.08-.07,0-.09,0Z" transform="translate(-0.01 0.37)"/><path id="Path_2218" data-name="Path 2218" class="cls-1" d="M470.59,25c-.17-.08-.34-.13-.51-.22a2.14,2.14,0,0,0-.53-.2s-.08,0,0,.06a2,2,0,0,0,.47.28,1.3,1.3,0,0,0,.58.14s.07,0,0-.06Z" transform="translate(-0.01 0.37)"/><path id="Path_2219" data-name="Path 2219" class="cls-1" d="M468.78,24.39a1.2,1.2,0,0,0-.15.37,2.33,2.33,0,0,1-.08.36c0,.12.06,0,.08,0a1.2,1.2,0,0,0,.15-.37.24.24,0,0,1,.05-.18V24.4h-.05Z" transform="translate(-0.01 0.37)"/><path id="Path_2220" data-name="Path 2220" class="cls-1" d="M474,32.2a2.81,2.81,0,0,0-.1.31,1.21,1.21,0,0,1-.11.32c0,.11-.14.4-.19.6h0a3,3,0,0,0,.29-.63,1.12,1.12,0,0,1,.1-.31.81.81,0,0,0,0-.31h-.08Z" transform="translate(-0.01 0.37)"/><path id="Path_2221" data-name="Path 2221" class="cls-1" d="M473.64,31.77c-.06.18-.11.36-.16.55a2.56,2.56,0,0,0-.05.27,1,1,0,0,0,0,.25h.06a3.74,3.74,0,0,0,.17-.54,3.41,3.41,0,0,0,.1-.54c0-.06-.09,0-.1,0Z" transform="translate(-0.01 0.37)"/><path id="Path_2222" data-name="Path 2222" class="cls-1" d="M473.36,31.28a1.71,1.71,0,0,0-.13.23l-.09.29a3.33,3.33,0,0,0-.1.55h.06a2.13,2.13,0,0,0,.2-.55,2.76,2.76,0,0,1,.08-.27,2.17,2.17,0,0,1,.07-.24c0-.06-.07,0-.09,0Z" transform="translate(-0.01 0.37)"/><path id="Path_2223" data-name="Path 2223" class="cls-1" d="M473.09,30.76,473,31l-.09.24a2.17,2.17,0,0,0-.07.24.34.34,0,0,1-.07.24c-.07.08.05,0,.06,0a1.56,1.56,0,0,0,.22-.47l.08-.24a1.18,1.18,0,0,1,.07-.2s-.06,0-.08,0Z" transform="translate(-0.01 0.37)"/><path id="Path_2224" data-name="Path 2224" class="cls-1" d="M474.12,33.1l-.12-.22-.13-.21-.27-.44a4.11,4.11,0,0,0-.62-.82h-.05l.24.44.27.44q.13.23.27.42l.15.21.19.19h.07Z" transform="translate(-0.01 0.37)"/><path id="Path_2225" data-name="Path 2225" class="cls-1" d="M471.28,30.2v.05h0l.06.1.12.18.14.2c0,.06.1.14.16.2s.06,0,.06,0l-.09-.25a1.51,1.51,0,0,0-.11-.22,1.27,1.27,0,0,0-.13-.19l-.07-.09h0s-.12,0-.1.07Z" transform="translate(-0.01 0.37)"/><path id="Path_2226" data-name="Path 2226" class="cls-1" d="M471.76,29.91a1.84,1.84,0,0,0-.17.38,1.64,1.64,0,0,0-.1.38h.05a1.62,1.62,0,0,0,.19-.37l.06-.2v-.18c0-.05-.07,0-.08,0Z" transform="translate(-0.01 0.37)"/><path id="Path_2227" data-name="Path 2227" class="cls-1" d="M476.75,34.1a1.09,1.09,0,0,0,0,.36v.38a3.58,3.58,0,0,0,.11.73h.06V34.45a1,1,0,0,0,0-.35Z" transform="translate(-0.01 0.37)"/><path id="Path_2228" data-name="Path 2228" class="cls-1" d="M476.44,34.28a4.09,4.09,0,0,0,0,.7v.36a1,1,0,0,0,0,.34h.06a1.51,1.51,0,0,0,.09-.73,1.82,1.82,0,0,0-.11-.69h-.07Z" transform="translate(-0.01 0.37)"/><path id="Path_2229" data-name="Path 2229" class="cls-1" d="M476.21,34.51a3.69,3.69,0,0,0,0,.47,1,1,0,0,0,.06.42h0a1.85,1.85,0,0,0,0-.47,1,1,0,0,0,0-.43h-.06Z" transform="translate(-0.01 0.37)"/><path id="Path_2230" data-name="Path 2230" class="cls-1" d="M476,34.57a1.62,1.62,0,0,0,0,.44v.43h0a1.13,1.13,0,0,0,.08-.24.89.89,0,0,0,0-.23,3.09,3.09,0,0,0,0-.43c0-.06-.1,0-.1,0Z" transform="translate(-0.01 0.37)"/><path id="Path_2231" data-name="Path 2231" class="cls-1" d="M477.22,35.4a2.31,2.31,0,0,0-.35-.18l-.36-.17a4.26,4.26,0,0,0-.75-.35s-.08,0-.05.06a5.2,5.2,0,0,0,.72.42,2,2,0,0,0,.75.27s.06,0,0-.05Z" transform="translate(-0.01 0.37)"/><path id="Path_2232" data-name="Path 2232" class="cls-1" d="M477.18,34.92a1.46,1.46,0,0,0-.52-.28l-.28-.1-.3-.09h0a2,2,0,0,0,.25.14l.26.12c.19.07.37.17.56.23,0,0,.08,0,.06-.06Z" transform="translate(-0.01 0.37)"/><path id="Path_2233" data-name="Path 2233" class="cls-1" d="M471.63,13.85a2.62,2.62,0,0,0,0,.56V15a6.07,6.07,0,0,0,.05,1.13h.06a7.45,7.45,0,0,0,.05-1.16V14.4a5.42,5.42,0,0,0,0-.57c0-.07-.13,0-.13,0Z" transform="translate(-0.01 0.37)"/><path id="Path_2234" data-name="Path 2234" class="cls-1" d="M471.28,13.49v1.95c0,.15.06,0,.06,0a2.35,2.35,0,0,0,.08-.95,8.44,8.44,0,0,0-.09-1Z" transform="translate(-0.01 0.37)"/><path id="Path_2235" data-name="Path 2235" class="cls-1" d="M471,13.38a4.51,4.51,0,0,0,0,.52v.24a1.22,1.22,0,0,0,0,.27h0a2.48,2.48,0,0,0,.06-.54v-.49Z" transform="translate(-0.01 0.37)"/><path id="Path_2236" data-name="Path 2236" class="cls-1" d="M470.6,13.26h0l-.05.05v.09a.89.89,0,0,0,0,.23v.26a.59.59,0,0,0,.05.23h.06a1.09,1.09,0,0,0,0-.44v-.36h-.06Z" transform="translate(-0.01 0.37)"/><path id="Path_2237" data-name="Path 2237" class="cls-1" d="M470,13.08a.61.61,0,0,0,0,.19v.56h.05c.05,0,0-.07,0-.1v-.49a.61.61,0,0,0,0-.19c0-.05-.11,0-.11,0Z" transform="translate(-0.01 0.37)"/><path id="Path_2238" data-name="Path 2238" class="cls-1" d="M469.76,13s-.07,0-.08.06h0l-.06.08a.17.17,0,0,1,0,.1v.09h0v.06h.06v-.13a.09.09,0,0,0,0-.07h0V13h0Z" transform="translate(-0.01 0.37)"/><path id="Path_2239" data-name="Path 2239" class="cls-1" d="M472.28,15.16a2.13,2.13,0,0,0-.3-.3l-.32-.3c-.1-.1-.2-.2-.31-.29A3,3,0,0,0,471,14h-.06a2.88,2.88,0,0,0,.27.34,2.76,2.76,0,0,0,.3.29l.33.28a1.9,1.9,0,0,0,.37.26s.1,0,.07-.06Z" transform="translate(-0.01 0.37)"/><path id="Path_2240" data-name="Path 2240" class="cls-1" d="M470.63,13.71a.67.67,0,0,0-.19-.22l-.23-.19a3.48,3.48,0,0,0-.51-.34s-.11,0-.08.07a1.64,1.64,0,0,0,.43.4,2.55,2.55,0,0,0,.52.33h.06Z" transform="translate(-0.01 0.37)"/><path id="Path_2241" data-name="Path 2241" class="cls-1" d="M467.68,12s-.12,0-.14.09a1.43,1.43,0,0,0-.09.27,2.09,2.09,0,0,1-.08.34v.15a.24.24,0,0,0,0,.12h0a.58.58,0,0,0,.09-.25.46.46,0,0,1,.07-.3l.06-.26v-.09h0Z" transform="translate(-0.01 0.37)"/><path id="Path_2242" data-name="Path 2242" class="cls-1" d="M467.22,11.71a1.5,1.5,0,0,0,0,.3v.28a4,4,0,0,1-.11.5h.05a1.12,1.12,0,0,0,.18-.53,1.41,1.41,0,0,0,0-.29.66.66,0,0,0,0-.28h-.07Z" transform="translate(-0.01 0.37)"/><path id="Path_2243" data-name="Path 2243" class="cls-1" d="M466.93,11.76v.1a2,2,0,0,0-.05.24,2.56,2.56,0,0,0-.05.27v.12a.11.11,0,0,0,0,.08h0a.31.31,0,0,0,.05-.1v-.13a2.56,2.56,0,0,0,.05-.27.89.89,0,0,0,0-.23v-.09h0Z" transform="translate(-0.01 0.37)"/><path id="Path_2244" data-name="Path 2244" class="cls-1" d="M468,12.8a1.22,1.22,0,0,0-.29-.17l-.34-.18a4.42,4.42,0,0,0-.68-.36h0a3.27,3.27,0,0,0,.62.43l.34.16A1.12,1.12,0,0,0,468,12.8Z" transform="translate(-0.01 0.37)"/><path id="Path_2245" data-name="Path 2245" class="cls-1" d="M478.73,19.93v.77a2.36,2.36,0,0,0,0,.75h0a3.08,3.08,0,0,0,.1-.8,4.69,4.69,0,0,0,0-.75c0-.06-.12,0-.12,0Z" transform="translate(-0.01 0.37)"/><path id="Path_2246" data-name="Path 2246" class="cls-1" d="M478.39,19.94a1.59,1.59,0,0,0-.08.53,2,2,0,0,0,0,.59h.06a3.15,3.15,0,0,0,.06-.61,4.17,4.17,0,0,0,0-.5h0Z" transform="translate(-0.01 0.37)"/><path id="Path_2247" data-name="Path 2247" class="cls-1" d="M478.09,19.76v.5a2.18,2.18,0,0,0,0,.51h.05a2.56,2.56,0,0,0,.05-.55v-.47h-.1Z" transform="translate(-0.01 0.37)"/><path id="Path_2248" data-name="Path 2248" class="cls-1" d="M459.78,11.45h0m0,.05a.24.24,0,0,0,0,.12,1.61,1.61,0,0,0,0,.31v.5a.29.29,0,0,0,0,.13h.05a.66.66,0,0,0,0-.28V12a1.1,1.1,0,0,1,0-.51h-.05Z" transform="translate(-0.01 0.37)"/><path id="Path_2249" data-name="Path 2249" class="cls-1" d="M459.4,11.32h.05c-.1,0-.09.18-.08.26v.27h0v-.48h0Z" transform="translate(-0.01 0.37)"/><path id="Path_2250" data-name="Path 2250" class="cls-1" d="M471.57,16.56a2.94,2.94,0,0,0-.11.78v.38a.73.73,0,0,0,0,.36h.06a1.78,1.78,0,0,0,.11-.76v-.76h-.06Z" transform="translate(-0.01 0.37)"/><path id="Path_2251" data-name="Path 2251" class="cls-1" d="M472.2,17.71a1.49,1.49,0,0,1-.55-.1,3,3,0,0,0-.6-.21s-.06,0,0,.05a1.48,1.48,0,0,0,.56.28,1.06,1.06,0,0,0,.61,0s.06-.06,0-.05Z" transform="translate(-0.01 0.37)"/><path id="Path_2252" data-name="Path 2252" class="cls-1" d="M472.08,17.4a1,1,0,0,0-.38-.17,1.25,1.25,0,0,0-.43-.07s-.07,0,0,.05a1.71,1.71,0,0,0,.38.13,1.53,1.53,0,0,0,.42.11s.07,0,0-.05Z" transform="translate(-0.01 0.37)"/><path id="Path_2253" data-name="Path 2253" class="cls-1" d="M472.12,17.08a1.28,1.28,0,0,1-.55-.09,1.33,1.33,0,0,0-.28-.1,1.31,1.31,0,0,0-.28-.09h0l.12.07.12.09a1.48,1.48,0,0,0,.29.12,1,1,0,0,0,.59,0h0Z" transform="translate(-0.01 0.37)"/></g><g id="Group_399" data-name="Group 399"><path id="Path_2254" data-name="Path 2254" class="cls-1" d="M13.69,59.08a5.35,5.35,0,0,0-.57-.91c-.2-.31-.4-.61-.59-.93a16.22,16.22,0,0,1-1-2l-.19.3a15.2,15.2,0,0,1,1.59,1.62c.5.58,1,1.18,1.44,1.77.13.16.28-.19.2-.31-.46-.62-1-1.21-1.47-1.8a17.8,17.8,0,0,0-1.61-1.64c-.13-.11-.23.21-.19.3a16.61,16.61,0,0,0,1.06,2c.19.31.39.63.6.93s.21.3.32.44a1.54,1.54,0,0,0,.35.37c.06,0,.1-.09.08-.13Z" transform="translate(-0.01 0.37)"/><path id="Path_2255" data-name="Path 2255" class="cls-1" d="M13.52,59.29l.17.17.18.14.35.32c.23.22.45.45.67.69A17.34,17.34,0,0,0,16.21,62s.09,0,.11-.06a.17.17,0,0,0,0-.17c-.29-.63-.7-1.2-1-1.8L15,59.31l-.15-.3a.8.8,0,0,0-.15-.21c-.13-.09-.25.24-.14.31a.89.89,0,0,1,.32.44c.12.23.23.47.36.7.33.59.73,1.14,1,1.76l.12-.22c-.47-.44-.89-.93-1.32-1.41-.22-.24-.44-.47-.67-.68s-.23-.2-.35-.3l-.19-.13a.4.4,0,0,1-.21-.09c-.06,0-.09.08,0,.11Z" transform="translate(-0.01 0.37)"/><path id="Path_2256" data-name="Path 2256" class="cls-1" d="M14.69,58.87q.35-.6.66-1.23c.11-.21.21-.43.3-.65a3.62,3.62,0,0,0,.13-.35.34.34,0,0,0,0-.28.06.06,0,0,0-.08,0h0a4.8,4.8,0,0,0-1.21,1.29c-.08.12-.15.24-.22.37a.24.24,0,0,0,0,.23h0a.33.33,0,0,0,.15-.11.21.21,0,0,0,.06-.1,4.46,4.46,0,0,1,.52-.71,5.15,5.15,0,0,1,.71-.69h-.1v-.15a21,21,0,0,1-1,2.28v.12h.08Z" transform="translate(-0.01 0.37)"/><path id="Path_2257" data-name="Path 2257" class="cls-1" d="M13.28,59.07a4.37,4.37,0,0,0-.23.49c-.08.19-.18.37-.27.56a8.1,8.1,0,0,0-.48,1.14c0,.05,0,.24.1.17a8.55,8.55,0,0,0,.89-.81c.13-.15.27-.29.4-.43a6,6,0,0,0,.38-.5V59.6a2.15,2.15,0,0,0-.41.32l-.39.41a9.37,9.37,0,0,1-.86.81l.1.16A11.16,11.16,0,0,1,13,60.18c.08-.18.17-.36.24-.55a1.56,1.56,0,0,0,.15-.52s0-.09-.07,0Z" transform="translate(-0.01 0.37)"/><path id="Path_2258" data-name="Path 2258" class="cls-1" d="M10.79,58.77h.76s.06-.1,0-.11h-.42a.58.58,0,0,0-.22.08.49.49,0,0,0-.16.19V59Z" transform="translate(-0.01 0.37)"/><path id="Path_2259" data-name="Path 2259" class="cls-1" d="M14.14,62.18h0a.11.11,0,0,0,0-.08.29.29,0,0,0,0-.13v-.25a1.22,1.22,0,0,0,0-.27v-.23h-.05c-.05,0,0,.08,0,.12h0v.07a1.71,1.71,0,0,0,0,.32v.41h.09Z" transform="translate(-0.01 0.37)"/><path id="Path_2260" data-name="Path 2260" class="cls-1" d="M16.13,58.71h.81s.08-.11,0-.13h-.39a.79.79,0,0,0-.22.06l-.09.06h-.06v.1Z" transform="translate(-0.01 0.37)"/><g id="Group_398" data-name="Group 398"><path id="Path_2261" data-name="Path 2261" class="cls-1" d="M.2,48.07V48H.14A9.82,9.82,0,0,0,.8,49.24c.24.42.48.84.73,1.26.49.84,1,1.66,1.52,2.47,1,1.62,2.14,3.19,3.27,4.74S8.47,60.57,9.56,62c.83,1.08,1.59,2.22,2.33,3.36.39.61.78,1.22,1.19,1.81s.74,1,1.1,1.56c.07.11.15.21.23.32s.1-.07.08-.11c-.26-.59-.55-1.16-.85-1.73S13,65.92,12.56,65.3c-.75-1.18-1.53-2.36-2.36-3.49-.45-.6-.92-1.18-1.37-1.77-.58-.75-1.15-1.51-1.72-2.28C6,56.21,4.88,54.64,3.8,53.06S1.66,49.9.64,48.3a3.39,3.39,0,0,0-.38-.53H.18a.24.24,0,0,0,0,.34h0A.67.67,0,0,0,.24,48Z" transform="translate(-0.01 0.37)"/><path id="Path_2262" data-name="Path 2262" class="cls-1" d="M.07,47.88a.68.68,0,0,0,.21-.17,3.27,3.27,0,0,0,.25-.36c.16-.27.34-.53.5-.8.5-.82,1-1.64,1.54-2.45,1-1.57,2.13-3.06,3.25-4.54A5.84,5.84,0,0,0,7.21,37s0-.1-.07-.06c-.5.63-.9,1.34-1.38,2S4.7,40.33,4.19,41a54.21,54.21,0,0,0-3.11,4.82c-.2.36-.42.71-.61,1.07l-.24.46a1.67,1.67,0,0,1-.18.28s-.09.28,0,.24Z" transform="translate(-0.01 0.37)"/><path id="Path_2263" data-name="Path 2263" class="cls-1" d="M7.38,37.33v-.12H7.22v.08a.69.69,0,0,0,.11.13,3.24,3.24,0,0,0,.36.38,6.43,6.43,0,0,1,.71.92c.22.33.44.66.68,1s.51.7.76,1.06c1,1.45,2,2.95,2.95,4.41s1.88,2.7,2.85,4,1.74,2.38,2.61,3.58c.44.62.89,1.24,1.32,1.88l.69,1a8.07,8.07,0,0,0,.74,1c.15.15.29.3.43.46s.13-.09.1-.15a11.18,11.18,0,0,0-.62-1.25c-.21-.34-.44-.68-.67-1l-1.32-1.89c-.85-1.19-1.72-2.37-2.58-3.55s-1.86-2.56-2.76-3.87l-3-4.34L9.82,40c-.24-.32-.5-.64-.73-1a8.61,8.61,0,0,0-1.44-1.74A3.88,3.88,0,0,1,7.34,37a.06.06,0,0,0-.08,0h0a.18.18,0,0,0-.08.15.3.3,0,0,0,.08.24c0,.06.09,0,.09-.07Z" transform="translate(-0.01 0.37)"/><path id="Path_2264" data-name="Path 2264" class="cls-1" d="M21.39,56.71A12.57,12.57,0,0,0,20.66,58L20,59.25c-.46.86-.93,1.71-1.41,2.56s-1,1.68-1.46,2.51c-.25.42-.51.83-.76,1.24s-.48.72-.69,1.09-.42.82-.65,1.21a3.94,3.94,0,0,1-.35.55,2.48,2.48,0,0,0-.19.26,1,1,0,0,1-.11.28v.14h.17a.41.41,0,0,0,.22-.17,5.36,5.36,0,0,0,.34-.49c.22-.36.41-.74.6-1.12.42-.78.93-1.52,1.4-2.28,1-1.69,2-3.43,2.91-5.19.26-.5.51-1,.76-1.5a11.15,11.15,0,0,0,.67-1.55c0-.06,0-.13-.08-.06Z" transform="translate(-0.01 0.37)"/><path id="Path_2265" data-name="Path 2265" class="cls-1" d="M7.13,37.21a1.43,1.43,0,0,1,.34-.14A3.07,3.07,0,0,1,8,37c.34-.08.68-.14,1-.24,1-.28,1.9-.56,2.85-.86s1.93-.6,2.9-.88l1.46-.4c.44-.12.88-.23,1.3-.38s.9-.36,1.36-.51l.7-.21a4.71,4.71,0,0,1,.73-.22s.09-.17,0-.17L20,33h-.29a1.67,1.67,0,0,0-.62.12c-.42.12-.83.29-1.24.44A11.4,11.4,0,0,1,16.6,34l-1.49.4c-2,.56-3.91,1.21-5.87,1.78-.39.11-.8.2-1.18.33a1.6,1.6,0,0,0-.93.59v.14Z" transform="translate(-0.01 0.37)"/><path id="Path_2266" data-name="Path 2266" class="cls-1" d="M21.61,56.92a12.12,12.12,0,0,1,2.8-.51,11.1,11.1,0,0,0,1.4-.25l1-.22c1.65-.35,3.32-.64,5-.9l1.34-.2a3.22,3.22,0,0,0,.6-.13q.28-.09.57-.15c.06,0,.11-.2,0-.2a5.57,5.57,0,0,0-1,0,7.79,7.79,0,0,0-1.18.16l-2.55.42c-.82.15-1.65.3-2.47.47-.36.08-.71.15-1.06.24a11.16,11.16,0,0,1-1.28.26,7.3,7.3,0,0,0-3.18.73.21.21,0,0,0-.09.18s0,.15.09.12Z" transform="translate(-0.01 0.37)"/><path id="Path_2267" data-name="Path 2267" class="cls-1" d="M20.37,33.17c.19.36.41.72.63,1.06l.67,1,1.4,2.12c1,1.46,1.92,2.89,2.88,4.35l2.89,4.41q1.41,2.19,2.78,4.39c.2.33.4.67.62,1l.62.87A12,12,0,0,1,34,54.21c.06.13.13.25.2.37a.09.09,0,0,0,.13,0h0a.27.27,0,0,0,.08-.22,1.82,1.82,0,0,0-.08-.52,4.37,4.37,0,0,0-.23-.49,9.1,9.1,0,0,0-.59-.93c-.41-.6-.86-1.17-1.25-1.79q-1.35-2.22-2.76-4.39c-1-1.48-1.92-3-2.91-4.43s-1.94-2.89-2.93-4.33-1.88-2.74-2.85-4.1a4.82,4.82,0,0,0-.35-.44s-.09,0-.1.05a.2.2,0,0,0,0,.15Z" transform="translate(-0.01 0.37)"/><path id="Path_2268" data-name="Path 2268" class="cls-1" d="M20.35,33a.14.14,0,0,0,0-.09H20.3c-.05,0,0,0,0,.1l-.07.08a2.72,2.72,0,0,0,.7-.61c.24-.28.46-.58.67-.87.44-.62.84-1.26,1.26-1.89.91-1.32,2-2.49,3-3.76.29-.37.58-.74.84-1.13a8,8,0,0,0,.69-1.29v-.08a10.73,10.73,0,0,0-.78,1l-.8,1.08c-.55.7-1.11,1.39-1.67,2.09a24,24,0,0,0-1.5,1.95c-.44.66-.86,1.34-1.33,2-.25.33-.51.64-.78,1l-.2.22a.49.49,0,0,0-.17.25c0,.07,0,.16.08.18a.49.49,0,0,0,.17,0c.06,0,.06-.08.06-.11Z" transform="translate(-0.01 0.37)"/><path id="Path_2269" data-name="Path 2269" class="cls-1" d="M27.36,23.6a14.93,14.93,0,0,1,1.22,1.83c.37.68.72,1.38,1.08,2.06s.74,1.29,1.12,1.93.81,1.4,1.22,2.09q1.28,2.2,2.54,4.3l2.55,4.31,1.29,2.12c.21.33.44.66.65,1s.44.65.64,1c.1.17.21.32.32.48s.09-.06.07-.1c-.17-.37-.37-.73-.56-1.1s-.38-.75-.58-1.12c-.4-.72-.8-1.45-1.22-2.16-.84-1.45-1.71-2.88-2.56-4.32l-2.56-4.3L31.34,29.5c-.2-.34-.4-.69-.61-1s-.37-.6-.55-.91c-.37-.66-.72-1.33-1.1-2a9.39,9.39,0,0,0-1.26-1.8,2.17,2.17,0,0,0-.37-.31c-.07-.06-.12.11-.09.16Z" transform="translate(-0.01 0.37)"/><path id="Path_2270" data-name="Path 2270" class="cls-1" d="M34.28,54.5h.06a.12.12,0,0,0,.11-.07c.22-.29.43-.57.63-.88l.58-.92c.38-.63.74-1.26,1.1-1.89.73-1.27,1.46-2.54,2.14-3.83l.56-1.08c.19-.37.38-.74.56-1.11,0,0,0-.15-.06-.08-.21.29-.39.6-.6.89a3.46,3.46,0,0,0-.29.45c-.09.15-.2.3-.29.45-.38.63-.73,1.27-1.09,1.91q-1.08,2-2.2,3.87l-.66,1.1-.32.55-.15.28a.8.8,0,0,0-.08.16v.2Z" transform="translate(-0.01 0.37)"/><path id="Path_2271" data-name="Path 2271" class="cls-1" d="M11.94,61.3a21.83,21.83,0,0,1-1.52-2.71,4.13,4.13,0,0,1-.29-1.2A2.72,2.72,0,0,1,12,54.63a3,3,0,0,1,2.31.15A5.35,5.35,0,0,1,17,58.15a5.65,5.65,0,0,1,.22,2.12v.24h0v.19l-.06.24v.13h0v.07a2.44,2.44,0,0,1-.1.24.21.21,0,0,1,0,.11h0a3.62,3.62,0,0,1-.27.41,2,2,0,0,1-.8.64,2.21,2.21,0,0,1-1.14.11,3.83,3.83,0,0,1-2.2-1.19l-.19-.2a.83.83,0,0,0-.21-.16c-.1-.08-.15.15-.13.21a1.42,1.42,0,0,0,.11.33,1.51,1.51,0,0,0,.22.28,3.89,3.89,0,0,0,.48.43A4.18,4.18,0,0,0,14.1,63a2.43,2.43,0,0,0,2.43-.36,4.61,4.61,0,0,0,1.07-4.32,6,6,0,0,0-2.54-3.88,3.41,3.41,0,0,0-2.37-.5,3.08,3.08,0,0,0-2,1.39A3.52,3.52,0,0,0,10.28,58a8.15,8.15,0,0,0,1.07,2.73,5.78,5.78,0,0,0,.53.67s.08-.08.06-.12Z" transform="translate(-0.01 0.37)"/><path id="Path_2272" data-name="Path 2272" class="cls-1" d="M13.2,55.21h0v-.07a.55.55,0,0,0,0,.4v.22c0,.07,0,.17.11.2h.07v-.1h0v-.33l-.06-.27s0-.16-.12-.17h0s-.09,0-.09.07Z" transform="translate(-0.01 0.37)"/><path id="Path_2273" data-name="Path 2273" class="cls-1" d="M30.2,37.41c-.22-.11-.45-.2-.68-.3l-.79-.34a11.58,11.58,0,0,1-1.65-.83,3.8,3.8,0,0,1-2-2.4A2.82,2.82,0,0,1,25.34,32a1.56,1.56,0,0,1,1.13-1,1.8,1.8,0,0,1,1.53.67,4.65,4.65,0,0,1,.85,1.56,7.76,7.76,0,0,1,.25.82c.09.33.19.66.27,1,.17.74.3,1.49.53,2.21a.67.67,0,0,0,.24.37.13.13,0,0,0,.12-.12,1.41,1.41,0,0,0,0-.29.48.48,0,0,0-.07-.31L30,36.36c-.09-.38-.17-.77-.26-1.15-.15-.68-.33-1.36-.54-2a5.56,5.56,0,0,0-.84-1.73,2.25,2.25,0,0,0-1.55-1c-1.38-.09-2,1.51-2.12,2.66a2.79,2.79,0,0,0,.42,1.66,4.62,4.62,0,0,0,1.26,1.27,9.36,9.36,0,0,0,1.7,1,8.41,8.41,0,0,0,1.69.57h.36C30.21,37.64,30.28,37.46,30.2,37.41Z" transform="translate(-0.01 0.37)"/><path id="Path_2274" data-name="Path 2274" class="cls-1" d="M26.08,34.36a3.79,3.79,0,0,1-.18-.42,3.38,3.38,0,0,1-.13-.42,1.67,1.67,0,0,1,0-.83A1,1,0,0,1,27,32.1a1.54,1.54,0,0,1,1,.9,1.7,1.7,0,0,1,.13.67V34a1.11,1.11,0,0,1-.14.29,1.34,1.34,0,0,1-.7.44.66.66,0,0,1-.74-.29.08.08,0,0,0-.11,0h0a.23.23,0,0,0-.1.15c0-.1.05-.13,0,0v.07a.41.41,0,0,0,.11.35.87.87,0,0,0,.41.27,1.2,1.2,0,0,0,.9-.21,1.67,1.67,0,0,0,.65-1.7,2,2,0,0,0-1-1.44.93.93,0,0,0-.4-.12,1.14,1.14,0,0,0-.45,0,1.28,1.28,0,0,0-.79.59,1.87,1.87,0,0,0-.17,1.16,2.31,2.31,0,0,0,.19.56,1.07,1.07,0,0,0,.15.22l.17.17v-.08Z" transform="translate(-0.01 0.37)"/><path id="Path_2275" data-name="Path 2275" class="cls-1" d="M11.82,53a.27.27,0,0,0,.07-.14v-.15h0a.17.17,0,0,0,0-.1,3.93,3.93,0,0,0-.06-.48c-.05-.29-.11-.59-.16-.88s-.08-.59-.11-.88-.07-.54-.1-.81c0-.06-.06,0-.08,0a2.85,2.85,0,0,0-.18,1.73,4.3,4.3,0,0,0,.16.87l.09.38a1,1,0,0,0,.19.39v-.08a.75.75,0,0,0,.07.12v0a.08.08,0,0,0,.09,0Z" transform="translate(-0.01 0.37)"/><path id="Path_2276" data-name="Path 2276" class="cls-1" d="M11.73,48.51a.09.09,0,0,0,.06-.06.17.17,0,0,0,0-.1h0a.41.41,0,0,1,.08-.24V47.9a1.42,1.42,0,0,1,.07-.22v-.11h0v-.06a2,2,0,0,0,.08-.26v-.14h0v-.06a.89.89,0,0,0,0-.23s0-.09-.07,0a1,1,0,0,0-.13.16h0l-.09.15a3,3,0,0,0-.19.5,2.3,2.3,0,0,0-.1.51s0,.47.12.38Z" transform="translate(-0.01 0.37)"/><path id="Path_2277" data-name="Path 2277" class="cls-1" d="M13.89,44.36a1,1,0,0,0,.47-.19,1.17,1.17,0,0,1,.45-.13h.84L16,44s.07-.1,0-.13a3.37,3.37,0,0,0-.32-.19,1.4,1.4,0,0,0-.3-.15,1.47,1.47,0,0,0-.59,0,1.18,1.18,0,0,0-1,.85v.09Z" transform="translate(-0.01 0.37)"/><path id="Path_2278" data-name="Path 2278" class="cls-1" d="M17.38,44.25A7.12,7.12,0,0,1,19,45.35l.72.68c.11.1.24.19.36.28a2,2,0,0,0,.33.24c.07,0,.08-.11.06-.15a2.11,2.11,0,0,0-.26-.4l-.3-.42a5.25,5.25,0,0,0-.73-.76,4,4,0,0,0-.82-.59,1.68,1.68,0,0,0-.91-.19c-.09,0-.11.18,0,.21Z" transform="translate(-0.01 0.37)"/><path id="Path_2279" data-name="Path 2279" class="cls-1" d="M21.84,48.05a.24.24,0,0,0,.06.2l.1.14a1.55,1.55,0,0,0,.19.24c.15.16.3.31.46.45a2.54,2.54,0,0,0,.5.36l.29.1.32.06s.09-.1,0-.14a3.11,3.11,0,0,1-.23-.28,2.2,2.2,0,0,0-.2-.23,4.87,4.87,0,0,0-.5-.4c-.16-.13-.31-.25-.48-.37A1.28,1.28,0,0,0,22.1,48L22,48h-.15c-.05,0-.06.08,0,.11Z" transform="translate(-0.01 0.37)"/><path id="Path_2280" data-name="Path 2280" class="cls-1" d="M25.16,49.71h0v-.05a.61.61,0,0,0,.05.12h0a.13.13,0,0,0,.07.06.85.85,0,0,0,.22.09,1.46,1.46,0,0,0,.51,0h.24a1,1,0,0,0,.28-.13.41.41,0,0,0,.11-.07l.1-.08a.74.74,0,0,0,.19-.16s.06-.13,0-.13H25.27a.14.14,0,0,0-.09.08h0a.1.1,0,0,0-.06.13h0Z" transform="translate(-0.01 0.37)"/><path id="Path_2281" data-name="Path 2281" class="cls-1" d="M28.33,48.46h.13l.09-.09a.84.84,0,0,0,.18-.28,1,1,0,0,0,.11-.29.48.48,0,0,0,0-.37v.13a1.13,1.13,0,0,0,0-.26v-.09c0-.06-.07,0-.08,0l-.06.14h0v.09l.08-.1a.49.49,0,0,0-.16.24l-.09.2v.14h0l-.06.13h0a.31.31,0,0,0-.06.13h0a.28.28,0,0,0,0,.18.07.07,0,0,0,.08,0Z" transform="translate(-0.01 0.37)"/><path id="Path_2282" data-name="Path 2282" class="cls-1" d="M29.88,45.09a.62.62,0,0,0,.12-.26,2.74,2.74,0,0,0,.09-.39v-.73a3.05,3.05,0,0,0,0-.74,2.17,2.17,0,0,0-.19-.66c0-.06-.09,0-.09.07v2.45a.57.57,0,0,0,0,.26Z" transform="translate(-0.01 0.37)"/><path id="Path_2283" data-name="Path 2283" class="cls-1" d="M30.15,40.71a2,2,0,0,0,.05-.48v-.45h0v-.41h0V39c0-.14,0-.09-.08,0a2.42,2.42,0,0,0-.21.39h0l-.06.13v.11a1.41,1.41,0,0,0,0,.29,2.17,2.17,0,0,0,0,.51,1.13,1.13,0,0,0,0,.26c0,.06,0,.16.11.19s.1,0,.11-.09Z" transform="translate(-0.01 0.37)"/><path id="Path_2284" data-name="Path 2284" class="cls-1" d="M30.88,38h0l.06.08V38h-.05v.07h0v.08h0l-.38.22h0v.05a.13.13,0,0,0,.12,0,.18.18,0,0,0,.1-.07.23.23,0,0,0,.07-.1.61.61,0,0,0,.05-.12.54.54,0,0,0,0-.18.38.38,0,0,0,0-.15h0a.14.14,0,0,0-.19-.06h0a.24.24,0,0,0-.1.1.36.36,0,0,0-.07.17v.23h0v.06s.09.08,0,.05h.18v-.22l-.1.18h0a.41.41,0,0,0,.07-.11.38.38,0,0,0,0-.15.25.25,0,0,0-.06-.22Z" transform="translate(-0.01 0.37)"/><path id="Path_2285" data-name="Path 2285" class="cls-1" d="M36.33,40.56c.23.34.46.67.67,1s.41.72.61,1.09a7.63,7.63,0,0,0,1.32,2s.07-.07,0-.1c-.43-.71-.86-1.42-1.27-2.15a8.86,8.86,0,0,0-.61-1,4.51,4.51,0,0,0-.72-.91s-.07.06,0,.08Z" transform="translate(-0.01 0.37)"/><path id="Path_2286" data-name="Path 2286" class="cls-1" d="M36.44,41.77a3.54,3.54,0,0,0,.46.91c.18.29.37.58.56.86a18.89,18.89,0,0,0,1.18,1.64v-.07a11.07,11.07,0,0,0-1.09-1.77L37,42.5c-.09-.14-.18-.28-.26-.42a2.7,2.7,0,0,0-.27-.39s-.06.06-.06.08Z" transform="translate(-0.01 0.37)"/><path id="Path_2287" data-name="Path 2287" class="cls-1" d="M36.43,42.94a2.1,2.1,0,0,0,.33.75c.13.24.29.48.44.72s.29.46.45.69.32.48.49.7c0,0,.06,0,0-.06a6.76,6.76,0,0,0-.82-1.52c-.15-.23-.3-.46-.44-.7l-.22-.36a1,1,0,0,0-.21-.32s-.08.07-.07.1Z" transform="translate(-0.01 0.37)"/><path id="Path_2288" data-name="Path 2288" class="cls-1" d="M37.28,46.56c.15-.22.31-.43.44-.66s.27-.48.4-.73a11.91,11.91,0,0,0,.76-1.46v-.07A6.09,6.09,0,0,0,38,45c-.13.25-.26.49-.38.75s-.23.52-.36.78h0Z" transform="translate(-0.01 0.37)"/><path id="Path_2289" data-name="Path 2289" class="cls-1" d="M37.18,45.37a3.16,3.16,0,0,0,.37-.45l.36-.49a4.64,4.64,0,0,0,.61-1.06V43.3c-.25.3-.49.61-.71.93a4,4,0,0,0-.64,1.07s0,.11.06.07Z" transform="translate(-0.01 0.37)"/><path id="Path_2290" data-name="Path 2290" class="cls-1" d="M8.65,37.5a5.31,5.31,0,0,0,.61.88l.63.86.64.84c.21.26.44.5.67.75v-.08c-.21-.3-.4-.6-.61-.89L10,39l-.64-.84a3.94,3.94,0,0,0-.66-.75s-.06.06,0,.08Z" transform="translate(-0.01 0.37)"/><path id="Path_2291" data-name="Path 2291" class="cls-1" d="M9.28,37.43a3.92,3.92,0,0,0,.25.32l.24.3a2.13,2.13,0,0,0,.53.55s.06-.07,0-.1a4,4,0,0,0-.48-.66,2.09,2.09,0,0,0-.24-.28l-.13-.12-.17-.11A.17.17,0,0,0,9.28,37.43Z" transform="translate(-0.01 0.37)"/><path id="Path_2292" data-name="Path 2292" class="cls-1" d="M11.54,41.4c0,.06.06.11.09.16l.11.14.17.25.18.24a1.1,1.1,0,0,0,.23.2v-.08a3,3,0,0,0-.16-.31L12,41.74l-.19-.23-.11-.11h-.1s-.06.06,0,.08Z" transform="translate(-0.01 0.37)"/><path id="Path_2293" data-name="Path 2293" class="cls-1" d="M8.88,38.22a2,2,0,0,0,.35-.06l.38-.09L10,38a1.66,1.66,0,0,0,.37-.14s.06-.1,0-.12a1.27,1.27,0,0,0-.39,0,1.78,1.78,0,0,0-.39.07,2.4,2.4,0,0,0-.38.12,1.41,1.41,0,0,0-.36.24v.1Z" transform="translate(-0.01 0.37)"/><path id="Path_2294" data-name="Path 2294" class="cls-1" d="M1.53,47.78c.2.29.44.55.66.83s.43.58.63.87c.41.6.77,1.23,1.15,1.84.2.32.42.64.65.94,0,.05.08,0,.06-.08a13.88,13.88,0,0,0-1-1.91,16.85,16.85,0,0,0-1.26-1.78,3.84,3.84,0,0,0-.82-.79s-.06.06,0,.08Z" transform="translate(-0.01 0.37)"/><path id="Path_2295" data-name="Path 2295" class="cls-1" d="M2,46.83a4.81,4.81,0,0,0,.4.6l.41.6a3.24,3.24,0,0,0,.88,1s.06-.06,0-.08a12.05,12.05,0,0,0-.8-1.21l-.41-.57A2,2,0,0,0,2,46.68c-.06,0-.08.08-.06.11Z" transform="translate(-0.01 0.37)"/><path id="Path_2296" data-name="Path 2296" class="cls-1" d="M2.33,46.1a5.8,5.8,0,0,0,.34.52c.12.17.23.33.33.5a3.74,3.74,0,0,0,.73.86s.06-.07,0-.09c-.22-.35-.43-.72-.66-1.06a5.62,5.62,0,0,0-.35-.5A1.13,1.13,0,0,0,2.33,46c-.05,0-.06.08-.05.11Z" transform="translate(-0.01 0.37)"/><path id="Path_2297" data-name="Path 2297" class="cls-1" d="M1.56,48.84a5.71,5.71,0,0,0,.51-.77l.54-.85a7,7,0,0,0,.89-1.79s0-.1-.06,0c-.33.56-.64,1.13-1,1.69L1.93,48a4.52,4.52,0,0,0-.41.86h0Z" transform="translate(-0.01 0.37)"/><path id="Path_2298" data-name="Path 2298" class="cls-1" d="M2.19,49.27a1.9,1.9,0,0,0,.22-.33l.23-.39.21-.4c.07-.14.13-.28.19-.43s0-.1,0-.06a2.42,2.42,0,0,0-.27.36c-.08.12-.16.24-.23.37s-.14.26-.2.39a1.57,1.57,0,0,0-.18.42s0,.11.06.07Z" transform="translate(-0.01 0.37)"/><path id="Path_2299" data-name="Path 2299" class="cls-1" d="M30.69,51a2.2,2.2,0,0,0,.2.23l.21.27c.15.21.29.43.42.65a14,14,0,0,0,.78,1.22c0,.05.07,0,0-.08a14.89,14.89,0,0,0-.7-1.38c-.14-.22-.29-.43-.45-.64L30.93,51a.38.38,0,0,0-.24-.15C30.64,50.84,30.63,50.92,30.69,51Z" transform="translate(-0.01 0.37)"/><path id="Path_2300" data-name="Path 2300" class="cls-1" d="M30.85,52.13a2.6,2.6,0,0,0,.28.45l.28.44a9.43,9.43,0,0,0,.56.84s.05,0,0-.06a5.36,5.36,0,0,0-.47-1c-.1-.15-.21-.3-.32-.44a1,1,0,0,0-.32-.34s-.06.07,0,.09Z" transform="translate(-0.01 0.37)"/><path id="Path_2301" data-name="Path 2301" class="cls-1" d="M30.8,53.41h.35a3.11,3.11,0,0,1,.44-.07,4.9,4.9,0,0,0,.85-.16s.06-.11,0-.12a1.56,1.56,0,0,0-.88-.09,2,2,0,0,0-.47.16,1.38,1.38,0,0,0-.34.3v.07Z" transform="translate(-0.01 0.37)"/></g></g><path id="Path_2302" data-name="Path 2302" class="cls-4" d="M360.42.66s40.82,32.64,76.46,3.21A51.16,51.16,0,0,1,441.44.42" transform="translate(-0.01 0.37)"/><path id="Path_2302-2" data-name="Path 2302" class="cls-4" d="M482.83.6c8.15,6.17,11.56,12.61,11.85,13.59s10.24,37.52,37.6,38.1a128.17,128.17,0,0,0,14.59-.38" transform="translate(-0.01 0.37)"/></svg>