<svg id="Layer_1" data-name="Layer 1" xmlns="http://www.w3.org/2000/svg" viewBox="0 0 23.72 18.5"><defs><style>.cls-1{fill:#1b2a58;}</style></defs><g id="Group_405" data-name="Group 405"><path id="Path_2010" data-name="Path 2010" class="cls-1" d="M286.65,413.94c-.07.14-.14.28-.2.42s-.12.27-.17.4a8,8,0,0,0-.29.82,7.52,7.52,0,0,0-.34,1.68,4.61,4.61,0,0,0,.19,1.69,5.07,5.07,0,0,0,.84,1.55,5.46,5.46,0,0,0,2.57,1.81,4.54,4.54,0,0,0,1.55.21,4.48,4.48,0,0,0,1.61-.39,7.1,7.1,0,0,0,2.85-2.14c.08-.12.16-.24.23-.36s0-.13,0-.14a.23.23,0,0,0-.2.11,4.74,4.74,0,0,1-.51.67,5.34,5.34,0,0,1-.6.57,7.81,7.81,0,0,1-1.44.92,4.63,4.63,0,0,1-1.49.47,4.16,4.16,0,0,1-1.49-.1,5.17,5.17,0,0,1-2.57-1.59,4.86,4.86,0,0,1-.92-1.4,4.27,4.27,0,0,1-.34-1.62,9.44,9.44,0,0,1,.7-3.22l.12-.37c0-.05-.06,0-.07,0Z" transform="translate(-285.64 -411.2)"/><path id="Path_2011" data-name="Path 2011" class="cls-1" d="M286.7,413.88s0,0,0,0l0,0,0,0,0,0-.16-.08-.15-.07-.16-.09s-.14,0-.18.05a.18.18,0,0,0-.05.07s0,.06,0,.08a1.34,1.34,0,0,0,.31.17l.16.07.07,0,.1,0a.13.13,0,0,0,.13,0h0l-.11,0h0s.09,0,.12,0,.06-.08,0-.1Z" transform="translate(-285.64 -411.2)"/><path id="Path_2012" data-name="Path 2012" class="cls-1" d="M286,413.59a5.89,5.89,0,0,0,.53-.68,3.48,3.48,0,0,0,.22-.36.66.66,0,0,0,.09-.19.14.14,0,0,0,0-.11l0,0s-.07,0-.09,0,0,0,0,0l-.05.05a.21.21,0,0,0-.06.1l-.08.16a2.5,2.5,0,0,1-.21.35l-.23.33-.11.17a.8.8,0,0,0-.08.16c-.05.09.06.08.11,0Z" transform="translate(-285.64 -411.2)"/><path id="Path_2013" data-name="Path 2013" class="cls-1" d="M286.7,412.28H287l.26,0a5.06,5.06,0,0,1,.55,0,6.45,6.45,0,0,1,1.16.14,9.31,9.31,0,0,1,2.39.89,13.24,13.24,0,0,1,1.15.67c.37.26.73.53,1.07.81a9.91,9.91,0,0,1,1,.87c.15.15.29.3.43.46s.26.31.39.47a8.39,8.39,0,0,1,.64.92c.09.15.17.3.25.46a4.28,4.28,0,0,0,.2.44.29.29,0,0,0,.14.15l0,0h0c0,.06.14,0,.12-.06s0-.08,0-.12a.57.57,0,0,0,0-.13,1.55,1.55,0,0,0-.08-.23c-.07-.16-.15-.32-.23-.47a6.48,6.48,0,0,0-.61-.93,10,10,0,0,0-.8-.91,11.75,11.75,0,0,0-1-.9,10.86,10.86,0,0,0-1.08-.81c-.37-.25-.75-.5-1.14-.71a10.33,10.33,0,0,0-2.42-1,6.9,6.9,0,0,0-1.18-.19,4.42,4.42,0,0,0-1.15.06,2.15,2.15,0,0,0-.27.1s-.06.07,0,.07Z" transform="translate(-285.64 -411.2)"/><path id="Path_2014" data-name="Path 2014" class="cls-1" d="M295.37,419.65a1.94,1.94,0,0,1,1.19-.08,1.33,1.33,0,0,1,.8.74,1.89,1.89,0,0,1,.09.34c0,.06,0,.11,0,.17a.21.21,0,0,0,0,.11.19.19,0,0,0,.06.07s.09,0,.11,0a.32.32,0,0,0,.08-.21,1.43,1.43,0,0,0-.09-.52,1.31,1.31,0,0,0-.34-.52,1.46,1.46,0,0,0-.54-.31,1.74,1.74,0,0,0-.64-.08,1.49,1.49,0,0,0-.76.27s0,.07,0,.06Z" transform="translate(-285.64 -411.2)"/><path id="Path_2015" data-name="Path 2015" class="cls-1" d="M296.57,418.46a.2.2,0,0,1,.06.07l.1.08.27.17a3.13,3.13,0,0,1,.3.2l.28.19.11.08,0,.05,0,0h0c0,.06.09.05.14,0h0a.09.09,0,0,0,.08,0,.07.07,0,0,0,0-.06l0,.05h0s.07-.1,0-.14l-.06-.05-.11-.08a2.11,2.11,0,0,0-.27-.18c-.21-.13-.42-.24-.62-.37l-.14-.06-.06,0h-.05s-.11.05-.08.08Z" transform="translate(-285.64 -411.2)"/><path id="Path_2016" data-name="Path 2016" class="cls-1" d="M297.83,419.32c.43.05.85.09,1.27.16a11.94,11.94,0,0,1,3.54,1.26,12.49,12.49,0,0,1,3.73,3.21,11.47,11.47,0,0,1,.72,1l.32.52c.06.09.1.18.16.27s.11.17.18.25l.17.24s.13,0,.12-.08l-.09-.3a2.52,2.52,0,0,0-.12-.29,6,6,0,0,0-.3-.56c-.22-.35-.45-.69-.7-1a13.36,13.36,0,0,0-1.69-1.84,11.62,11.62,0,0,0-4.35-2.5c-.41-.12-.83-.22-1.25-.3a9.55,9.55,0,0,0-1.31-.15h-.33s-.15.13-.07.14Z" transform="translate(-285.64 -411.2)"/><path id="Path_2017" data-name="Path 2017" class="cls-1" d="M297.54,420.94a7,7,0,0,0-.42.87c-.12.28-.23.56-.33.85a6,6,0,0,0-.34,1.69,5.22,5.22,0,0,0,1.17,3.37,5.29,5.29,0,0,0,2.6,1.78,4.89,4.89,0,0,0,3.16-.12,6.28,6.28,0,0,0,2.88-2.18,2.85,2.85,0,0,0,.23-.37c0-.05.05-.14,0-.15a.25.25,0,0,0-.21.12,5.34,5.34,0,0,1-1.08,1.29,6,6,0,0,1-1.46.91,5.17,5.17,0,0,1-.75.27,4.94,4.94,0,0,1-.75.14,4.76,4.76,0,0,1-1.5-.11,5,5,0,0,1-2.58-1.54,5.25,5.25,0,0,1-1.37-3.15,4.5,4.5,0,0,1,0-.82l.06-.4c0-.13,0-.25.08-.38a10.93,10.93,0,0,1,.59-1.66c.05-.13.11-.27.16-.41s-.1,0-.12,0Z" transform="translate(-285.64 -411.2)"/><path id="Path_2018" data-name="Path 2018" class="cls-1" d="M307.92,426.16l-.09.1a1.34,1.34,0,0,0-.11.14l-.23.32-.46.64.15-.07-.08-.07-.18-.17-.2-.16-.09-.07-.05-.05c-.09-.08-.3.1-.2.19l.36.28a3.13,3.13,0,0,0,.3.2s.12,0,.14-.06l.44-.64.22-.32a1.1,1.1,0,0,0,.09-.14.37.37,0,0,0,.05-.11s0,0-.06,0Z" transform="translate(-285.64 -411.2)"/><path id="Path_2019" data-name="Path 2019" class="cls-1" d="M298.55,420.56a12.23,12.23,0,0,0-.87,1.64,5.49,5.49,0,0,0-.41,1.64,4.81,4.81,0,0,0,.79,3.11,4.28,4.28,0,0,0,2.51,1.7,4.41,4.41,0,0,0,1.66.1,4.67,4.67,0,0,0,1.58-.52,6.9,6.9,0,0,0,2.36-2.2l.26-.37s0-.07,0-.08a.14.14,0,0,0-.12.06,10.53,10.53,0,0,1-1,1.3,6,6,0,0,1-1.19,1,4.59,4.59,0,0,1-1.48.61,4.36,4.36,0,0,1-1.61,0,4.25,4.25,0,0,1-2.6-1.48,4.58,4.58,0,0,1-1-3,5.36,5.36,0,0,1,.27-1.59,8.33,8.33,0,0,1,.34-.82c.12-.27.27-.52.39-.79s.14-.26.2-.39,0,0-.05,0Z" transform="translate(-285.64 -411.2)"/><path id="Path_2020" data-name="Path 2020" class="cls-1" d="M298.6,420.57a.53.53,0,0,1,.28-.18.61.61,0,0,1,.3,0c.15,0,.29.09.44.13a4.55,4.55,0,0,1,.72.3,16.64,16.64,0,0,1,1.88,1.08c.68.44,1.34.91,2,1.41a14.46,14.46,0,0,1,1.55,1.37,3.93,3.93,0,0,1,.44.55.68.68,0,0,1,.1.21.29.29,0,0,1,0,.16h0s0,0,0,0v0h0c0,.05,0,0,0,0s0,.07,0,.07a.1.1,0,0,0,.1,0s0,0,0,0h0l0-.05a.41.41,0,0,0,0-.11.42.42,0,0,0-.06-.19,2.16,2.16,0,0,0-.36-.53,12,12,0,0,0-1.49-1.36,24.36,24.36,0,0,0-2-1.47,18.27,18.27,0,0,0-2-1.15,5.75,5.75,0,0,0-.77-.33l-.39-.12a.88.88,0,0,0-.62,0,.57.57,0,0,0-.24.22c0,.05,0,.05.05,0Z" transform="translate(-285.64 -411.2)"/><path id="Path_2021" data-name="Path 2021" class="cls-1" d="M295.4,418.8c-.41.41-.78.86-1.21,1.25a5.93,5.93,0,0,1-1.31.89,4.63,4.63,0,0,1-3,.38,4.22,4.22,0,0,1-2.53-1.69,4.37,4.37,0,0,1-.78-2.95A5.29,5.29,0,0,1,287,415a9.71,9.71,0,0,1,.83-1.47l.27-.38s0-.07,0-.08-.09,0-.12.06a13.43,13.43,0,0,0-.95,1.53,5.75,5.75,0,0,0-.56,1.65,4.83,4.83,0,0,0,0,1.61,4.51,4.51,0,0,0,1.59,2.69,4.38,4.38,0,0,0,1.42.74,4.72,4.72,0,0,0,3.1-.18,5.26,5.26,0,0,0,1.38-.79,9.23,9.23,0,0,0,1.24-1.26l.27-.33s0,0,0,0Z" transform="translate(-285.64 -411.2)"/><path id="Path_2022" data-name="Path 2022" class="cls-1" d="M295.44,418.82a.59.59,0,0,0,.06-.69,4.15,4.15,0,0,0-.3-.43,5,5,0,0,0-.54-.6,16.34,16.34,0,0,0-1.67-1.43c-.66-.51-1.34-1-2-1.43a12.2,12.2,0,0,0-1.81-1,3,3,0,0,0-.66-.22.55.55,0,0,0-.45.06.27.27,0,0,0-.07.08s0,.06,0,.06a.1.1,0,0,0,.1-.05s0,0,0,0,0,0,0,0h0s0,0,0,0h0s0,0,0,0h.2a2.11,2.11,0,0,1,.59.18,11.47,11.47,0,0,1,1.73.92q1,.63,2,1.35a21.13,21.13,0,0,1,1.72,1.41c.2.19.4.4.59.61l.2.27a1.3,1.3,0,0,1,.32.54.59.59,0,0,1-.07.37s0,0,.06,0Z" transform="translate(-285.64 -411.2)"/><path id="Path_2023" data-name="Path 2023" class="cls-1" d="M291,413l.26,0,.23,0,.42-.06,1-.12,1.35-.21c.42-.06.84-.1,1.26-.14.81-.07,1.63-.12,2.44-.18l.68-.08a4.45,4.45,0,0,1,.72-.1,1.46,1.46,0,0,1,.59,0,.38.38,0,0,1,.19.14.25.25,0,0,1,0,.09l0,.13s0,.1,0,.15.07,0,.09,0a.69.69,0,0,0,.1-.37.4.4,0,0,0-.12-.22.86.86,0,0,0-.56-.17,9.4,9.4,0,0,0-1.39.16c-.37.05-.74.06-1.12.09s-.82,0-1.23.09c-.88.07-1.76.17-2.63.31l-1.14.19a8.55,8.55,0,0,0-.88.17l-.29.08s-.08.1,0,.09Z" transform="translate(-285.64 -411.2)"/><path id="Path_2024" data-name="Path 2024" class="cls-1" d="M300.22,412.62a2.48,2.48,0,0,0,.25.58.72.72,0,0,0,.54.28.37.37,0,0,0,.38-.26.61.61,0,0,0,0-.3,1.11,1.11,0,0,0-.18-.34,3.3,3.3,0,0,0-.95-1,2.32,2.32,0,0,0-1.28-.36c-.32,0-.64,0-1,0l-1,.07-1.95.14c-1.3.11-2.61.21-3.91.34l-1.92.19-1,.08-.48.05-.52.06-.49.05s-.08.06,0,.07a22.65,22.65,0,0,0,3.68-.21c1.24-.14,2.48-.25,3.73-.36s2.52-.22,3.78-.3c.3,0,.61-.05.92-.05a2.22,2.22,0,0,1,.68.07,2.39,2.39,0,0,1,1.07.66,4.53,4.53,0,0,1,.43.55c.12.17.31.4.22.62s-.3.1-.42,0a.79.79,0,0,1-.27-.2,1.78,1.78,0,0,1-.17-.3,1.6,1.6,0,0,0-.1-.23s-.08,0-.07,0Z" transform="translate(-285.64 -411.2)"/><path id="Path_2025" data-name="Path 2025" class="cls-1" d="M307,424.34c0-.1.08-.19.11-.29a2.81,2.81,0,0,1,.1-.31c.06-.22.11-.44.17-.66.12-.47.24-.93.35-1.4.2-.89.36-1.79.48-2.69s.2-1.68.31-2.51c.05-.44.2-.86.23-1.3a1.21,1.21,0,0,0-.06-.6.4.4,0,0,0-.47-.24.6.6,0,0,0-.19.06s-.1.09,0,.09h.14a.27.27,0,0,1,.12,0h0l.05,0a.27.27,0,0,1,.07.08.43.43,0,0,1,.09.22,1.41,1.41,0,0,1,0,.29,11.58,11.58,0,0,1-.23,1.31c-.06.37-.09.75-.14,1.12s-.09.82-.15,1.22c-.11.88-.25,1.75-.44,2.62s-.4,1.77-.62,2.66c0,.09,0,.18,0,.27s.09,0,.1,0Z" transform="translate(-285.64 -411.2)"/><path id="Path_2026" data-name="Path 2026" class="cls-1" d="M308,414.41a2.39,2.39,0,0,1-.52-.29.69.69,0,0,1-.23-.54.18.18,0,0,1,.07-.15.3.3,0,0,1,.21,0,.76.76,0,0,1,.32.17l.27.22a2.91,2.91,0,0,1,.8.94,2.33,2.33,0,0,1,.2,1.25c-.06.64-.14,1.29-.23,1.93s-.16,1.28-.25,1.92c-.15,1.17-.3,2.33-.48,3.49-.06.37-.12.74-.17,1.11L308,425l0,.35v.83c0,.05.08,0,.08,0,.16-.91.26-1.83.4-2.74.18-1.16.32-2.33.47-3.5.18-1.33.34-2.66.46-4a2.35,2.35,0,0,0-.21-1.28,2.87,2.87,0,0,0-.84-1,3.06,3.06,0,0,0-.29-.21l-.14-.1a.62.62,0,0,0-.19-.07.43.43,0,0,0-.47.16.52.52,0,0,0,0,.5.83.83,0,0,0,.19.26,1.43,1.43,0,0,0,.3.16l.27.1s.08,0,0-.05Z" transform="translate(-285.64 -411.2)"/><path id="Path_2027" data-name="Path 2027" class="cls-1" d="M301.27,425.9a3.4,3.4,0,0,0,.34-.12l.35-.13.71-.22c.48-.14,1-.27,1.44-.42l.4-.12.21-.06a.34.34,0,0,0,.16-.1s0,0,0,0a.19.19,0,0,0-.13,0l-.19.07-.37.11-.71.21c-.48.14-1,.28-1.45.44l-.39.14a2.64,2.64,0,0,0-.38.18s0,0,0,0Z" transform="translate(-285.64 -411.2)"/><path id="Path_2028" data-name="Path 2028" class="cls-1" d="M302.7,425.75a3.5,3.5,0,0,0,.55-.17l.6-.19.61-.17.32-.07a.61.61,0,0,0,.27-.08s0,0,0,0a.14.14,0,0,0-.11,0l-.15,0-.31.06-.62.18-.61.2a5.37,5.37,0,0,0-.56.21s0,0,0,0Z" transform="translate(-285.64 -411.2)"/><path id="Path_2029" data-name="Path 2029" class="cls-1" d="M304,425.56a1.37,1.37,0,0,0,.48-.1l.25-.07.13,0a.22.22,0,0,0,.12-.05s0,0,0-.05-.06,0-.1,0l-.13,0-.25.08-.5.16s-.05,0,0,0Z" transform="translate(-285.64 -411.2)"/><path id="Path_2030" data-name="Path 2030" class="cls-1" d="M304,424.76c.07.19.16.37.23.56l.1.28.05.14a.54.54,0,0,0,.09.12s0,0,0,0a1.24,1.24,0,0,0,0-.16.69.69,0,0,1-.05-.13l-.12-.29a1.72,1.72,0,0,0-.27-.52s-.05,0,0,0Z" transform="translate(-285.64 -411.2)"/><path id="Path_2031" data-name="Path 2031" class="cls-1" d="M303.29,425a.22.22,0,0,0,0,.08.24.24,0,0,0,0,.08,1.21,1.21,0,0,0,.05.14.49.49,0,0,0,.06.13l.06.11s0,0,0,0v-.15a.57.57,0,0,0,0-.14l-.07-.14,0-.07,0-.05s0,0,0,0Z" transform="translate(-285.64 -411.2)"/><path id="Path_2032" data-name="Path 2032" class="cls-1" d="M298.28,423a.53.53,0,0,0,.25,0l.29-.1.56-.19.57-.19a2.89,2.89,0,0,0,.58-.22s0,0,0,0a.88.88,0,0,0-.27.06l-.28.09-.58.2-.58.2-.28.09a1.23,1.23,0,0,0-.26.12,0,0,0,0,0,0,0Z" transform="translate(-285.64 -411.2)"/><path id="Path_2033" data-name="Path 2033" class="cls-1" d="M298.57,423.12a2.44,2.44,0,0,0,.53-.14l.54-.19.52-.19a4.93,4.93,0,0,0,.54-.19s0,0,0,0a1.94,1.94,0,0,0-.51.14l-.53.2-.53.19c-.18.06-.37.11-.55.18,0,0,0,.05,0,0Z" transform="translate(-285.64 -411.2)"/><path id="Path_2034" data-name="Path 2034" class="cls-1" d="M298.54,423.49l.24-.06.29-.1a3.25,3.25,0,0,0,.52-.28s0,0,0,0l-.51.21-.26.1a1.19,1.19,0,0,0-.26.11s0,0,0,0Z" transform="translate(-285.64 -411.2)"/><path id="Path_2035" data-name="Path 2035" class="cls-1" d="M298.76,422.6a2.47,2.47,0,0,1,.1.29c0,.11.06.21.09.32a2.44,2.44,0,0,0,.28.67s0,0,0,0a3,3,0,0,0-.21-.72c0-.11-.08-.21-.11-.31a.71.71,0,0,0-.13-.26s-.06,0-.06,0Z" transform="translate(-285.64 -411.2)"/><path id="Path_2036" data-name="Path 2036" class="cls-1" d="M299.14,422.47a1,1,0,0,0,.05.16c0,.05,0,.11,0,.16a1.09,1.09,0,0,0,0,.17.24.24,0,0,0,.09.13s0,0,0,0a.28.28,0,0,0,0-.09s0-.06,0-.09a1,1,0,0,0-.05-.16.75.75,0,0,0-.05-.16.3.3,0,0,0-.09-.13s0,0-.05,0Z" transform="translate(-285.64 -411.2)"/><path id="Path_2037" data-name="Path 2037" class="cls-1" d="M299.67,422.32l.06.16a1.21,1.21,0,0,1,0,.18l0,.18,0,.09,0,.07s.05,0,.05,0v-.09s0-.07,0-.1a1.25,1.25,0,0,0,0-.19.52.52,0,0,0-.16-.31s-.05,0-.05,0Z" transform="translate(-285.64 -411.2)"/><path id="Path_2038" data-name="Path 2038" class="cls-1" d="M299.45,427.51a2.14,2.14,0,0,0,.44,0l.51-.07.5-.1a1.1,1.1,0,0,0,.44-.15s0,0,0,0a1,1,0,0,0-.43.08l-.49.09-.49.07a2.43,2.43,0,0,0-.47.08s-.05,0,0,.05Z" transform="translate(-285.64 -411.2)"/><path id="Path_2039" data-name="Path 2039" class="cls-1" d="M300.1,427.12a.47.47,0,0,0,0,.17.77.77,0,0,0,0,.15.76.76,0,0,0,0,.16l0,.07,0,.07s0,0,.05,0a.47.47,0,0,0,0-.17.88.88,0,0,0,0-.16l0-.15a.78.78,0,0,0-.05-.14s0,0,0,0Z" transform="translate(-285.64 -411.2)"/><path id="Path_2040" data-name="Path 2040" class="cls-1" d="M300.31,427.19v.12c0,.05,0,.09,0,.14a.61.61,0,0,0,0,.13l.06.12s.05,0,.05,0,0-.19,0-.29l0-.12s0,0,0-.06l0,0h0s-.05,0-.05,0Z" transform="translate(-285.64 -411.2)"/><path id="Path_2041" data-name="Path 2041" class="cls-1" d="M290.16,418.7l.64-.23.69-.2c.25-.08.51-.17.77-.24l.8-.2a4.17,4.17,0,0,0,.9-.31s0,0,0,0a7,7,0,0,0-.79.2l-.82.22-.79.24-.69.21a2.12,2.12,0,0,0-.72.32s0,0,0,0Z" transform="translate(-285.64 -411.2)"/><path id="Path_2042" data-name="Path 2042" class="cls-1" d="M291.68,418.45a8.55,8.55,0,0,0,.88-.17,4.19,4.19,0,0,0,.87-.27s0,0,0,0a8.23,8.23,0,0,0-.86.19,6.88,6.88,0,0,0-.89.24s-.05.06,0,.05Z" transform="translate(-285.64 -411.2)"/><path id="Path_2043" data-name="Path 2043" class="cls-1" d="M291.36,418.91l.21,0,.23-.05a3.22,3.22,0,0,0,.44-.14s0,0,0,0a1.85,1.85,0,0,0-.42.06l-.24.07-.23.09s0,0,0,0Z" transform="translate(-285.64 -411.2)"/><path id="Path_2044" data-name="Path 2044" class="cls-1" d="M291.64,417.82c.07.22.15.43.21.65a4.75,4.75,0,0,0,.2.64s.05,0,.05,0a2.78,2.78,0,0,0-.12-.7,1.46,1.46,0,0,0-.29-.6s-.06,0-.05,0Z" transform="translate(-285.64 -411.2)"/><path id="Path_2045" data-name="Path 2045" class="cls-1" d="M292.12,417.79a.49.49,0,0,0,0,.12s0,.08,0,.11l.06.23a1.49,1.49,0,0,0,.15.4s0,0,0,0a1.61,1.61,0,0,0-.06-.44c0-.07,0-.14-.07-.21a.49.49,0,0,0,0-.11.47.47,0,0,0-.05-.1s-.07,0-.07,0Z" transform="translate(-285.64 -411.2)"/><path id="Path_2046" data-name="Path 2046" class="cls-1" d="M287.22,416.05c.22,0,.44-.06.66-.09l.66-.09c.23,0,.45-.06.67-.11a2.08,2.08,0,0,0,.63-.23s0,0,0,0l-.62.14c-.22.05-.44.09-.67.12l-.67.09a4,4,0,0,0-.66.16s-.05.06,0,.05Z" transform="translate(-285.64 -411.2)"/><path id="Path_2047" data-name="Path 2047" class="cls-1" d="M288.19,416.22a4.78,4.78,0,0,0,.53-.06l.54-.07a6.37,6.37,0,0,0,1.06-.19s0,0,0,0c-.35,0-.7.07-1.05.12a5.46,5.46,0,0,0-1.07.2s0,0,0,0Z" transform="translate(-285.64 -411.2)"/><path id="Path_2048" data-name="Path 2048" class="cls-1" d="M288.64,415.51a1,1,0,0,0,0,.29l.06.27a1.64,1.64,0,0,0,.17.53s.05,0,.05,0a2.63,2.63,0,0,0-.1-.56l-.06-.28a.61.61,0,0,0-.08-.26s-.06,0-.06,0Z" transform="translate(-285.64 -411.2)"/><path id="Path_2049" data-name="Path 2049" class="cls-1" d="M289,415.08a1.4,1.4,0,0,0,.05.61c0,.19.09.39.14.58,0,0,.07,0,.07,0a2.06,2.06,0,0,0-.08-.6,2.46,2.46,0,0,1-.07-.29l-.06-.29s-.05,0-.06,0Z" transform="translate(-285.64 -411.2)"/><path id="Path_2050" data-name="Path 2050" class="cls-1" d="M288.13,419.68a1,1,0,0,0,.38,0l.41-.1.42-.11a2.09,2.09,0,0,0,.43-.11s0,0,0,0a1,1,0,0,0-.38,0l-.42.1-.42.11a2.73,2.73,0,0,0-.41.1s0,0,0,0Z" transform="translate(-285.64 -411.2)"/><path id="Path_2051" data-name="Path 2051" class="cls-1" d="M287.91,420h.15l.14,0,.3-.06a4.31,4.31,0,0,0,.62-.15s0,0,0,0a2.35,2.35,0,0,0-.6.08l-.31.06-.15,0-.16.06s0,.05,0,0Z" transform="translate(-285.64 -411.2)"/><path id="Path_2052" data-name="Path 2052" class="cls-1" d="M288.39,419.44c0,.06,0,.11.05.16s0,.12.05.17a.84.84,0,0,0,.12.31s.05,0,.05,0a.7.7,0,0,0-.06-.35.44.44,0,0,0-.06-.16.42.42,0,0,0-.09-.14s-.06,0-.06,0Z" transform="translate(-285.64 -411.2)"/><path id="Path_2053" data-name="Path 2053" class="cls-1" d="M289.24,412.37h.34l.37,0,.73-.06,1.47-.16c1-.11,2-.22,2.94-.26l.78-.06.4,0a1.29,1.29,0,0,0,.39,0s.06-.05,0-.07a.59.59,0,0,0-.3,0l-.35,0-.7.06-1.46.1c-1,.09-2,.21-3,.32l-.83.09-.42,0a2.9,2.9,0,0,0-.41.06s-.05.05,0,.05Z" transform="translate(-285.64 -411.2)"/><path id="Path_2054" data-name="Path 2054" class="cls-1" d="M286.77,412.34a2.69,2.69,0,0,1,1,0c.35.06.69.14,1,.22a8.25,8.25,0,0,1,2.19.86,16.7,16.7,0,0,1,3.39,2.51,8.18,8.18,0,0,1,1.24,1.51,1,1,0,0,0,.13.16s.08,0,.07,0a.7.7,0,0,0-.08-.2l-.12-.19-.27-.39c-.22-.26-.44-.52-.68-.77a15.27,15.27,0,0,0-1.67-1.44,18.28,18.28,0,0,0-1.75-1.16,9.62,9.62,0,0,0-2.12-.89,11,11,0,0,0-1.11-.24,2.73,2.73,0,0,0-1-.06l-.2.07s0,.07,0,.06Z" transform="translate(-285.64 -411.2)"/><path id="Path_2055" data-name="Path 2055" class="cls-1" d="M298.8,419.76l.41.07.46.1c.34.09.67.19,1,.31a14.38,14.38,0,0,1,1.89.82,10.41,10.41,0,0,1,1.84,1.31,17.2,17.2,0,0,1,1.75,1.77,14.93,14.93,0,0,1,1.47,2,1.3,1.3,0,0,0,.18.23s.12,0,.11-.07a2.62,2.62,0,0,0-.3-.51l-.36-.52c-.24-.34-.49-.68-.76-1a19.7,19.7,0,0,0-1.74-1.8,10.28,10.28,0,0,0-1.89-1.4,10.9,10.9,0,0,0-1.88-.84,8.51,8.51,0,0,0-1.94-.5h-.21s-.06.05,0,.05Z" transform="translate(-285.64 -411.2)"/><path id="Path_2056" data-name="Path 2056" class="cls-1" d="M308.51,419.44a6.06,6.06,0,0,1-.18,1c-.09.4-.16.81-.22,1.22s-.1.83-.16,1.24-.15.85-.22,1.27c0,.23-.09.46-.12.69s0,.23,0,.35a.91.91,0,0,0,0,.33c0,.06.11,0,.12,0a.81.81,0,0,0,0-.31c0-.1,0-.2,0-.3s.06-.4.09-.6c.07-.43.15-.85.22-1.27s.11-.84.17-1.26.12-.83.2-1.25c0-.18.09-.37.13-.56a1.14,1.14,0,0,0,0-.55s-.06,0-.06,0Z" transform="translate(-285.64 -411.2)"/></g></svg>