<svg id="Layer_1" data-name="Layer 1" xmlns="http://www.w3.org/2000/svg" viewBox="0 0 27.85 31.74"><defs><style>.cls-1{fill:#1b2a58;}</style></defs><g id="Group_404" data-name="Group 404"><path id="Path_2254" data-name="Path 2254" class="cls-1" d="M293.1,429.42a3.82,3.82,0,0,0-.4-.64l-.41-.64a12.58,12.58,0,0,1-.71-1.36l-.13.2a11.74,11.74,0,0,1,1.1,1.13c.35.4.67.82,1,1.23.1.11.2-.13.14-.22-.32-.43-.66-.84-1-1.25a11,11,0,0,0-1.12-1.14c-.09-.08-.16.15-.13.21a9.82,9.82,0,0,0,.74,1.35c.13.22.27.44.42.65a3.46,3.46,0,0,0,.22.31,2,2,0,0,0,.24.26s.07-.07.06-.09Z" transform="translate(-283.58 -404.63)"/><path id="Path_2255" data-name="Path 2255" class="cls-1" d="M293,429.56l.12.12.12.1.25.22c.16.15.31.31.46.48.3.33.59.68.92,1,0,0,.06,0,.07,0a.17.17,0,0,0,0-.12c-.2-.44-.49-.84-.72-1.26-.09-.15-.16-.31-.24-.47s-.07-.15-.11-.22a.45.45,0,0,0-.1-.14c-.1-.06-.18.17-.1.22a.65.65,0,0,1,.22.3c.08.17.16.33.25.49.23.41.51.79.71,1.22l.08-.15c-.33-.31-.62-.65-.92-1a5.32,5.32,0,0,0-.47-.48l-.24-.2a.51.51,0,0,0-.13-.09.94.94,0,0,0-.15-.06s-.06.05,0,.07Z" transform="translate(-283.58 -404.63)"/><path id="Path_2256" data-name="Path 2256" class="cls-1" d="M293.79,429.27c.16-.28.32-.57.46-.86a3.1,3.1,0,0,0,.21-.45,2.25,2.25,0,0,0,.08-.24.23.23,0,0,0,0-.2,0,0,0,0,0-.06,0h0a3.43,3.43,0,0,0-.84.9,1.65,1.65,0,0,0-.15.25.18.18,0,0,0,0,.16l0,0s.1-.06.11-.07l0-.07a4,4,0,0,1,.85-1l-.07,0,0,0v-.11a13.09,13.09,0,0,1-.7,1.58s0,.07,0,.08a0,0,0,0,0,.06,0Z" transform="translate(-283.58 -404.63)"/><path id="Path_2257" data-name="Path 2257" class="cls-1" d="M292.79,429.41a3.54,3.54,0,0,0-.16.34c-.06.13-.12.26-.19.39a5.48,5.48,0,0,0-.33.79s0,.17.07.11a5.5,5.5,0,0,0,.62-.56l.28-.3c.09-.11.18-.22.26-.34s0-.08,0-.06a1.23,1.23,0,0,0-.29.22l-.27.29a6.2,6.2,0,0,1-.6.55l.08.12a6.71,6.71,0,0,1,.32-.78c.06-.13.12-.25.17-.38a1.24,1.24,0,0,0,.11-.36s0-.07,0,0Z" transform="translate(-283.58 -404.63)"/><path id="Path_2258" data-name="Path 2258" class="cls-1" d="M291.09,429.2h0l.06,0,.14,0,.16,0,.08,0,0,0,0,0s0-.07,0-.08h0l0,0h-.08l-.18,0-.15.06a.35.35,0,0,0-.11.13s0,.06,0,.05Z" transform="translate(-283.58 -404.63)"/><path id="Path_2259" data-name="Path 2259" class="cls-1" d="M293.41,431.57v0h0l0-.06a.28.28,0,0,0,0-.09,1,1,0,0,0,0-.17,1.21,1.21,0,0,0,0-.19s0-.05,0-.08,0,0,0,0a.08.08,0,0,0,0,0s0,0,0,0l0,.08a0,0,0,0,1,0,0h0s0,0,0,.06a.75.75,0,0,0,0,.21c0,.06,0,.11,0,.17a.2.2,0,0,0,0,.07.09.09,0,0,0,0,.05s0,0,0,0,0,0,.05,0Z" transform="translate(-283.58 -404.63)"/><path id="Path_2260" data-name="Path 2260" class="cls-1" d="M294.8,429.18h0s.09,0,.12,0l.14,0h.15l.07,0,.09,0s.05-.07,0-.09h0l0,0-.07,0h-.16a.42.42,0,0,0-.15,0l-.06,0s0,0,0,0v0h0s0,.08,0,.07Z" transform="translate(-283.58 -404.63)"/><g id="Group_398" data-name="Group 398"><path id="Path_2261" data-name="Path 2261" class="cls-1" d="M283.72,421.77a.09.09,0,0,0,0,0s0,0,0,0l-.05,0a6.85,6.85,0,0,0,.47.89c.16.29.33.59.5.87.34.59.69,1.16,1.06,1.73.72,1.12,1.49,2.21,2.27,3.29s1.5,2,2.25,3c.58.75,1.1,1.54,1.62,2.34.27.42.54.84.83,1.25s.52.72.76,1.08l.16.23s.07-.05.06-.08c-.18-.41-.39-.8-.59-1.2s-.48-.89-.75-1.32c-.53-.83-1.07-1.64-1.65-2.43-.31-.42-.63-.82-.95-1.23s-.8-1-1.19-1.59c-.79-1.07-1.55-2.16-2.3-3.26s-1.49-2.19-2.2-3.31a2.18,2.18,0,0,0-.26-.36s0,0-.06,0a.17.17,0,0,0,0,.24h0s.05-.05,0-.06Z" transform="translate(-283.58 -404.63)"/><path id="Path_2262" data-name="Path 2262" class="cls-1" d="M283.63,421.63a.29.29,0,0,0,.15-.12,2.2,2.2,0,0,0,.17-.25c.12-.18.24-.36.35-.55.35-.58.7-1.15,1.07-1.71.71-1.08,1.48-2.12,2.26-3.15a4.17,4.17,0,0,0,1-1.77s0-.07-.05,0c-.35.43-.63.92-1,1.37s-.73,1-1.08,1.45a34.73,34.73,0,0,0-2.16,3.35l-.43.74-.17.32a.76.76,0,0,1-.12.19s-.06.2,0,.17Z" transform="translate(-283.58 -404.63)"/><path id="Path_2263" data-name="Path 2263" class="cls-1" d="M288.71,414.3s0-.07,0-.09l-.11,0s0,0,0,0l.08.1a3.07,3.07,0,0,0,.25.26,4.34,4.34,0,0,1,.49.64c.16.22.31.46.47.68s.36.49.53.74c.71,1,1.37,2,2.06,3.06s1.3,1.88,2,2.8,1.22,1.65,1.81,2.49c.32.43.62.86.93,1.3l.47.7a4.89,4.89,0,0,0,.52.68l.3.32c.05.06.09-.06.07-.1a8.79,8.79,0,0,0-.43-.87c-.15-.24-.31-.47-.47-.71-.3-.44-.61-.87-.92-1.31L295,422.6c-.65-.89-1.29-1.78-1.92-2.69s-1.36-2-2.05-3l-.53-.75c-.17-.22-.35-.44-.51-.67a5.86,5.86,0,0,0-1-1.21c-.08-.06-.14-.13-.21-.19s-.05,0-.06,0,0,0,0,0a.24.24,0,0,0-.06.11.27.27,0,0,0,.06.17s.06,0,.06-.05Z" transform="translate(-283.58 -404.63)"/><path id="Path_2264" data-name="Path 2264" class="cls-1" d="M298.44,427.77c-.18.28-.35.57-.5.86l-.48.91c-.32.59-.65,1.18-1,1.77s-.67,1.18-1,1.75l-.52.86c-.16.25-.33.5-.48.76s-.29.57-.45.84-.16.26-.25.38a1.27,1.27,0,0,0-.13.19c0,.06-.05.12-.08.19s0,.1,0,.1l.12,0a.29.29,0,0,0,.15-.12,2.62,2.62,0,0,0,.24-.34c.15-.25.28-.51.42-.77.29-.55.65-1.06,1-1.59.72-1.18,1.38-2.39,2-3.61.18-.34.36-.69.53-1a9.15,9.15,0,0,0,.47-1.07c0-.05,0-.09-.06-.05Z" transform="translate(-283.58 -404.63)"/><path id="Path_2265" data-name="Path 2265" class="cls-1" d="M288.54,414.21l.24-.09a1.89,1.89,0,0,1,.34-.09c.23,0,.46-.09.69-.16.67-.19,1.33-.39,2-.6s1.34-.42,2-.61l1-.28a9.32,9.32,0,0,0,.9-.27l.94-.35.49-.14a3,3,0,0,1,.51-.16s.06-.11,0-.12l-.21,0h-.22a1.63,1.63,0,0,0-.44.08c-.29.09-.57.21-.85.31a7.39,7.39,0,0,1-.87.29c-.35.08-.69.18-1,.28-1.36.38-2.71.83-4.08,1.23-.27.08-.55.14-.82.23a1.13,1.13,0,0,0-.65.41s0,.11,0,.08Z" transform="translate(-283.58 -404.63)"/><path id="Path_2266" data-name="Path 2266" class="cls-1" d="M298.6,427.91a8.49,8.49,0,0,1,1.95-.35,8.26,8.26,0,0,0,1-.18l.69-.15c1.15-.24,2.31-.45,3.47-.62l.93-.14a2.71,2.71,0,0,0,.41-.09,2.62,2.62,0,0,1,.4-.11s.08-.14,0-.14a5.43,5.43,0,0,0-.7,0l-.81.11-1.78.29-1.72.33-.73.16c-.3.07-.59.15-.89.19a5.18,5.18,0,0,0-2.21.5.15.15,0,0,0-.06.13s0,.1.06.09Z" transform="translate(-283.58 -404.63)"/><path id="Path_2267" data-name="Path 2267" class="cls-1" d="M297.74,411.41a6.73,6.73,0,0,0,.44.73c.15.25.31.49.46.73l1,1.47c.67,1,1.34,2,2,3s1.35,2.05,2,3.07,1.3,2,1.94,3.05c.14.23.27.46.43.69s.28.4.43.6a8,8,0,0,1,.79,1.28l.15.26s.07,0,.1,0a.22.22,0,0,0,.05-.16,1.13,1.13,0,0,0-.06-.36,2.11,2.11,0,0,0-.16-.34,6.89,6.89,0,0,0-.4-.64c-.29-.42-.61-.82-.87-1.25-.63-1-1.27-2-1.92-3.05s-1.34-2.06-2-3.07-1.34-2-2-3-1.3-1.91-2-2.85a3.65,3.65,0,0,0-.24-.31s-.06,0-.07,0a.14.14,0,0,0,0,.11Z" transform="translate(-283.58 -404.63)"/><path id="Path_2268" data-name="Path 2268" class="cls-1" d="M297.73,411.29a.15.15,0,0,0,0-.06l0,0s0,0,0,.08l-.05.05a2,2,0,0,0,.49-.42c.16-.2.32-.4.46-.61.31-.42.58-.87.88-1.3.63-.93,1.41-1.74,2.09-2.62.2-.26.41-.51.59-.78a6.42,6.42,0,0,0,.47-.9s0-.09,0-.06c-.19.22-.37.44-.54.68l-.56.75c-.38.49-.77,1-1.16,1.45s-.72.88-1,1.35-.6.94-.93,1.39q-.26.35-.54.66l-.14.15a.42.42,0,0,0-.11.18s0,.11.05.12.08,0,.12,0,0-.06,0-.08Z" transform="translate(-283.58 -404.63)"/><path id="Path_2269" data-name="Path 2269" class="cls-1" d="M302.6,404.76a10.73,10.73,0,0,1,.84,1.27c.26.47.5,1,.76,1.43s.51.9.77,1.34l.85,1.46,1.77,3,1.77,3c.3.49.59,1,.9,1.47.14.23.3.46.45.69s.3.45.44.68a4,4,0,0,0,.23.34s.06-.05,0-.08c-.12-.25-.26-.5-.38-.76s-.27-.52-.41-.77c-.28-.51-.55-1-.84-1.51-.59-1-1.19-2-1.79-3l-1.77-3-.87-1.47-.42-.72c-.12-.21-.26-.42-.38-.63-.26-.46-.5-.92-.76-1.38a6.86,6.86,0,0,0-.88-1.25,1.71,1.71,0,0,0-.26-.21c-.05,0-.08.08-.06.11Z" transform="translate(-283.58 -404.63)"/><path id="Path_2270" data-name="Path 2270" class="cls-1" d="M307.43,426.23l.05,0s.06,0,.07,0c.15-.2.3-.4.44-.61s.27-.43.4-.65c.26-.43.52-.87.77-1.31.5-.88,1-1.76,1.49-2.66l.38-.75c.14-.25.27-.51.4-.77,0,0,0-.1-.05,0s-.27.41-.41.61-.14.21-.21.31-.13.21-.2.32c-.26.44-.51.88-.76,1.33-.5.9-1,1.8-1.53,2.68l-.45.77c-.08.13-.15.25-.22.39l-.11.19a.37.37,0,0,0-.05.11.93.93,0,0,1,0,.13s0,.08,0,0Z" transform="translate(-283.58 -404.63)"/><path id="Path_2271" data-name="Path 2271" class="cls-1" d="M291.88,431a15.22,15.22,0,0,1-1.06-1.89,3.35,3.35,0,0,1-.2-.83,1.9,1.9,0,0,1,1.28-1.92,2.12,2.12,0,0,1,1.6.1,3.74,3.74,0,0,1,1.85,2.35,3.83,3.83,0,0,1,.16,1.47c0,.05,0,.11,0,.17v0s0,.07,0,.1,0,.11,0,.17l0,.09s0,0,0,0,0,0,0,0a.87.87,0,0,1-.07.17l0,.08,0,0v0h0a1.75,1.75,0,0,1-.18.29,1.3,1.3,0,0,1-1.35.51,2.6,2.6,0,0,1-1.53-.82L292,431l-.14-.11c-.08-.06-.11.1-.1.14a.9.9,0,0,0,.08.23,1,1,0,0,0,.15.2,3.17,3.17,0,0,0,.34.3,3.14,3.14,0,0,0,.85.45,1.7,1.7,0,0,0,1.69-.25,3.21,3.21,0,0,0,.74-3,4.16,4.16,0,0,0-1.77-2.7,2.36,2.36,0,0,0-1.64-.35,2.16,2.16,0,0,0-1.42,1,2.42,2.42,0,0,0-.28,1.84,5.61,5.61,0,0,0,.93,1.84,3.24,3.24,0,0,0,.37.46s.05-.06,0-.08Z" transform="translate(-283.58 -404.63)"/><path id="Path_2272" data-name="Path 2272" class="cls-1" d="M292.76,426.72v0l0-.05a.39.39,0,0,0,0,.28s0,.1,0,.15,0,.12.08.14l0,0h0v0h0l0,0h0a.05.05,0,0,0,0,0s0,0,0,0a.17.17,0,0,0,0-.07h0v0h0v0a.14.14,0,0,0,0-.06v-.07s0-.06,0-.09,0-.12-.05-.18,0-.12-.08-.12h0s-.05,0-.05,0Z" transform="translate(-283.58 -404.63)"/><path id="Path_2273" data-name="Path 2273" class="cls-1" d="M304.57,414.36l-.47-.21-.55-.24a8.26,8.26,0,0,1-1.15-.58,2.68,2.68,0,0,1-1.42-1.66,2.07,2.07,0,0,1,.18-1.1,1.08,1.08,0,0,1,.79-.66,1.24,1.24,0,0,1,1.06.46,3,3,0,0,1,.59,1.09q.11.29.18.57c.06.23.13.45.18.68.12.51.21,1,.37,1.54a.56.56,0,0,0,.17.26c.05,0,.08-.06.08-.09a.67.67,0,0,0,0-.2c0-.07,0-.14,0-.21s-.08-.26-.11-.4l-.18-.8c-.11-.47-.23-.94-.38-1.4a3.92,3.92,0,0,0-.58-1.2,1.54,1.54,0,0,0-1.08-.66c-1-.07-1.42,1.05-1.47,1.84a1.86,1.86,0,0,0,.29,1.15,3.07,3.07,0,0,0,.88.88,6.66,6.66,0,0,0,2.35,1.06,1.07,1.07,0,0,0,.25,0c.06,0,.11-.12.06-.15Z" transform="translate(-283.58 -404.63)"/><path id="Path_2274" data-name="Path 2274" class="cls-1" d="M301.71,412.23a2.39,2.39,0,0,1-.13-.28l-.09-.3a1.37,1.37,0,0,1,0-.57.67.67,0,0,1,.85-.41,1.09,1.09,0,0,1,.68.65,1.18,1.18,0,0,1,.09.46.37.37,0,0,1,0,.11s0,0,0,0,0,.07,0,0a.54.54,0,0,1-.1.2.58.58,0,0,1-.18.17.8.8,0,0,1-.27.12.45.45,0,0,1-.51-.2.08.08,0,0,0-.09,0h0a.16.16,0,0,0-.08.1c0-.06,0-.09,0,0a.14.14,0,0,0,0,.06.28.28,0,0,0,.07.24.52.52,0,0,0,.29.18.8.8,0,0,0,.62-.14,1.16,1.16,0,0,0,.45-1.18,1.32,1.32,0,0,0-.69-1,.66.66,0,0,0-.27-.09.85.85,0,0,0-.32,0,.91.91,0,0,0-.55.41,1.19,1.19,0,0,0-.11.81,1.07,1.07,0,0,0,.13.38.54.54,0,0,0,.1.16l.12.12s0,0,0,0Z" transform="translate(-283.58 -404.63)"/><path id="Path_2275" data-name="Path 2275" class="cls-1" d="M291.8,425.2l.05-.1a.43.43,0,0,0,0-.11h0s0-.05,0-.08a1.88,1.88,0,0,0-.05-.33c0-.2-.08-.4-.11-.61s-.05-.41-.07-.61-.06-.38-.08-.57,0,0-.05,0a2,2,0,0,0-.12,1.2,6,6,0,0,0,.11.61l.06.27a.5.5,0,0,0,.13.26l0-.05a.2.2,0,0,0,0,.08l0,0a.07.07,0,0,0,.07,0Z" transform="translate(-283.58 -404.63)"/><path id="Path_2276" data-name="Path 2276" class="cls-1" d="M291.74,422.07l0,0,0-.07h0l.06-.17,0-.14c0-.06,0-.11.05-.16s0,0,0,0v0s0,0,0,0l0,0a1.21,1.21,0,0,0,.05-.18.45.45,0,0,0,0-.11s0,0,0,0v0l0-.16s0-.07-.05,0L292,421h0l0,0h0a.27.27,0,0,0-.06.1,2.55,2.55,0,0,0-.14.35,2.29,2.29,0,0,0-.07.36s0,.32.09.26Z" transform="translate(-283.58 -404.63)"/><path id="Path_2277" data-name="Path 2277" class="cls-1" d="M293.23,419.19a.58.58,0,0,0,.33-.14.85.85,0,0,1,.31-.09h.37l.06,0h.05l.11,0,.26-.05s0-.07,0-.09l-.23-.13a.75.75,0,0,0-.2-.1,1,1,0,0,0-.42,0,.83.83,0,0,0-.68.59s0,.06,0,.07Z" transform="translate(-283.58 -404.63)"/><path id="Path_2278" data-name="Path 2278" class="cls-1" d="M295.66,419.11a4.91,4.91,0,0,1,1.11.77l.5.46.24.2a1,1,0,0,0,.24.17s.05-.08,0-.1a1.73,1.73,0,0,0-.19-.28,3,3,0,0,0-.2-.29,3.26,3.26,0,0,0-.51-.54,2.91,2.91,0,0,0-.57-.4,1.07,1.07,0,0,0-.63-.13c-.06,0-.08.12,0,.14Z" transform="translate(-283.58 -404.63)"/><path id="Path_2279" data-name="Path 2279" class="cls-1" d="M298.76,421.75a1.21,1.21,0,0,0,.05.14l.06.1.13.16c.11.11.21.21.33.31a1.66,1.66,0,0,0,.34.25l.2.07.22,0s.06-.07,0-.1-.11-.12-.16-.19l-.14-.16a3.3,3.3,0,0,0-.35-.28l-.33-.25-.17-.11-.09,0h-.1s0,.05,0,.07Z" transform="translate(-283.58 -404.63)"/><path id="Path_2280" data-name="Path 2280" class="cls-1" d="M301.07,422.88h0l0,0a.19.19,0,0,0,0,.08l0,0,.05,0a.44.44,0,0,0,.16.06,1.36,1.36,0,0,0,.35,0l.17,0A.66.66,0,0,0,302,423l.08-.05a.18.18,0,0,1,.07,0,.49.49,0,0,0,.13-.12s0-.08,0-.09H302l-.33,0-.32,0-.16,0-.09,0a.15.15,0,0,0-.06,0l0,0h0a.08.08,0,0,0,0,.11h0Z" transform="translate(-283.58 -404.63)"/><path id="Path_2281" data-name="Path 2281" class="cls-1" d="M303.27,422h0l0,0,0,0a.18.18,0,0,0,.07-.05.82.82,0,0,0,.12-.2.7.7,0,0,0,.08-.2.39.39,0,0,0,0-.26l0,.09a.37.37,0,0,0,0-.18v0a.41.41,0,0,0,0-.11s-.05,0-.06,0a.3.3,0,0,1,0,.1v0l0,.06.06-.07a.39.39,0,0,0-.11.17l-.06.14,0,.06,0,0h0s0,0,0,0a.41.41,0,0,1-.05.09s0,0,0,0l0,.09,0-.07,0,0a.25.25,0,0,0,0,.11l0-.07h0a.19.19,0,0,0,0,.13,0,0,0,0,0,.05,0Z" transform="translate(-283.58 -404.63)"/><path id="Path_2282" data-name="Path 2282" class="cls-1" d="M304.35,419.69a.37.37,0,0,0,.08-.18,1.31,1.31,0,0,0,.06-.27,4.38,4.38,0,0,0,0-.51,2.19,2.19,0,0,0,0-.51,1.45,1.45,0,0,0-.14-.46s-.06,0-.06.05c0,.17,0,.33,0,.5v.49c0,.16,0,.32,0,.47a1,1,0,0,0,0,.24.27.27,0,0,0,0,.18s0,0,0,0Z" transform="translate(-283.58 -404.63)"/><path id="Path_2283" data-name="Path 2283" class="cls-1" d="M304.53,416.67a1.24,1.24,0,0,0,0-.33l0-.32h0s0,0,0,0a.43.43,0,0,1,0-.11.17.17,0,0,1,0-.07v-.06h0a2.85,2.85,0,0,0,0-.29s0-.06-.06,0a1.47,1.47,0,0,0-.14.28s0,0,0,0a.36.36,0,0,0,0,.09l0,.08,0,.2a1.4,1.4,0,0,0,0,.35.48.48,0,0,0,0,.18.19.19,0,0,0,.07.13s.07,0,.08-.06Z" transform="translate(-283.58 -404.63)"/><path id="Path_2284" data-name="Path 2284" class="cls-1" d="M305,414.73h0l0,.06a.08.08,0,0,0,0-.05v0h0l0,0h0l0,0h0l0,0h0v.05h0v.06h0v.06h0l0,.06,0-.08-.26.15v0l0,0,0,0a.08.08,0,0,0,.08,0,.12.12,0,0,0,.08,0,.25.25,0,0,0,0-.07.36.36,0,0,0,0-.09.49.49,0,0,0,0-.12.45.45,0,0,0,0-.11h0l0,0a.11.11,0,0,0-.13-.05h0l-.07.07a.61.61,0,0,0,0,.12.11.11,0,0,1,0,.05v.17l0,0s.06.05,0,0l0,0h.05l0,0h0l0,0h0l0,0,0-.05,0,.05,0-.05a.64.64,0,0,0,0-.07l-.07.13h0a.2.2,0,0,0,0-.08.17.17,0,0,0,0-.1.17.17,0,0,0,0-.15Z" transform="translate(-283.58 -404.63)"/><path id="Path_2285" data-name="Path 2285" class="cls-1" d="M308.83,416.55c.16.23.32.46.47.7l.42.76a5.22,5.22,0,0,0,.92,1.4s0-.05,0-.06c-.3-.5-.6-1-.88-1.5-.14-.24-.27-.49-.43-.73a2.72,2.72,0,0,0-.5-.63s0,0,0,.06Z" transform="translate(-283.58 -404.63)"/><path id="Path_2286" data-name="Path 2286" class="cls-1" d="M308.91,417.39a2.4,2.4,0,0,0,.31.62l.39.61c.26.39.53.77.82,1.14,0,0,0,0,0-.05a7.44,7.44,0,0,0-.75-1.24c-.14-.19-.27-.38-.39-.58l-.19-.29a1.27,1.27,0,0,0-.18-.27s0,0,0,.06Z" transform="translate(-283.58 -404.63)"/><path id="Path_2287" data-name="Path 2287" class="cls-1" d="M308.9,418.2a1.38,1.38,0,0,0,.23.51c.09.17.2.34.3.51l.32.48c.11.16.22.33.34.48s0,0,0,0a4.53,4.53,0,0,0-.57-1.06l-.3-.48c-.05-.08-.11-.17-.15-.25a.86.86,0,0,0-.15-.22s-.06.05-.05.07Z" transform="translate(-283.58 -404.63)"/><path id="Path_2288" data-name="Path 2288" class="cls-1" d="M309.51,420.71c.1-.15.21-.3.3-.46s.19-.33.28-.5a9.85,9.85,0,0,0,.51-1s0-.08,0-.05a4.41,4.41,0,0,0-.6.94c-.09.17-.18.34-.26.52s-.16.36-.25.55c0,0,0,.07,0,0Z" transform="translate(-283.58 -404.63)"/><path id="Path_2289" data-name="Path 2289" class="cls-1" d="M309.42,419.89a2,2,0,0,0,.26-.32l.25-.34a3.3,3.3,0,0,0,.42-.73s0-.09,0-.05a7.84,7.84,0,0,0-.5.64,3.14,3.14,0,0,0-.44.75s0,.07,0,.05Z" transform="translate(-283.58 -404.63)"/><path id="Path_2290" data-name="Path 2290" class="cls-1" d="M289.59,414.41a4.55,4.55,0,0,0,.43.62l.44.59c.14.2.29.4.44.59s.31.35.46.52c0,0,.05,0,0-.06-.14-.2-.27-.41-.42-.62l-.44-.59-.45-.58a2.52,2.52,0,0,0-.46-.52s0,0,0,.05Z" transform="translate(-283.58 -404.63)"/><path id="Path_2291" data-name="Path 2291" class="cls-1" d="M290,414.37l.18.22.16.21a1.49,1.49,0,0,0,.37.38s0-.05,0-.07a4.84,4.84,0,0,0-.33-.46l-.17-.19-.09-.08-.12-.08s-.05.05,0,.07Z" transform="translate(-283.58 -404.63)"/><path id="Path_2292" data-name="Path 2292" class="cls-1" d="M291.61,417.13a.39.39,0,0,0,.06.11.71.71,0,0,0,.07.09l.12.18.12.17.16.13s0,0,0-.05-.07-.15-.11-.22l-.12-.17c0-.06-.09-.11-.13-.16l-.08-.08,0,0-.05,0s-.05,0,0,.06Z" transform="translate(-283.58 -404.63)"/><path id="Path_2293" data-name="Path 2293" class="cls-1" d="M289.75,414.92l.25-.05.26-.06a1.4,1.4,0,0,0,.28-.06.8.8,0,0,0,.26-.09s0-.07,0-.08a.57.57,0,0,0-.26,0,1.26,1.26,0,0,0-.28.05l-.26.08a.74.74,0,0,0-.25.17s0,.07,0,.07Z" transform="translate(-283.58 -404.63)"/><path id="Path_2294" data-name="Path 2294" class="cls-1" d="M284.65,421.56c.14.2.3.39.45.58s.3.4.45.61c.28.41.53.85.79,1.27a7.49,7.49,0,0,0,.45.65s.06,0,0-.05a11.38,11.38,0,0,0-.72-1.33,10.51,10.51,0,0,0-.87-1.23,2.52,2.52,0,0,0-.57-.56s0,.05,0,.06Z" transform="translate(-283.58 -404.63)"/><path id="Path_2295" data-name="Path 2295" class="cls-1" d="M285,420.9a4.38,4.38,0,0,0,.28.42l.29.42a2.34,2.34,0,0,0,.61.72s0,0,0-.06a9.43,9.43,0,0,0-.56-.84c-.1-.13-.19-.27-.29-.39a1.15,1.15,0,0,0-.32-.34s-.05.05,0,.07Z" transform="translate(-283.58 -404.63)"/><path id="Path_2296" data-name="Path 2296" class="cls-1" d="M285.2,420.39a2.92,2.92,0,0,0,.24.37,4,4,0,0,1,.23.34,2.66,2.66,0,0,0,.5.6s.05-.05,0-.06c-.15-.25-.29-.5-.45-.74a3,3,0,0,0-.25-.34.72.72,0,0,0-.27-.25s-.05.06,0,.08Z" transform="translate(-283.58 -404.63)"/><path id="Path_2297" data-name="Path 2297" class="cls-1" d="M284.67,422.3a4.41,4.41,0,0,0,.35-.53l.38-.6a5.14,5.14,0,0,0,.62-1.24s0-.07,0,0c-.24.39-.45.79-.69,1.18-.11.2-.23.4-.35.6a3.32,3.32,0,0,0-.29.6s0,0,0,0Z" transform="translate(-283.58 -404.63)"/><path id="Path_2298" data-name="Path 2298" class="cls-1" d="M285.1,422.59a1.77,1.77,0,0,0,.16-.22l.15-.27c.06-.09.1-.19.15-.28s.1-.2.14-.3,0-.07,0,0l-.18.24-.16.26-.15.28a1.48,1.48,0,0,0-.12.29s0,.08,0,0Z" transform="translate(-283.58 -404.63)"/><path id="Path_2299" data-name="Path 2299" class="cls-1" d="M304.91,423.77a2.09,2.09,0,0,0,.14.17,1.24,1.24,0,0,1,.14.18c.11.14.2.3.3.45a6.79,6.79,0,0,0,.54.85s.05,0,0-.06c-.15-.32-.32-.64-.5-.95a2.77,2.77,0,0,0-.31-.45.75.75,0,0,0-.15-.16.29.29,0,0,0-.16-.11s-.05.06,0,.08Z" transform="translate(-283.58 -404.63)"/><path id="Path_2300" data-name="Path 2300" class="cls-1" d="M305,424.59a2,2,0,0,0,.19.31l.2.3a5.87,5.87,0,0,0,.39.58s0,0,0,0a3,3,0,0,0-.33-.67,3.46,3.46,0,0,0-.22-.31.73.73,0,0,0-.22-.24s0,.05,0,.07Z" transform="translate(-283.58 -404.63)"/><path id="Path_2301" data-name="Path 2301" class="cls-1" d="M305,425.48a.3.3,0,0,1,.11,0l.14,0,.31-.05c.19,0,.39-.07.58-.11,0,0,.05-.07,0-.08a1.05,1.05,0,0,0-.61-.06,1.21,1.21,0,0,0-.32.11.61.61,0,0,0-.24.21s0,.07,0,.05Z" transform="translate(-283.58 -404.63)"/></g></g></svg>