<svg id="Layer_1" data-name="Layer 1" xmlns="http://www.w3.org/2000/svg" viewBox="0 0 19.91 27.26"><defs><style>.cls-1{fill:#1b2a58;}</style></defs><g id="Group_409" data-name="Group 409"><path id="Path_2310" data-name="Path 2310" class="cls-1" d="M290.53,427.9a11.29,11.29,0,0,0-.19-1.28c-.11-.66-.22-1.32-.32-2-.13-.83-.24-1.67-.31-2.51a27.15,27.15,0,0,1-.11-2.85,20.94,20.94,0,0,1,.26-3.06,16.09,16.09,0,0,1,.79-3.05,12.93,12.93,0,0,1,1.5-2.88,7.8,7.8,0,0,1,2.28-2.26,6.91,6.91,0,0,1,2.75-.93,8.76,8.76,0,0,1,2.93.2,10.8,10.8,0,0,1,2.78,1.12,10.23,10.23,0,0,1,2.41,1.93,7,7,0,0,1,1.54,2.7,7.48,7.48,0,0,1,.26,2.94,9,9,0,0,1-.87,2.91,10.51,10.51,0,0,1-1.81,2.61,19.43,19.43,0,0,1-3.07,2.58,30.83,30.83,0,0,1-3.36,2q-1.5.79-3.06,1.47c-.74.33-1.5.63-2.24,1-.2.09-.43.22-.6.31s0,.09.08.06a6.22,6.22,0,0,1,.71-.29l1.05-.43c.94-.4,1.87-.81,2.79-1.25,1.14-.55,2.26-1.15,3.35-1.81a25.59,25.59,0,0,0,3.31-2.37,13,13,0,0,0,2.41-2.62,10.08,10.08,0,0,0,1.33-2.86,8.14,8.14,0,0,0,.27-3,7.16,7.16,0,0,0-.95-2.87,8.46,8.46,0,0,0-2.19-2.39,10.68,10.68,0,0,0-2.63-1.49,10,10,0,0,0-3-.67,7.75,7.75,0,0,0-3,.35,6.83,6.83,0,0,0-2.64,1.57,10.71,10.71,0,0,0-2,2.7,14.9,14.9,0,0,0-1.17,3,19.37,19.37,0,0,0-.53,3.12,23.58,23.58,0,0,0-.07,3c0,.92.11,1.83.22,2.75.1.77.22,1.54.36,2.3q.15.84.33,1.68a4.34,4.34,0,0,1,.09.52c0,.08.21.05.2,0Z" transform="translate(-287.52 -406.88)"/><path id="Path_2311" data-name="Path 2311" class="cls-1" d="M290.41,428a1,1,0,0,0,.28.2l.38.18a5.83,5.83,0,0,1,.74.39l.14.11a.24.24,0,0,0,.17.07c.05,0,.06-.05,0-.09a.49.49,0,0,0-.13-.12,5.07,5.07,0,0,0-.72-.4l-.45-.21a2,2,0,0,0-.4-.16s-.07,0,0,0Z" transform="translate(-287.52 -406.88)"/><path id="Path_2312" data-name="Path 2312" class="cls-1" d="M288.49,430.17l-.14.15-.12.16a2.85,2.85,0,0,0-.23.37,4.17,4.17,0,0,0-.36.84,2.53,2.53,0,0,0-.12.83,1.89,1.89,0,0,0,.19.81,1.48,1.48,0,0,0,.49.56,1.54,1.54,0,0,0,.7.24,2.08,2.08,0,0,0,1.48-.47A2.51,2.51,0,0,0,291,433a5.12,5.12,0,0,0,.27-.52l.13-.26.12-.27a1.07,1.07,0,0,0,0-.25s0,0,0,0a1.43,1.43,0,0,0-.2.23l-.12.26c-.07.17-.15.34-.23.51a3.31,3.31,0,0,1-.54.8,2,2,0,0,1-.62.42.44.44,0,0,1-.16.06l-.17.05h-.07l-.09,0h-.16a1.26,1.26,0,0,1-.63-.14,1.35,1.35,0,0,1-.49-.46,2.07,2.07,0,0,1-.19-1.54,5,5,0,0,1,.28-.82,4.9,4.9,0,0,1,.39-.71l.09-.14s0,0,0,0a.07.07,0,0,0-.06,0Z" transform="translate(-287.52 -406.88)"/><path id="Path_2313" data-name="Path 2313" class="cls-1" d="M288.45,430.15a.88.88,0,0,0,.24.19l.28.16.58.3c.4.2.8.4,1.19.62l.28.16.14.09a.38.38,0,0,0,.17.08c.05,0,.12,0,.12-.07s-.07-.09-.1-.11l-.29-.18c-.38-.23-.78-.42-1.18-.62l-.68-.33-.31-.18a1.58,1.58,0,0,0-.35-.16s-.11,0-.09,0Z" transform="translate(-287.52 -406.88)"/><path id="Path_2314" data-name="Path 2314" class="cls-1" d="M290.46,428a.65.65,0,0,0-.37.26,4.16,4.16,0,0,0-.32.39c-.29.38-.61.75-.92,1.12-.11.12-.21.24-.31.37a.83.83,0,0,0-.13.18.88.88,0,0,0-.09.2s0,0,.05,0l.17-.14.16-.16.27-.33.53-.63.43-.53.28-.36a1.56,1.56,0,0,1,.16-.2l.09-.07,0,0h0s0,0,0-.06-.06,0-.09,0Z" transform="translate(-287.52 -406.88)"/><path id="Path_2315" data-name="Path 2315" class="cls-1" d="M292.14,428.8c-.12.42-.26.84-.4,1.25-.07.21-.15.42-.2.64a3.59,3.59,0,0,0-.08.35,3.38,3.38,0,0,0-.08.34l-.09.38c0,.06,0,.13,0,.19a1.21,1.21,0,0,0,0,.19s0,0,.05,0a.6.6,0,0,0,.09-.15.6.6,0,0,0,.06-.19c0-.11.05-.22.07-.33s.08-.46.14-.69c.1-.44.27-.86.4-1.29a3.88,3.88,0,0,0,.18-.69c0-.05-.1-.05-.11,0Z" transform="translate(-287.52 -406.88)"/><path id="Path_2316" data-name="Path 2316" class="cls-1" d="M290.76,428.17c-.24.32-.52.6-.79.9a5.9,5.9,0,0,0-.39.46l-.34.5a2.48,2.48,0,0,1-.19.26,1.34,1.34,0,0,1-.11.14l0,.06,0,.07s.05,0,.07,0l.14-.08.11-.12.18-.25c.11-.16.2-.33.31-.5a8.34,8.34,0,0,1,.77-.92,3.42,3.42,0,0,0,.4-.52s-.07,0-.09,0Z" transform="translate(-287.52 -406.88)"/><path id="Path_2317" data-name="Path 2317" class="cls-1" d="M291.85,428.69a1.83,1.83,0,0,0-.26.5c-.08.17-.15.35-.22.54l-.21.54a4.83,4.83,0,0,1-.23.52l-.15.29s0,.09-.08.14a.2.2,0,0,0-.06.13s.08,0,.1,0a.55.55,0,0,0,.17-.23c0-.08.09-.17.13-.25s.15-.35.22-.53c.14-.35.25-.72.4-1.08,0-.09.08-.19.13-.29s.09-.18.13-.28-.05,0-.07,0Z" transform="translate(-287.52 -406.88)"/><path id="Path_2318" data-name="Path 2318" class="cls-1" d="M291.2,428.47l-.12.23a2.56,2.56,0,0,0-.11.24c-.09.17-.17.33-.26.48-.19.33-.39.65-.58,1s-.23.35-.33.53.11.08.14,0,.19-.31.29-.47.2-.32.29-.49a10.44,10.44,0,0,0,.55-1c.05-.09.09-.19.13-.28a.79.79,0,0,0,.08-.26s-.07,0-.08,0Z" transform="translate(-287.52 -406.88)"/><path id="Path_2319" data-name="Path 2319" class="cls-1" d="M290.66,432.34a.87.87,0,0,0-.16.17l-.14.17a3.11,3.11,0,0,1-.31.32,2,2,0,0,1-.73.45l-.23.07-.13,0-.13,0s0,0,0,0a.65.65,0,0,0,.24,0l.24-.06a1.33,1.33,0,0,0,.42-.19,2.6,2.6,0,0,0,.68-.6l.17-.21.07-.11a.31.31,0,0,0,.05-.1Z" transform="translate(-287.52 -406.88)"/><path id="Path_2320" data-name="Path 2320" class="cls-1" d="M289.94,432.57a2.73,2.73,0,0,1-.25.23,1.3,1.3,0,0,1-.31.16,2.78,2.78,0,0,1-.7.12s0,0,0,0a1.29,1.29,0,0,0,.75-.08,1.74,1.74,0,0,0,.33-.18.67.67,0,0,0,.24-.26s-.05,0-.06,0Z" transform="translate(-287.52 -406.88)"/><path id="Path_2321" data-name="Path 2321" class="cls-1" d="M289,432.69a.19.19,0,0,1,0,.07v.06a.66.66,0,0,0,0,.14c0,.09.05.19.08.28a2.81,2.81,0,0,0,.27.55,0,0,0,0,0,0,0,1.78,1.78,0,0,0-.18-.55,1.33,1.33,0,0,1-.1-.28.5.5,0,0,1,0-.13.13.13,0,0,1,0-.06.17.17,0,0,1,0-.07s-.05,0-.05,0Z" transform="translate(-287.52 -406.88)"/><path id="Path_2322" data-name="Path 2322" class="cls-1" d="M289.47,432.76a1.47,1.47,0,0,0,.42.77s0,0,0,0a2,2,0,0,1-.11-.2,1.74,1.74,0,0,1-.1-.19c-.06-.13-.12-.26-.19-.38s0,0,0,0Z" transform="translate(-287.52 -406.88)"/><path id="Path_2323" data-name="Path 2323" class="cls-1" d="M288.64,431a2.22,2.22,0,0,0-.21.37,1.9,1.9,0,0,0-.14.4h0c.07-.12.14-.25.2-.38s.13-.25.19-.38-.07,0-.08,0Z" transform="translate(-287.52 -406.88)"/><path id="Path_2324" data-name="Path 2324" class="cls-1" d="M288.93,431.19h0s-.06,0-.08.06l-.05.09a.29.29,0,0,0,0,.09.09.09,0,0,0,0,.05v0h0a.05.05,0,0,0,0,0l0,0,.06-.09a.84.84,0,0,0,.06-.14,0,0,0,0,0,0,0h0s0,0,0,0h0s0,0,0,0Z" transform="translate(-287.52 -406.88)"/><path id="Path_2325" data-name="Path 2325" class="cls-1" d="M288.45,431.13l.13.05.15.07a1.21,1.21,0,0,0,.32.11s0,0,0,0l-.29-.15-.16-.06-.16,0s0,0,0,0Z" transform="translate(-287.52 -406.88)"/><path id="Path_2326" data-name="Path 2326" class="cls-1" d="M300.29,407.19a6.31,6.31,0,0,0-4.37,1,8.66,8.66,0,0,0-2.36,2.54,19.9,19.9,0,0,0-2.1,4.39,25.17,25.17,0,0,0-1.23,9c.06,1.06.16,2.12.24,3.19,0,.25,0,.5.06.75,0,.07.18.06.19,0a3.57,3.57,0,0,0,0-.73l-.06-.79c0-.52-.09-1.05-.12-1.57a24.53,24.53,0,0,1-.07-3.09,25.88,25.88,0,0,1,.95-5.87,21.22,21.22,0,0,1,1-2.76c.33-.72.71-1.41,1.1-2.1a9.1,9.1,0,0,1,2-2.49,6.09,6.09,0,0,1,1.73-1,6.19,6.19,0,0,1,2.29-.41l.68,0s.1-.06,0-.06Z" transform="translate(-287.52 -406.88)"/><path id="Path_2327" data-name="Path 2327" class="cls-1" d="M306.3,411.45a9.6,9.6,0,0,1-.32,4.09,11.75,11.75,0,0,1-2,3.64,26.42,26.42,0,0,1-3.47,3.85,35.17,35.17,0,0,1-4,2.9c-1.34.87-2.72,1.67-4.06,2.53a3.65,3.65,0,0,0-.45.32c-.09.07.08.1.13.08.34-.18.65-.39,1-.6l1-.63c.69-.43,1.39-.85,2.07-1.29a40.08,40.08,0,0,0,4.08-2.89,23.08,23.08,0,0,0,3.52-3.74,18,18,0,0,0,1.29-1.85A11.5,11.5,0,0,0,306,416a8.93,8.93,0,0,0,.46-4c0-.17-.06-.35-.1-.53,0,0-.06,0-.06,0Z" transform="translate(-287.52 -406.88)"/><path id="Path_2328" data-name="Path 2328" class="cls-1" d="M304.18,409.16a1.61,1.61,0,0,1,.28,1.31A6.27,6.27,0,0,1,304,412a15,15,0,0,1-.79,1.67,20.47,20.47,0,0,1-1.36,2.11c-1,1.43-2.12,2.81-3.25,4.17s-2.32,2.73-3.51,4.07-2.29,2.54-3.32,3.9c-.13.18-.26.35-.38.53s.16.12.22,0c.53-.68,1.05-1.37,1.61-2s1.14-1.31,1.71-2c1.2-1.36,2.4-2.72,3.56-4.11s2.25-2.77,3.29-4.23a21.59,21.59,0,0,0,2.27-3.93,8.39,8.39,0,0,0,.5-1.46,2,2,0,0,0-.09-1.38,1.21,1.21,0,0,0-.21-.24s-.1,0-.08,0Z" transform="translate(-287.52 -406.88)"/><path id="Path_2329" data-name="Path 2329" class="cls-1" d="M301.79,407.72c-.13.11-.3.09-.46.15a2.42,2.42,0,0,0-.49.23,4.94,4.94,0,0,0-.84.6,10.94,10.94,0,0,0-1.49,1.7,26.8,26.8,0,0,0-2.41,4.06c-.71,1.44-1.33,2.92-1.91,4.41s-1.13,3-1.69,4.47c-.27.71-.48,1.44-.68,2.18a20.84,20.84,0,0,1-.69,2.16c-.07.17-.14.33-.2.5s.12.05.15,0a4.43,4.43,0,0,0,.45-1c.13-.36.24-.73.35-1.1.2-.72.38-1.45.62-2.17s.55-1.47.83-2.21.55-1.49.84-2.24c.57-1.48,1.17-2.95,1.85-4.38a29.38,29.38,0,0,1,2.33-4.17,12.52,12.52,0,0,1,1.44-1.82,7.66,7.66,0,0,1,.8-.71,2.73,2.73,0,0,1,1-.49.56.56,0,0,0,.33-.17c0-.05-.06-.05-.09,0Z" transform="translate(-287.52 -406.88)"/><path id="Path_2330" data-name="Path 2330" class="cls-1" d="M300.2,408.12a1.05,1.05,0,0,0-.11.07l-.11.09-.2.18-.42.4a7.58,7.58,0,0,0-.79.91c-.06.09-.13.18-.19.28a.84.84,0,0,0-.13.27s0,0,0,0l.17-.24c.05-.09.11-.16.16-.24a5.71,5.71,0,0,1,.38-.48,9.38,9.38,0,0,1,.82-.85l.22-.2.11-.09.09-.1s0,0,0,0Z" transform="translate(-287.52 -406.88)"/><path id="Path_2331" data-name="Path 2331" class="cls-1" d="M299.4,408.43c-.18.18-.35.38-.52.57a3.67,3.67,0,0,0-.5.62s0,0,0,0c.18-.19.36-.4.54-.6a4.65,4.65,0,0,0,.49-.59s0,0-.05,0Z" transform="translate(-287.52 -406.88)"/><path id="Path_2332" data-name="Path 2332" class="cls-1" d="M298.83,408.65a1.31,1.31,0,0,0-.36.3,1.93,1.93,0,0,0-.28.36s0,0,0,0l.32-.33.16-.16.16-.16s0,0,0,0Z" transform="translate(-287.52 -406.88)"/><path id="Path_2333" data-name="Path 2333" class="cls-1" d="M298.3,408.94l.07,0,.08,0,.15.06.16.06.18.06s0,0,0,0a.71.71,0,0,0-.14-.1l-.16-.06-.15-.05-.09,0-.09,0s-.05,0,0,0Z" transform="translate(-287.52 -406.88)"/><path id="Path_2334" data-name="Path 2334" class="cls-1" d="M299.14,408.49h0l0,0h0l.1,0a.86.86,0,0,0,.23.05s0,0,0,0l0,0-.05,0-.1,0-.1,0h-.05s0,0,0,0,0,0,0,0Z" transform="translate(-287.52 -406.88)"/><path id="Path_2335" data-name="Path 2335" class="cls-1" d="M291.7,416.53a12.91,12.91,0,0,0-.41,1.34c-.12.45-.22.9-.31,1.36a4.91,4.91,0,0,0-.1.77s0,0,0,0c.11-.45.19-.92.29-1.38s.22-.88.34-1.32c.07-.26.14-.51.2-.77Z" transform="translate(-287.52 -406.88)"/><path id="Path_2336" data-name="Path 2336" class="cls-1" d="M291.79,417.07a1.21,1.21,0,0,0-.16.41c0,.15-.07.3-.1.45s0,.3-.07.46,0,.14,0,.22a1.23,1.23,0,0,0,0,.2s0,0,0,0a.83.83,0,0,0,.06-.21c0-.07,0-.14.05-.22s0-.3.07-.44.05-.3.08-.45.09-.27.11-.42Z" transform="translate(-287.52 -406.88)"/><path id="Path_2337" data-name="Path 2337" class="cls-1" d="M291.94,417.37c-.08.24-.13.5-.2.74a5.1,5.1,0,0,0-.15.76s0,0,0,0c.08-.25.15-.51.21-.77a3.14,3.14,0,0,0,.15-.74s0,0,0,0Z" transform="translate(-287.52 -406.88)"/><path id="Path_2338" data-name="Path 2338" class="cls-1" d="M291.29,417.81l.3.08.33.09s.05,0,0,0a.91.91,0,0,0-.31-.12l-.33-.06s-.06,0,0,0Z" transform="translate(-287.52 -406.88)"/><path id="Path_2339" data-name="Path 2339" class="cls-1" d="M291.51,418.22h.71s0,0,0,0l-.16,0h-.39l-.18,0s0,0,0,0Z" transform="translate(-287.52 -406.88)"/><path id="Path_2340" data-name="Path 2340" class="cls-1" d="M303.31,419.58a13.91,13.91,0,0,1-1.05,1.12c-.37.35-.75.68-1.13,1-.22.19-.43.37-.63.57,0,0,0,0,0,0,.41-.31.8-.66,1.18-1s.74-.67,1.09-1c.19-.21.38-.43.55-.66,0,0,0,0,0,0Z" transform="translate(-287.52 -406.88)"/><path id="Path_2341" data-name="Path 2341" class="cls-1" d="M302.36,420.16c-.2.2-.38.42-.59.61s-.41.37-.62.55c0,0,0,0,0,0a5,5,0,0,0,.67-.54,4.11,4.11,0,0,0,.29-.3,1.85,1.85,0,0,0,.25-.32s0,0,0,0Z" transform="translate(-287.52 -406.88)"/><path id="Path_2342" data-name="Path 2342" class="cls-1" d="M301.83,420.3l-.08.08-.06.06-.14.13-.27.25s0,0,0,0a1.59,1.59,0,0,0,.33-.25.8.8,0,0,0,.13-.13l.06-.08a.56.56,0,0,0,.05-.08Z" transform="translate(-287.52 -406.88)"/><path id="Path_2343" data-name="Path 2343" class="cls-1" d="M301.2,420.47a1.63,1.63,0,0,0,.17.2l.23.2a3.64,3.64,0,0,0,.48.4s.05,0,0,0a1.68,1.68,0,0,0-.42-.42l-.46-.39s-.06,0,0,0Z" transform="translate(-287.52 -406.88)"/><path id="Path_2344" data-name="Path 2344" class="cls-1" d="M301.82,420.39s0,0,.07.05l.07.06.13.1.15.1.13.09s0,0,0,0l-.1-.11-.13-.11-.14-.1-.07,0-.1,0s-.05,0,0,0Z" transform="translate(-287.52 -406.88)"/><path id="Path_2345" data-name="Path 2345" class="cls-1" d="M299.24,416l.25.1a1,1,0,0,0,.34.08s0,0,0,0l-.15-.06-.16-.05a1.64,1.64,0,0,0-.28-.07s-.05,0,0,0Z" transform="translate(-287.52 -406.88)"/><path id="Path_2346" data-name="Path 2346" class="cls-1" d="M299.84,415.37l-.09.13-.06.12c0,.09-.09.18-.12.27l-.12.27-.11.27h0a1.2,1.2,0,0,0,.15-.24,1.69,1.69,0,0,0,.12-.28l.12-.26s0-.09.05-.14l.06-.13s0,0,0,0Z" transform="translate(-287.52 -406.88)"/><path id="Path_2347" data-name="Path 2347" class="cls-1" d="M299.42,415.54a2,2,0,0,1-.1.26,1.43,1.43,0,0,0-.09.27s0,0,0,0,.1-.19.14-.28a.6.6,0,0,0,.06-.27s0,0,0,0Z" transform="translate(-287.52 -406.88)"/><path id="Path_2348" data-name="Path 2348" class="cls-1" d="M293.36,409.12l-.52.69a3.83,3.83,0,0,0-.46.72s0,0,0,0l.51-.72c.17-.23.35-.45.5-.69,0,0-.05,0-.07,0Z" transform="translate(-287.52 -406.88)"/><path id="Path_2349" data-name="Path 2349" class="cls-1" d="M293.15,409.56a2.2,2.2,0,0,0-.21.32.51.51,0,0,0-.09.16.46.46,0,0,0-.07.16s0,0,0,0a1.36,1.36,0,0,0,.21-.32,2,2,0,0,0,.18-.32S293.16,409.54,293.15,409.56Z" transform="translate(-287.52 -406.88)"/><path id="Path_2350" data-name="Path 2350" class="cls-1" d="M292.73,409.81l.2.09a1.13,1.13,0,0,0,.24.08h0a1.51,1.51,0,0,0-.22-.11.74.74,0,0,0-.21-.07s0,0,0,0,0,0,0,0h0Z" transform="translate(-287.52 -406.88)"/></g></svg>