<svg id="Layer_1" data-name="Layer 1" xmlns="http://www.w3.org/2000/svg" viewBox="0 0 31.1 28.19"><defs><style>.cls-1{fill:#1b2a58;}</style></defs><g id="Group_408" data-name="Group 408"><path id="Path_2163" data-name="Path 2163" class="cls-1" d="M282.13,423.41a14.43,14.43,0,0,1,.21-1.59c.09-.53.2-1.07.3-1.6s.18-.79.27-1.19c.3-1.25.6-2.51.92-3.76.39-1.53.82-3.07,1.33-4.57.23-.66.47-1.31.75-1.94a6.35,6.35,0,0,1,.77-1.37A1.93,1.93,0,0,1,287,407a.48.48,0,0,1,.16-.08.45.45,0,0,1,.16,0,1.2,1.2,0,0,1,.33.13l1,.5,1.9.88c1.23.55,2.44,1.12,3.66,1.67s2.72,1.19,4.07,1.81c.67.3,1.34.61,2,.94s1.22.64,1.83,1c.84.45,1.71.84,2.57,1.25a7.37,7.37,0,0,1,1.58.87,1.61,1.61,0,0,1,.61,1.06,4.84,4.84,0,0,1-.26,1.89c-.06.22-.13.44-.19.65s-.19.69-.28,1c-.18.72-.37,1.44-.58,2.15-.43,1.48-.88,3-1.33,4.44s-.85,2.89-1.29,4.33c-.11.34-.21.68-.29,1s-.14.7-.21,1.05c0,.07.11,0,.12,0a9.15,9.15,0,0,1,.34-1.13c.12-.36.25-.73.36-1.1.24-.71.43-1.44.65-2.16l1.31-4.49c.43-1.47.85-2.94,1.23-4.42.08-.32.16-.63.25-.94l.18-.63a9.46,9.46,0,0,0,.21-1.06,2.13,2.13,0,0,0-.23-1.4,3,3,0,0,0-1.15-.91c-.68-.36-1.4-.66-2.1-1-1.13-.54-2.22-1.17-3.35-1.72-1.35-.66-2.72-1.26-4.1-1.86s-2.63-1.19-3.95-1.79-2.51-1.11-3.75-1.71L288,407a2.74,2.74,0,0,0-.42-.21.44.44,0,0,0-.2,0,.87.87,0,0,0-.44.16,2.94,2.94,0,0,0-.81,1,12,12,0,0,0-.77,1.67,42.82,42.82,0,0,0-1.42,4.51c-.38,1.4-.71,2.8-1,4.21-.28,1.19-.53,2.39-.71,3.6a12.89,12.89,0,0,0-.16,1.51c0,.05.08,0,.08,0Z" transform="translate(-281.94 -406.41)"/><path id="Path_2164" data-name="Path 2164" class="cls-1" d="M302.5,433.56c-.16.23-.37.52-.68.54a2.08,2.08,0,0,1-.88-.25,27.69,27.69,0,0,1-2.52-1.21c-.82-.43-1.64-.88-2.49-1.29s-1.73-.82-2.58-1.25q-2.6-1.31-5.08-2.77c-.82-.48-1.64-1-2.44-1.5-.19-.12-.37-.25-.57-.36l-.6-.34c-.49-.27-1-.55-1.45-.85a6.51,6.51,0,0,1-.6-.43,1.29,1.29,0,0,1-.34-.36.14.14,0,0,1,0-.06,0,0,0,0,0,0,0v0c0-.08-.07-.09-.13-.08a.24.24,0,0,0-.18.16.53.53,0,0,0,.16.38,2.73,2.73,0,0,0,.48.41,15.2,15.2,0,0,0,1.45.89c.41.23.83.45,1.23.7.76.46,1.5.94,2.27,1.4,1.71,1,3.47,2,5.25,2.86.88.44,1.77.88,2.67,1.3s1.7.86,2.55,1.31,1.7.89,2.59,1.26a3.31,3.31,0,0,0,1,.32.93.93,0,0,0,.69-.27,1.77,1.77,0,0,0,.31-.46c0-.06-.08,0-.1,0Z" transform="translate(-281.94 -406.41)"/><path id="Path_2165" data-name="Path 2165" class="cls-1" d="M312.92,417.23l0,.5c0,.18,0,.36,0,.53-.05.37-.11.74-.19,1.11a24,24,0,0,1-.6,2.36c-.22.7-.45,1.4-.68,2.09-.28.87-.54,1.74-.8,2.62-.56,1.9-1.09,3.81-1.69,5.7-.1.32-.21.64-.34.95a1.57,1.57,0,0,1-.52.67,2.32,2.32,0,0,1-.82.22l-1,.15c-.76.09-1.51.15-2.28.17a10,10,0,0,1-1.09,0c-.32,0-.64-.07-1-.12l-.21,0-.22,0c-.06,0-.18.08-.11.11l.15.11.21.08a2.28,2.28,0,0,0,.45.11,7.87,7.87,0,0,0,1.08.09,18,18,0,0,0,2.32-.12c.69-.07,1.37-.16,2-.29a1.71,1.71,0,0,0,.93-.55,2.85,2.85,0,0,0,.48-.87c.12-.32.21-.65.32-1,.17-.49.31-1,.46-1.48.3-1,.58-2,.87-3s.57-2,.89-3c.22-.68.45-1.35.66-2s.46-1.56.62-2.36a9.28,9.28,0,0,0,.23-2.23,2.12,2.12,0,0,0-.07-.45s-.06,0-.06,0Z" transform="translate(-281.94 -406.41)"/><path id="Path_2166" data-name="Path 2166" class="cls-1" d="M297.53,408.43c-.43-.17-.87-.35-1.31-.51l-.67-.26-.7-.23c-.91-.26-1.84-.43-2.77-.64-.54-.12-1.08-.21-1.63-.28a11,11,0,0,0-1.9-.1,4.61,4.61,0,0,0-.83.12,1.51,1.51,0,0,0-.66.32l-.05,0,0,0,0,0s-.06.08,0,.1.1,0,.13,0h0l0,0,0,0s0,0,0,0a.52.52,0,0,1,.13-.06l.14-.07h.05l.08,0a3.1,3.1,0,0,1,.74-.13,10.19,10.19,0,0,1,1.83.07,15.33,15.33,0,0,1,1.65.27l1.17.26c.47.1.93.2,1.39.32a12.64,12.64,0,0,1,1.36.43l1.27.5.34.14a.19.19,0,0,0,.2-.06s.09-.13,0-.16Z" transform="translate(-281.94 -406.41)"/><path id="Path_2167" data-name="Path 2167" class="cls-1" d="M313,417.22a1.28,1.28,0,0,0-.05-.75,1.42,1.42,0,0,0-.08-.18l-.09-.18a2.24,2.24,0,0,0-.27-.34,6.25,6.25,0,0,0-1.58-1.22,18,18,0,0,0-1.68-.89c-.79-.38-1.58-.78-2.37-1.15-1-.49-2.07-1-3.11-1.44l-.39-.17a.21.21,0,0,0-.2.05s-.09.13,0,.16c1.05.46,2.09.93,3.13,1.41.86.4,1.72.82,2.57,1.24.55.26,1.1.52,1.64.81a8.6,8.6,0,0,1,1.67,1.13c.11.1.21.21.31.32l.13.17.12.16a1.34,1.34,0,0,1,.22.7,1.37,1.37,0,0,1,0,.19s.07,0,.07,0Z" transform="translate(-281.94 -406.41)"/><path id="Path_2168" data-name="Path 2168" class="cls-1" d="M312.94,417.84a.46.46,0,0,0,0-.49.93.93,0,0,0-.44-.31,4.61,4.61,0,0,0-1.28-.25l-.64-.1-1.15-.21a7.72,7.72,0,0,0-1.18-.09,1.34,1.34,0,0,0-.9.28,1.49,1.49,0,0,0-.39.73,2.24,2.24,0,0,0-.07.44c0,.15,0,.31,0,.45a1.5,1.5,0,0,1,0,.22s.06,0,.07,0,.07-.29.11-.44.08-.29.11-.44a2.13,2.13,0,0,1,.24-.75.66.66,0,0,1,.23-.21,1.15,1.15,0,0,1,.41-.08,6.21,6.21,0,0,1,1.14,0c.63.07,1.24.23,1.86.29a6,6,0,0,1,1.2.19c.31.09.71.26.68.64a.69.69,0,0,1,0,.13s.07,0,.08,0Z" transform="translate(-281.94 -406.41)"/><path id="Path_2169" data-name="Path 2169" class="cls-1" d="M296.76,409.43l-2.25-1.09q-1.14-.54-2.28-1.11l-.6-.3-.15-.08-.16-.09-.37-.14c-.07,0-.22.07-.15.14a2.26,2.26,0,0,0,.52.35l.54.28,1.12.55,2.3,1.11,1.25.6a.21.21,0,0,0,.21-.06s.09-.13,0-.16Z" transform="translate(-281.94 -406.41)"/><path id="Path_2170" data-name="Path 2170" class="cls-1" d="M301.75,411.78c-1-.43-2-.86-3-1.31l-.83-.38a.2.2,0,0,0-.21.05s-.09.14,0,.17c1,.46,2,.9,2.95,1.33l.85.36a.19.19,0,0,0,.2-.05s.1-.14,0-.17Z" transform="translate(-281.94 -406.41)"/><path id="Path_2171" data-name="Path 2171" class="cls-1" d="M305.92,434.36a18.73,18.73,0,0,0,1.12-2.7c.31-.91.59-1.83.88-2.74s.66-1.86.95-2.8.57-1.92.84-2.88.56-1.92.87-2.87c.14-.4.28-.81.44-1.2a7.83,7.83,0,0,0,.39-1.12,1.85,1.85,0,0,0-.49-1.89,5.76,5.76,0,0,0-1.71-1.08l-2.22-1c-.93-.42-1.86-.82-2.8-1.22l-.68-.3a.19.19,0,0,0-.2.06s-.1.14,0,.17c.92.39,1.85.78,2.76,1.19s1.65.78,2.49,1.15a9.79,9.79,0,0,1,1.75.93,2.59,2.59,0,0,1,.65.67,1.55,1.55,0,0,1,.22,1,4.46,4.46,0,0,1-.3,1.14c-.14.35-.28.7-.4,1.05-.34.94-.63,1.88-.9,2.84s-.54,1.91-.82,2.86-.58,1.86-.9,2.78-.58,1.81-.86,2.71-.58,1.81-.93,2.69c-.09.21-.17.43-.25.64s.11,0,.13,0Z" transform="translate(-281.94 -406.41)"/><path id="Path_2172" data-name="Path 2172" class="cls-1" d="M303.45,412.6a.83.83,0,0,1-.08-.22,1.07,1.07,0,0,1,0-.25,2.62,2.62,0,0,1,0-.56,10.86,10.86,0,0,0,.1-1.27,1.61,1.61,0,0,0-.42-1.12,2.54,2.54,0,0,0-1.19-.57c-.22-.06-.43-.1-.65-.17a2.13,2.13,0,0,1-.56-.23,12,12,0,0,0-1.18-.72,1.77,1.77,0,0,0-.63-.19,1.3,1.3,0,0,0-.34,0l-.16.05h-.06l0,0a1.93,1.93,0,0,0-.67.69c-.19.29-.36.6-.55.89a1.33,1.33,0,0,1-.14.19l-.07.09v0s0,0,0,0l0,0-.07.07h0l0,0,0,0h0l0,0h-.07s0,0,0,0h0a.22.22,0,0,0-.19.09s0,.11,0,.13h0l0,0a.18.18,0,0,0,.17.06.56.56,0,0,0,.21-.06,1.22,1.22,0,0,0,.36-.32,5.1,5.1,0,0,0,.55-.82l.27-.43.14-.2a.27.27,0,0,0,.07-.08h0l0,0,0,0,.06-.06s0,0,0,0l0,0h0s0,0,0,0h0s.07,0,0,0h.05l.11,0h.28l.16,0a4.51,4.51,0,0,1,1.17.66,4.29,4.29,0,0,0,.55.31,4.88,4.88,0,0,0,.65.2,3.84,3.84,0,0,1,1.22.42,1.48,1.48,0,0,1,.44.46,1.38,1.38,0,0,1,.17.53,7,7,0,0,1,0,1.21,2.91,2.91,0,0,0,0,.59,1.15,1.15,0,0,0,.13.48l.15.18s.13,0,.1-.07Z" transform="translate(-281.94 -406.41)"/><path id="Path_2173" data-name="Path 2173" class="cls-1" d="M301.61,411.9a.45.45,0,0,0,.3-.07.53.53,0,0,0,.21-.21,1.23,1.23,0,0,0,.14-.62,1.74,1.74,0,0,0-.13-.6.71.71,0,0,0-.12-.18,1.24,1.24,0,0,0-.36-.19,4.06,4.06,0,0,0-.91-.17l-.22,0-.16,0-.28-.16c-.23-.15-.45-.31-.69-.45a1.14,1.14,0,0,0-.67-.22,1.18,1.18,0,0,0-.63.34,1.07,1.07,0,0,0-.41.76s0,.07,0,.11a.14.14,0,0,0,.08.09c.05,0,.14,0,.16-.09a.59.59,0,0,0,0-.13V410a.58.58,0,0,1,0-.19,1.12,1.12,0,0,1,.19-.29l.07-.07,0,0s0,0,0,0a.71.71,0,0,1,.14-.1l0,0s0,0,0,0l0,0,.06,0c-.05,0,0,0,0,0h.08l.15,0a2,2,0,0,1,.3.14c.22.12.42.27.63.41a1.81,1.81,0,0,0,.57.29c.27.06.56.07.83.12a1.43,1.43,0,0,1,.41.09.54.54,0,0,1,.26.16,1.12,1.12,0,0,1,.16.43,1.44,1.44,0,0,1,0,.62.5.5,0,0,1-.05.13.41.41,0,0,1-.05.09.24.24,0,0,1-.09.06.34.34,0,0,1-.14.05.08.08,0,0,0-.07.05,0,0,0,0,0,0,0Z" transform="translate(-281.94 -406.41)"/><path id="Path_2174" data-name="Path 2174" class="cls-1" d="M303.35,412.64h-.29l-.48-.08a3.92,3.92,0,0,1-.49-.13.84.84,0,0,1-.35-.21.19.19,0,0,1-.05-.13.1.1,0,0,1,0-.07l0,0a.21.21,0,0,1,0-.06c0-.07-.07-.07-.11,0a.31.31,0,0,0-.11.38.64.64,0,0,0,.3.24,3.81,3.81,0,0,0,1.06.25,1.79,1.79,0,0,0,.4,0c.05,0,.12-.1,0-.11Z" transform="translate(-281.94 -406.41)"/><path id="Path_2175" data-name="Path 2175" class="cls-1" d="M297.84,410.15h-.12l-.16,0a1.16,1.16,0,0,1-.37,0,1.19,1.19,0,0,1-.66-.31.51.51,0,0,1-.09-.16c0-.06,0-.16-.08-.19s-.1,0-.12,0,0,.29.07.4a.9.9,0,0,0,.31.24,1.76,1.76,0,0,0,.84.15.67.67,0,0,0,.39-.12s0-.06,0-.05Z" transform="translate(-281.94 -406.41)"/><path id="Path_2176" data-name="Path 2176" class="cls-1" d="M308.92,414.49l.12.16a.91.91,0,0,1,.11.16.39.39,0,0,1,.05.24v0s0,.05,0,0l0,0,0,0h0l0,0h0s0,0,0,0l-.05,0H309s0,0,0,0h-.21a2,2,0,0,1-.35,0,3,3,0,0,1-.74-.22,2,2,0,0,1-.6-.38.65.65,0,0,1-.17-.2s0,0,0-.05v0s0,0,0,0v0s0,0,0,0v0h0s0,0,0,0,0,0,0,0,0,0,0,0v0s0,0,0,0l0,0s0,0,0,0l0,0s0,0,0,0h0l.05,0h0l.13,0h.26a2.16,2.16,0,0,1,.71.12,2.43,2.43,0,0,1,.37.16,2.51,2.51,0,0,0,.46.16.05.05,0,0,0,.06-.06.69.69,0,0,0-.25-.34,1.71,1.71,0,0,0-.39-.17,2.44,2.44,0,0,0-.76-.15,1.6,1.6,0,0,0-.65.12.67.67,0,0,0-.41.38.47.47,0,0,0,.11.48,2,2,0,0,0,.62.46,3.68,3.68,0,0,0,.85.28,3.13,3.13,0,0,0,.44,0,1.49,1.49,0,0,0,.36,0,.65.65,0,0,0,.49-.44.42.42,0,0,0-.05-.31.66.66,0,0,0-.12-.17.72.72,0,0,0-.24-.14s-.11,0-.08.07Z" transform="translate(-281.94 -406.41)"/><path id="Path_2177" data-name="Path 2177" class="cls-1" d="M294.06,407.76a.86.86,0,0,0,.1.16.6.6,0,0,1,.09.13.29.29,0,0,1,.05.2.06.06,0,0,0,0,0v0l0,0,0,0h0s0,0,0,0h-.29a1.55,1.55,0,0,1-.31,0,3.13,3.13,0,0,1-.66-.2,2.08,2.08,0,0,1-.51-.32.7.7,0,0,1-.15-.19s0,0,0,0,0,0,0,0v0s0,0,0,0,0,0,0,0,0,0,0,0v0h0l0,0s-.05,0,0,0h0l0,0s0,0,0,0h0l.11,0h0s0,0,0,0h.19a1.76,1.76,0,0,1,.64.11,1.73,1.73,0,0,1,.31.14,2,2,0,0,0,.42.13s.07,0,.06-.06a.58.58,0,0,0-.2-.31,1.58,1.58,0,0,0-.35-.16,2.28,2.28,0,0,0-.68-.13,1.52,1.52,0,0,0-.6.1.65.65,0,0,0-.37.36.42.42,0,0,0,.1.43,1.59,1.59,0,0,0,.56.41,2.88,2.88,0,0,0,.75.25l.4,0a1.17,1.17,0,0,0,.32,0,.6.6,0,0,0,.44-.42.37.37,0,0,0-.05-.27.58.58,0,0,0-.11-.15l-.09-.07-.13-.05s-.1,0-.07.07Z" transform="translate(-281.94 -406.41)"/><path id="Path_2178" data-name="Path 2178" class="cls-1" d="M292.57,415.78a2,2,0,0,0-.11-.49c0-.16-.08-.34-.11-.51-.07-.34-.12-.68-.18-1s-.17-.78-.27-1.16-.19-.71-.31-1.06c-.06-.16-.12-.32-.17-.49a1,1,0,0,1,0-.24.2.2,0,0,0,0-.11l0-.06s-.08,0-.1,0a.35.35,0,0,0-.14.2.54.54,0,0,0,0,.22,2.42,2.42,0,0,0,.13.46,9.43,9.43,0,0,1,.32,1c.11.39.22.79.31,1.19s.14.69.22,1q.06.29.15.57a1,1,0,0,0,.25.48s.09,0,.08-.06Z" transform="translate(-281.94 -406.41)"/><path id="Path_2179" data-name="Path 2179" class="cls-1" d="M291.18,410.7c-.23.27-.45.55-.68.81l-.72.78c-.23.25-.44.52-.67.77s-.46.49-.69.75a5.37,5.37,0,0,0-.35.45,1.88,1.88,0,0,0-.16.23c0,.06-.1.15-.06.22s.06,0,.08,0,.21-.26.3-.39a3.79,3.79,0,0,1,.3-.4c.22-.25.46-.5.68-.74s.44-.52.67-.77l.69-.76a5.27,5.27,0,0,0,.72-.93s0,0,0,0h0a.11.11,0,0,0-.09.05Z" transform="translate(-281.94 -406.41)"/><path id="Path_2180" data-name="Path 2180" class="cls-1" d="M292.6,415.8a.67.67,0,0,0-.33-.18,2.16,2.16,0,0,0-.44-.1l-.44-.08-.46-.12L289.8,415c-.35-.1-.69-.22-1-.3l-.4-.1a.6.6,0,0,0-.35,0h.06a.21.21,0,0,0-.19.1s-.05.12,0,.14h0l-.05,0a.24.24,0,0,0,.11.06l.15,0,.36.09,1,.26a19,19,0,0,0,2.08.49c.17,0,.34.05.5.09s.31.08.47.12.11-.05.08-.09Z" transform="translate(-281.94 -406.41)"/><path id="Path_2181" data-name="Path 2181" class="cls-1" d="M292.29,414.55a.26.26,0,0,1,0-.08s0,0,0,0l0,0h.12a1.26,1.26,0,0,1,.47,0,4.77,4.77,0,0,1,.51.13l.33.13a2.4,2.4,0,0,1,1,1.18,2.7,2.7,0,0,1,.2,1.56,2.82,2.82,0,0,1-.28.75,3.16,3.16,0,0,1-.44.64,3.3,3.3,0,0,1-.6.52l-.07.05-.05,0h0l-.17.09a2.06,2.06,0,0,1-.35.12,2.41,2.41,0,0,1-2.5-1.51,3,3,0,0,1-.26-1.29,2.65,2.65,0,0,1,.06-.69,1.32,1.32,0,0,1,.09-.3.61.61,0,0,1,.07-.14l0,0,.05-.06h0l0,0,0-.05s0,0,0,0l0,0,0,0s.05,0,0,0,.15-.11.14-.19-.13-.07-.18,0a1.56,1.56,0,0,0-.7,1.28,4.06,4.06,0,0,0,.11,1.43,2.67,2.67,0,0,0,.36.74,3.31,3.31,0,0,0,.58.66,2.32,2.32,0,0,0,1.56.59,2.62,2.62,0,0,0,1.62-.74,3.32,3.32,0,0,0,1-1.48,2.65,2.65,0,0,0,0-1.67,2.74,2.74,0,0,0-1-1.4,2.65,2.65,0,0,0-.95-.35,2.6,2.6,0,0,0-.56-.06.49.49,0,0,0-.4.17.23.23,0,0,0,0,.16c0,.05.09,0,.1,0Z" transform="translate(-281.94 -406.41)"/><path id="Path_2182" data-name="Path 2182" class="cls-1" d="M300.49,427.38l-.42.31-.42.32a2.79,2.79,0,0,0-.4.37,1.63,1.63,0,0,0-.17.2c-.05.06-.11.16-.07.24h.05l0,0-.06,0c.09,0,.17-.12.22-.19a1.19,1.19,0,0,1,.15-.18,3,3,0,0,1,.37-.34c.13-.11.28-.22.41-.34a1.71,1.71,0,0,0,.35-.36s0-.05-.05,0Z" transform="translate(-281.94 -406.41)"/><path id="Path_2183" data-name="Path 2183" class="cls-1" d="M300.55,427.41a1.67,1.67,0,0,0-.18-.28l-.21-.27-.39-.56c-.26-.39-.5-.79-.74-1.18-.51-.82-1.07-1.62-1.64-2.4-.16-.24-.33-.47-.5-.71l-.25-.33c-.05-.06-.09-.12-.14-.17l-.07-.07-.11-.05a0,0,0,0,0-.06,0h0a.3.3,0,0,0,.05.16,1,1,0,0,0,.1.17l.23.3.45.62.88,1.25c.27.4.54.79.8,1.19s.48.78.73,1.17c.15.22.29.44.45.64l.23.3a1.35,1.35,0,0,0,.28.25s.11,0,.09-.07Z" transform="translate(-281.94 -406.41)"/><path id="Path_2184" data-name="Path 2184" class="cls-1" d="M299.06,428.79l-.05-.15-.09-.16-.18-.31c-.12-.22-.23-.43-.37-.64-.28-.44-.57-.88-.87-1.31-.58-.8-1.21-1.56-1.78-2.37l-.43-.63c-.07-.11-.15-.21-.22-.31a1.48,1.48,0,0,0-.26-.24s-.07,0-.06.05a1.08,1.08,0,0,0,.07.31,1.59,1.59,0,0,0,.15.29l.39.57c.26.38.53.74.8,1.1l1,1.26c.32.42.64.84.93,1.27.15.23.3.46.44.7l.22.35.12.15a.57.57,0,0,0,.14.13s.11,0,.09-.06Z" transform="translate(-281.94 -406.41)"/><path id="Path_2185" data-name="Path 2185" class="cls-1" d="M296.3,421.43l-.42.28-.42.28a2,2,0,0,0-.71.72s0,0,.06,0a9.5,9.5,0,0,1,.8-.62,3.07,3.07,0,0,0,.75-.64s0,0-.06,0Z" transform="translate(-281.94 -406.41)"/><path id="Path_2186" data-name="Path 2186" class="cls-1" d="M302.72,417.5a1.68,1.68,0,0,0-.41.75,5.93,5.93,0,0,0-.24.92,2,2,0,0,0,0,.24s0,.07,0,.1,0,.06.05.09.1,0,.11,0,.07-.07.08-.12,0-.09,0-.13,0-.17,0-.26l.12-.57a5,5,0,0,1,.17-.55c0-.14.11-.28.17-.42s0,0,0,0Z" transform="translate(-281.94 -406.41)"/><path id="Path_2187" data-name="Path 2187" class="cls-1" d="M302.74,417.47s0-.05-.06-.06l-.11-.05-.25-.09-.5-.21-.52-.21c-.17-.07-.33-.15-.5-.21l-.26-.11a.92.92,0,0,0-.27-.08.13.13,0,0,0-.14.06s-.05.08,0,.1a1,1,0,0,0,.22.09l.25.09.51.19,1,.41.28.11a.46.46,0,0,0,.28,0,.08.08,0,0,0,.05-.07Z" transform="translate(-281.94 -406.41)"/><path id="Path_2188" data-name="Path 2188" class="cls-1" d="M300.11,416.53a1.31,1.31,0,0,0-.08.21L300,417c-.05.17-.11.33-.16.49a6.7,6.7,0,0,0-.28,1c0,.09-.09.31,0,.36s.18-.07.2-.15a.54.54,0,0,0,0-.18,1.56,1.56,0,0,1,.08-.43c0-.16.09-.32.14-.48s.13-.38.18-.57a2.33,2.33,0,0,0,.07-.25.65.65,0,0,0,0-.24c0-.06-.11,0-.12,0Z" transform="translate(-281.94 -406.41)"/><path id="Path_2189" data-name="Path 2189" class="cls-1" d="M302.17,419.51a.72.72,0,0,0-.2-.09l-.24-.06-.53-.16a7.47,7.47,0,0,1-1.09-.39,2.24,2.24,0,0,1-.27-.13s0,0-.07-.05a.28.28,0,0,0-.13,0,.19.19,0,0,0-.13.18.06.06,0,0,0,.06.06l.22.1.24.11.51.19c.33.11.66.21,1,.29a1.43,1.43,0,0,0,.5.09c.07,0,.21-.1.13-.17Z" transform="translate(-281.94 -406.41)"/><path id="Path_2190" data-name="Path 2190" class="cls-1" d="M305.21,424.51a.57.57,0,0,0-.08-.28c-.05-.1-.08-.2-.13-.31a4.65,4.65,0,0,0-.34-.56c-.25-.36-.52-.7-.77-1.07-.07-.1-.13-.2-.21-.3a.46.46,0,0,0-.12-.12.57.57,0,0,0-.14-.13.06.06,0,0,0-.08,0h0a.26.26,0,0,0,0,.15c0,.06,0,.12,0,.17a1.08,1.08,0,0,0,.16.3c.12.18.25.36.38.53.26.35.53.7.76,1.08l.2.33c.05.09.13.21.24.22a.08.08,0,0,0,.07-.05Z" transform="translate(-281.94 -406.41)"/><path id="Path_2191" data-name="Path 2191" class="cls-1" d="M307.83,425.72l-.05-.07-.1-.06-.21-.12-.49-.25-.52-.27-.5-.26-.26-.13a1.39,1.39,0,0,0-.28-.12c-.08,0-.31.14-.19.23l.22.1.24.1.53.23c.34.17.68.35,1,.51l.27.11.14,0h.14s0,0,0,0Z" transform="translate(-281.94 -406.41)"/><path id="Path_2192" data-name="Path 2192" class="cls-1" d="M307.78,425.82h0l0,0,0,0,0,0c-.09,0-.12.19-.15.28l-.14.38c0,.12-.08.26-.13.39a1.09,1.09,0,0,0-.05.17c0,.05,0,.11,0,.15v0l0,0s.08,0,.1,0a.38.38,0,0,0,.09-.15,1.31,1.31,0,0,1,.05-.15l.12-.4.12-.39c0-.07.09-.23,0-.28v0l0,0h0s0,0,0,0Z" transform="translate(-281.94 -406.41)"/><path id="Path_2193" data-name="Path 2193" class="cls-1" d="M307.46,427.22a.18.18,0,0,0-.07-.08l-.14-.07-.26-.16a3.25,3.25,0,0,0-.51-.3c-.32-.15-.66-.27-1-.4l-.25-.11a.52.52,0,0,0-.27-.1c-.07,0-.19.08-.17.16s.11.11.18.14l.22.1.5.19.51.21a1.42,1.42,0,0,1,.25.12l.28.16.31.15a.52.52,0,0,0,.34.06s.07,0,.07-.07Z" transform="translate(-281.94 -406.41)"/><path id="Path_2194" data-name="Path 2194" class="cls-1" d="M304.75,426.07l0-.09a.93.93,0,0,1-.05-.1l-.13-.2c-.09-.14-.17-.28-.25-.43a5,5,0,0,0-.41-.65c-.34-.46-.71-.91-1.05-1.37l-.27-.39a.79.79,0,0,0-.31-.29s-.05,0-.05,0h0a.71.71,0,0,0,.08.37l.23.34.55.72a11.22,11.22,0,0,1,.95,1.31c.09.15.19.31.3.46a1.06,1.06,0,0,0,.16.21l.11.08.11,0s.07,0,.06,0Z" transform="translate(-281.94 -406.41)"/><path id="Path_2195" data-name="Path 2195" class="cls-1" d="M303.4,421.79h0s0,0,0,0,0,0-.05,0h-.06a1.25,1.25,0,0,0-.28.15c-.21.14-.41.29-.61.45a1.19,1.19,0,0,0-.23.22s0,.08,0,.09a.12.12,0,0,0,.13,0l.17-.16.06-.05h0l0,0,.14-.11.28-.2.13-.08.06,0h0l.07,0h0l0,0h0l0,0h0s.05,0,0,0Z" transform="translate(-281.94 -406.41)"/><path id="Path_2196" data-name="Path 2196" class="cls-1" d="M299.8,426.55a.76.76,0,0,0-.09.09.61.61,0,0,0,0,.12,1.71,1.71,0,0,0-.09.3,1.58,1.58,0,0,0-.09.57s.06,0,.06,0a3,3,0,0,0,.14-.51,2.81,2.81,0,0,1,.16-.49,0,0,0,0,0,0,0h0v0s0,0-.05,0Z" transform="translate(-281.94 -406.41)"/><path id="Path_2197" data-name="Path 2197" class="cls-1" d="M299.52,426.2a4.2,4.2,0,0,1-.14.59c-.05.17-.11.34-.16.52,0,0,0,0,0,0a2.7,2.7,0,0,0,.34-1.13c0-.05-.07,0-.07,0Z" transform="translate(-281.94 -406.41)"/><path id="Path_2198" data-name="Path 2198" class="cls-1" d="M299.36,425.86a5,5,0,0,0-.23.65l-.21.63s0,0,0,0a3.36,3.36,0,0,0,.28-.65c0-.11.07-.21.1-.32a3,3,0,0,0,.1-.32s-.06,0-.07,0Z" transform="translate(-281.94 -406.41)"/><path id="Path_2199" data-name="Path 2199" class="cls-1" d="M299.94,427.23a2,2,0,0,0-.4-.43l-.23-.21-.11-.11-.11-.1s0,0,0,0a.63.63,0,0,0,.16.24,1.1,1.1,0,0,0,.22.21l.44.41s.07,0,.06,0Z" transform="translate(-281.94 -406.41)"/><path id="Path_2200" data-name="Path 2200" class="cls-1" d="M299.46,427.06c-.11-.13-.24-.25-.35-.37a2.5,2.5,0,0,0-.38-.35s-.05,0,0,0a2.38,2.38,0,0,0,.31.4,1.6,1.6,0,0,0,.4.33S299.48,427.08,299.46,427.06Z" transform="translate(-281.94 -406.41)"/><path id="Path_2201" data-name="Path 2201" class="cls-1" d="M291.57,415.63a.82.82,0,0,0,0,.27c0,.09,0,.19,0,.28v1.11c0,.19,0,.37.06.56,0,0,0,0,0,0,0-.19,0-.38,0-.57s0-.38,0-.57v-.55c0-.09,0-.18,0-.27v-.14a.27.27,0,0,0,0-.12s0,0,0,0Z" transform="translate(-281.94 -406.41)"/><path id="Path_2202" data-name="Path 2202" class="cls-1" d="M291.29,415.5a1.15,1.15,0,0,0-.08.41c0,.15,0,.31,0,.46a5,5,0,0,0,.05.86s0,0,0,0a8.43,8.43,0,0,0,0-.87c0-.15,0-.3,0-.44a1.8,1.8,0,0,0,0-.22,1.21,1.21,0,0,0,0-.19s-.05,0-.06,0Z" transform="translate(-281.94 -406.41)"/><path id="Path_2203" data-name="Path 2203" class="cls-1" d="M290.86,415.31a2.58,2.58,0,0,0-.08.83,4,4,0,0,0,.06.84s.05,0,.05,0a4.83,4.83,0,0,0,0-.85c0-.14,0-.28,0-.41a2.61,2.61,0,0,0,0-.4s0,0,0,0Z" transform="translate(-281.94 -406.41)"/><path id="Path_2204" data-name="Path 2204" class="cls-1" d="M292,415.74a.66.66,0,0,0,0,.28v.29c0,.1,0,.2,0,.3a1.35,1.35,0,0,0,0,.29s.05,0,.05,0a2.41,2.41,0,0,0,0-.6v-.42a.32.32,0,0,0,0-.14s-.05,0-.06,0Z" transform="translate(-281.94 -406.41)"/><path id="Path_2205" data-name="Path 2205" class="cls-1" d="M292.63,416.27a1.27,1.27,0,0,0-.38-.11l-.43-.08A4.34,4.34,0,0,0,291,416s-.06,0,0,0a3.9,3.9,0,0,0,.82.19l.42.08a2.3,2.3,0,0,0,.45.05s.06,0,0-.05Z" transform="translate(-281.94 -406.41)"/><path id="Path_2206" data-name="Path 2206" class="cls-1" d="M292.09,416.6l-.65-.16a3.12,3.12,0,0,0-.67-.11s0,0,0,0a2.72,2.72,0,0,0,.62.17,4.16,4.16,0,0,0,.69.12s.08,0,0-.06Z" transform="translate(-281.94 -406.41)"/><path id="Path_2207" data-name="Path 2207" class="cls-1" d="M291.65,417l-.24-.07-.25-.07a2.24,2.24,0,0,0-.51-.07s-.06,0,0,0a3.68,3.68,0,0,0,.47.15l.25,0a2.48,2.48,0,0,0,.27,0s.09-.05,0-.06Z" transform="translate(-281.94 -406.41)"/><path id="Path_2208" data-name="Path 2208" class="cls-1" d="M290.8,412.77c0,.3.09.6.14.9a6.93,6.93,0,0,0,.16.89s0,0,0,0a4,4,0,0,0-.1-.91,5.34,5.34,0,0,0-.2-.88s-.05,0-.05,0Z" transform="translate(-281.94 -406.41)"/><path id="Path_2209" data-name="Path 2209" class="cls-1" d="M290.65,413a1.13,1.13,0,0,0,0,.26,4.05,4.05,0,0,0,.11.76s0,0,0,0a4.38,4.38,0,0,0,0-.51,2.17,2.17,0,0,1,0-.25s0-.08,0-.13,0-.08,0-.12,0,0,0,0Z" transform="translate(-281.94 -406.41)"/><path id="Path_2210" data-name="Path 2210" class="cls-1" d="M290.3,412.09a2.66,2.66,0,0,0,0,.63,2.32,2.32,0,0,0,.11.64s.05,0,.05,0c0-.21,0-.43,0-.65s0-.42-.05-.62c0,0-.06,0-.06,0Z" transform="translate(-281.94 -406.41)"/><path id="Path_2211" data-name="Path 2211" class="cls-1" d="M290.1,412.75a3.36,3.36,0,0,0,0,.71c0,.24,0,.47.07.7,0,0,.05,0,.05,0a2.89,2.89,0,0,0,0-.72c0-.23,0-.47-.07-.7,0,0-.06,0-.06,0Z" transform="translate(-281.94 -406.41)"/><path id="Path_2212" data-name="Path 2212" class="cls-1" d="M289.83,413.4a1.89,1.89,0,0,0,0,.53,1.71,1.71,0,0,0,.1.51s0,0,0,0a4.87,4.87,0,0,0,0-.54c0-.17,0-.34,0-.51s-.07,0-.07,0Z" transform="translate(-281.94 -406.41)"/><path id="Path_2213" data-name="Path 2213" class="cls-1" d="M291.51,413.9a5.58,5.58,0,0,0-.91-.07c-.33,0-.66,0-1,0,0,0-.06,0,0,0a17.4,17.4,0,0,0,1.91.05s0,0,0,0Z" transform="translate(-281.94 -406.41)"/><path id="Path_2214" data-name="Path 2214" class="cls-1" d="M291.36,413.34a4.49,4.49,0,0,1-.82,0s-.05,0,0,.05a1.14,1.14,0,0,0,.41.07,1,1,0,0,0,.43-.06s0-.07,0-.06Z" transform="translate(-281.94 -406.41)"/><path id="Path_2215" data-name="Path 2215" class="cls-1" d="M302.18,417.42a1,1,0,0,0-.2.45,2.33,2.33,0,0,0-.07.25,1.44,1.44,0,0,1-.05.24s0,0,0,0a2,2,0,0,0,.18-.48c0-.16.09-.31.14-.45s0,0,0,0Z" transform="translate(-281.94 -406.41)"/><path id="Path_2216" data-name="Path 2216" class="cls-1" d="M301.75,417.71a2,2,0,0,0-.22.56,2.82,2.82,0,0,0-.1.58s.05,0,.05,0a2.26,2.26,0,0,0,.17-.56,3.58,3.58,0,0,1,.16-.56s-.05,0-.06,0Z" transform="translate(-281.94 -406.41)"/><path id="Path_2217" data-name="Path 2217" class="cls-1" d="M301.41,417.5a1.86,1.86,0,0,0-.1.2,2.17,2.17,0,0,0-.07.24,1.22,1.22,0,0,0-.06.46s.05,0,.06,0a4,4,0,0,0,.13-.46,1.42,1.42,0,0,1,.05-.22l.06-.2c0-.05-.05,0-.07,0Z" transform="translate(-281.94 -406.41)"/><path id="Path_2218" data-name="Path 2218" class="cls-1" d="M302,418.18l-.41-.17a1.52,1.52,0,0,0-.42-.16s-.06,0,0,0a1.48,1.48,0,0,0,.38.23,1,1,0,0,0,.46.11s.06,0,0-.05Z" transform="translate(-281.94 -406.41)"/><path id="Path_2219" data-name="Path 2219" class="cls-1" d="M300.6,417.72a1.48,1.48,0,0,0-.12.29l-.06.28s.05,0,.06,0a.81.81,0,0,0,.12-.29,1,1,0,0,0,0-.14l0-.14s-.06,0-.07,0Z" transform="translate(-281.94 -406.41)"/><path id="Path_2220" data-name="Path 2220" class="cls-1" d="M304.77,423.91a1,1,0,0,0-.08.25l-.09.25a3.82,3.82,0,0,0-.15.48s0,0,0,0a2.75,2.75,0,0,0,.23-.49,2.41,2.41,0,0,0,.08-.25.69.69,0,0,0,0-.25s-.06,0-.06,0Z" transform="translate(-281.94 -406.41)"/><path id="Path_2221" data-name="Path 2221" class="cls-1" d="M304.45,423.57l-.12.44a1.55,1.55,0,0,0,0,.21.67.67,0,0,0,0,.2s0,0,0,0a3.22,3.22,0,0,0,.14-.44,3.07,3.07,0,0,0,.07-.42c0-.05-.07,0-.08,0Z" transform="translate(-281.94 -406.41)"/><path id="Path_2222" data-name="Path 2222" class="cls-1" d="M304.24,423.18a.81.81,0,0,0-.1.18c0,.08-.06.16-.08.23a2.14,2.14,0,0,0-.08.44s0,0,0,0a2.32,2.32,0,0,0,.16-.44l.06-.21c0-.06,0-.13.05-.19s-.05,0-.06,0Z" transform="translate(-281.94 -406.41)"/><path id="Path_2223" data-name="Path 2223" class="cls-1" d="M304,422.77l-.09.17c0,.06-.05.12-.08.19a1.05,1.05,0,0,0-.05.19l-.06.19s0,0,.05,0a1.27,1.27,0,0,0,.18-.37,1.39,1.39,0,0,1,.06-.19,1,1,0,0,1,.05-.16s-.05,0-.06,0Z" transform="translate(-281.94 -406.41)"/><path id="Path_2224" data-name="Path 2224" class="cls-1" d="M304.84,424.63c0-.06-.06-.12-.1-.18l-.1-.17-.22-.35a3.35,3.35,0,0,0-.48-.64s-.06,0-.05,0l.2.35.21.35.22.33a1,1,0,0,0,.12.16,1.07,1.07,0,0,0,.14.16s.08,0,.06,0Z" transform="translate(-281.94 -406.41)"/><path id="Path_2225" data-name="Path 2225" class="cls-1" d="M302.59,422.32s0,0,0,0l0,0a.18.18,0,0,0,.05.07l.09.15a.83.83,0,0,0,.11.15.7.7,0,0,0,.13.16s0,0,0,0a1.07,1.07,0,0,0-.07-.19.76.76,0,0,0-.09-.18l-.1-.15-.05-.07,0,0,0,0s-.09,0-.07.06Z" transform="translate(-281.94 -406.41)"/><path id="Path_2226" data-name="Path 2226" class="cls-1" d="M303,422.1a1,1,0,0,0-.14.3,1.67,1.67,0,0,0-.08.3s0,0,0,0a1.4,1.4,0,0,0,.15-.3.88.88,0,0,0,.05-.15.83.83,0,0,0,0-.15s0,0-.07,0Z" transform="translate(-281.94 -406.41)"/><path id="Path_2227" data-name="Path 2227" class="cls-1" d="M306.92,425.42a.88.88,0,0,0,0,.28c0,.1,0,.2,0,.3a2.8,2.8,0,0,0,.09.58s.05,0,.05,0a4,4,0,0,0,0-.6c0-.1,0-.2,0-.29a.86.86,0,0,0,0-.28s-.06,0-.06,0Z" transform="translate(-281.94 -406.41)"/><path id="Path_2228" data-name="Path 2228" class="cls-1" d="M306.68,425.56a3.37,3.37,0,0,0,0,.55,2.71,2.71,0,0,1,0,.29,2.44,2.44,0,0,0,0,.27s0,0,.05,0a1.29,1.29,0,0,0,.07-.58,1.48,1.48,0,0,0-.09-.55s-.05,0-.05,0Z" transform="translate(-281.94 -406.41)"/><path id="Path_2229" data-name="Path 2229" class="cls-1" d="M306.5,425.74a2.42,2.42,0,0,0,0,.38c0,.1,0,.25,0,.33s0,0,0,0a1.14,1.14,0,0,0,0-.37.78.78,0,0,0,0-.34s-.05,0-.05,0Z" transform="translate(-281.94 -406.41)"/><path id="Path_2230" data-name="Path 2230" class="cls-1" d="M306.29,425.79a2,2,0,0,0,0,.35,1,1,0,0,0,0,.17v.08s0,.06,0,.09,0,0,0,0a.7.7,0,0,0,.06-.19,1.2,1.2,0,0,0,0-.19c0-.11,0-.22,0-.33s-.08,0-.09,0Z" transform="translate(-281.94 -406.41)"/><path id="Path_2231" data-name="Path 2231" class="cls-1" d="M307.29,426.44a2.24,2.24,0,0,0-.27-.13l-.29-.14a3.19,3.19,0,0,0-.59-.28s-.07,0,0,.05a3.57,3.57,0,0,0,.56.33,1.35,1.35,0,0,0,.6.21s.05,0,0,0Z" transform="translate(-281.94 -406.41)"/><path id="Path_2232" data-name="Path 2232" class="cls-1" d="M307.26,426.07a1.27,1.27,0,0,0-.41-.23l-.22-.07-.24-.08s0,0,0,0a.82.82,0,0,0,.2.12l.2.09c.15.06.29.13.45.18C307.23,426.12,307.28,426.09,307.26,426.07Z" transform="translate(-281.94 -406.41)"/><path id="Path_2233" data-name="Path 2233" class="cls-1" d="M302.86,409.36a3.38,3.38,0,0,0,0,.45v.46a3.77,3.77,0,0,0,0,.89s0,0,0,0a4.73,4.73,0,0,0,0-.92v-.45a2.34,2.34,0,0,0,0-.46c0-.05-.1,0-.1,0Z" transform="translate(-281.94 -406.41)"/><path id="Path_2234" data-name="Path 2234" class="cls-1" d="M302.6,409.08a6.6,6.6,0,0,0,0,.77c0,.13,0,.26,0,.39a2.17,2.17,0,0,0,0,.36s0,0,.05,0a1.88,1.88,0,0,0,.06-.75,6.68,6.68,0,0,0-.07-.77s-.06,0-.06,0Z" transform="translate(-281.94 -406.41)"/><path id="Path_2235" data-name="Path 2235" class="cls-1" d="M302.32,409c0,.14,0,.28,0,.41v.2a1.23,1.23,0,0,0,0,.2s0,0,0,0a2,2,0,0,0,.05-.43v-.19a.28.28,0,0,1,0-.09.13.13,0,0,1,0-.06s0,0,0,0-.06,0-.06,0Z" transform="translate(-281.94 -406.41)"/><path id="Path_2236" data-name="Path 2236" class="cls-1" d="M302.05,408.89v0s0,0,0,0,0,0,0,0a.14.14,0,0,0,0,.07,1.09,1.09,0,0,0,0,.18,1.27,1.27,0,0,0,0,.2.53.53,0,0,0,0,.18s0,0,0,0a.88.88,0,0,0,0-.36v-.28s0,0,0,0h0s0,0,0,0,0,0-.05,0Z" transform="translate(-281.94 -406.41)"/><path id="Path_2237" data-name="Path 2237" class="cls-1" d="M301.54,408.75a.92.92,0,0,1,0,.16s0,.1,0,.16a.76.76,0,0,0,0,.15l0,.07s0,0,0,.06a0,0,0,0,0,0,0,.22.22,0,0,0,0-.08v-.08a.92.92,0,0,0,0-.16c0-.05,0-.1,0-.15a.4.4,0,0,0,0-.15s-.09,0-.09,0Z" transform="translate(-281.94 -406.41)"/><path id="Path_2238" data-name="Path 2238" class="cls-1" d="M301.38,408.71s-.05,0-.06.05l0,0a.1.1,0,0,0,0,.07.22.22,0,0,0,0,.08V409a.09.09,0,0,1,0,0,.08.08,0,0,0,0,0s0,0,0,0a.14.14,0,0,0,0-.06V409a.09.09,0,0,0,0-.05v0s0,0,0-.07a.07.07,0,0,0,0-.05h0s0,0,0,0Z" transform="translate(-281.94 -406.41)"/><path id="Path_2239" data-name="Path 2239" class="cls-1" d="M303.4,410.4l-.23-.23a3.07,3.07,0,0,1-.26-.25l-.25-.22a2.88,2.88,0,0,0-.27-.22s-.06,0-.05,0a1.39,1.39,0,0,0,.21.27l.24.23.26.22a1.61,1.61,0,0,0,.3.21s.07,0,0,0Z" transform="translate(-281.94 -406.41)"/><path id="Path_2240" data-name="Path 2240" class="cls-1" d="M302.07,409.24a.8.8,0,0,0-.15-.17l-.19-.15a2.8,2.8,0,0,0-.4-.27s-.08,0-.06.06a1.26,1.26,0,0,0,.34.31,1.59,1.59,0,0,0,.41.26s.06,0,.05,0Z" transform="translate(-281.94 -406.41)"/><path id="Path_2241" data-name="Path 2241" class="cls-1" d="M299.73,407.9s-.09,0-.11.07a1,1,0,0,0-.07.21l-.06.27a.49.49,0,0,0,0,.12.14.14,0,0,0,0,.09s0,0,0,0a.48.48,0,0,0,.07-.2c0-.08,0-.16.05-.24a1.46,1.46,0,0,0,.05-.2l0-.07v0h0s0,0,0,0Z" transform="translate(-281.94 -406.41)"/><path id="Path_2242" data-name="Path 2242" class="cls-1" d="M299.37,407.64a2,2,0,0,0,0,.24,1.49,1.49,0,0,1,0,.21l-.09.4s0,0,0,0a.87.87,0,0,0,.14-.41,2,2,0,0,0,0-.24.81.81,0,0,0,0-.22s-.06,0-.06,0Z" transform="translate(-281.94 -406.41)"/><path id="Path_2243" data-name="Path 2243" class="cls-1" d="M299.14,407.71l0,.08a1.06,1.06,0,0,0,0,.19.78.78,0,0,0,0,.21v.09a.15.15,0,0,0,0,.07s0,0,0,0a.19.19,0,0,0,0-.08.3.3,0,0,0,0-.1,1.55,1.55,0,0,0,0-.21,1.37,1.37,0,0,0,0-.19v-.07s-.05,0-.05,0Z" transform="translate(-281.94 -406.41)"/><path id="Path_2244" data-name="Path 2244" class="cls-1" d="M300,408.53a1,1,0,0,0-.23-.13l-.27-.15a4.58,4.58,0,0,0-.54-.28s-.05,0,0,0a2.69,2.69,0,0,0,.49.34l.27.13a.94.94,0,0,0,.28.1s.05,0,0,0Z" transform="translate(-281.94 -406.41)"/><path id="Path_2245" data-name="Path 2245" class="cls-1" d="M308.49,414.19c0,.2,0,.4,0,.61a2.91,2.91,0,0,0,0,.59s0,0,0,0a1.91,1.91,0,0,0,.08-.63,4,4,0,0,0,0-.6s-.09,0-.1,0Z" transform="translate(-281.94 -406.41)"/><path id="Path_2246" data-name="Path 2246" class="cls-1" d="M308.22,414.2a1.16,1.16,0,0,0-.06.42,1.42,1.42,0,0,0,0,.46s0,0,.05,0a2.59,2.59,0,0,0,0-.48,2.67,2.67,0,0,0,0-.4s0,0,0,0Z" transform="translate(-281.94 -406.41)"/><path id="Path_2247" data-name="Path 2247" class="cls-1" d="M308,414.05l0,.08a.31.31,0,0,0,0,.1,1.5,1.5,0,0,0,0,.22,1.35,1.35,0,0,0,0,.4s0,0,0,0a3.13,3.13,0,0,0,0-.43v-.21a.33.33,0,0,0,0-.1V414s-.05,0-.05,0Z" transform="translate(-281.94 -406.41)"/><path id="Path_2248" data-name="Path 2248" class="cls-1" d="M293.47,407.46v0h0s0,0,0,0a.29.29,0,0,0,0,.09,1,1,0,0,0,0,.25,2.45,2.45,0,0,0,0,.27.57.57,0,0,0,0,.13.16.16,0,0,0,0,.09s0,0,0,0a.42.42,0,0,0,0-.22c0-.08,0-.16,0-.24a1.08,1.08,0,0,1,0-.4s0,0,0,0h0s0,0,0,0l0,0Z" transform="translate(-281.94 -406.41)"/><path id="Path_2249" data-name="Path 2249" class="cls-1" d="M293.17,407.36l0,0h0l0,0c-.08,0-.06.14-.06.21a.43.43,0,0,0,0,.11s0,0,0,.05a.08.08,0,0,0,0,.05h0s0,0,0,0a.34.34,0,0,0,0-.1v-.21s0,0,0-.07v0h0s0,0,0,0,0,0,0,0Z" transform="translate(-281.94 -406.41)"/><path id="Path_2250" data-name="Path 2250" class="cls-1" d="M302.81,411.51a2.64,2.64,0,0,0-.08.62c0,.1,0,.2,0,.3a.66.66,0,0,0,0,.28s0,0,.05,0a1.37,1.37,0,0,0,.09-.6c0-.2,0-.4,0-.6,0,0-.05,0-.06,0Z" transform="translate(-281.94 -406.41)"/><path id="Path_2251" data-name="Path 2251" class="cls-1" d="M303.31,412.38a.92.92,0,0,1-.43-.08,2.6,2.6,0,0,0-.47-.16s-.05,0,0,0a1,1,0,0,0,.45.22.79.79,0,0,0,.48,0s.05,0,0,0Z" transform="translate(-281.94 -406.41)"/><path id="Path_2252" data-name="Path 2252" class="cls-1" d="M303.22,412.18a1.17,1.17,0,0,0-.3-.14.8.8,0,0,0-.34-.05s-.06,0,0,0a1.42,1.42,0,0,0,.29.1,2.14,2.14,0,0,0,.34.09s.06,0,0,0Z" transform="translate(-281.94 -406.41)"/><path id="Path_2253" data-name="Path 2253" class="cls-1" d="M303.25,411.93a1,1,0,0,1-.43-.08l-.23-.08-.21-.07s-.05,0,0,0l.09,0,.09.07a1,1,0,0,0,.24.09.75.75,0,0,0,.47,0s0,0,0,0Z" transform="translate(-281.94 -406.41)"/></g></svg>